<svg xmlns="http://www.w3.org/2000/svg" width="1035.023" height="770.175" viewBox="0 0 1035.023 770.175">
  <g id="about-content-bg" transform="translate(-769.545 -7226.284)">
    <path id="Path_9567" data-name="Path 9567" d="M19.794,0H990.661a19.794,19.794,0,0,1,19.794,19.794V743.417a19.794,19.794,0,0,1-19.794,19.794L19.794,733.519A19.794,19.794,0,0,1,0,713.725l78.956-120.21L0,19.794A19.794,19.794,0,0,1,19.794,0Z" transform="translate(769.545 7233.248)" fill="#c7c7c7"/>
    <g id="Path_9566" data-name="Path 9566" transform="translate(828.239 7306.32)" fill="#fff">
      <path d="M 58.18756103515625 662.4351806640625 C 52.03275680541992 660.7144775390625 44.32550811767578 657.4419555664062 36.97207260131836 653.4227905273438 C 32.35244750976562 650.8978271484375 27.81844711303711 648.0640258789062 23.49607276916504 645.0000610351562 C 18.62457275390625 641.5468139648438 13.98957252502441 637.7761840820312 9.719822883605957 633.7930297851562 C -0.2721770107746124 624.4715576171875 -8.377926826477051 613.9121704101562 -14.37217712402344 602.4083251953125 C -17.7681770324707 595.8909301757812 -20.51955223083496 588.9871826171875 -22.5499267578125 581.8890380859375 C -24.72729682922363 574.2770385742188 -26.12978363037109 566.2506103515625 -26.71891021728516 558.0296020507812 L 2.195947885513306 19.10542869567871 L 2.199573040008545 19.03842926025391 L 2.199573040008545 18.9714298248291 C 2.199573040008545 18.48467826843262 2.188447952270508 17.84430313110352 2.174323081970215 17.03342819213867 C 2.073198080062866 11.23592853546143 1.836447954177856 -2.340696096420288 4.602697849273682 -17.62482070922852 C 6.149073123931885 -26.1686954498291 8.417323112487793 -33.96519470214844 11.34432315826416 -40.79769515991211 C 14.84332275390625 -48.96507263183594 19.33919715881348 -55.87594604492188 24.70707321166992 -61.33832168579102 C 29.70107269287109 -66.42019653320312 35.56344985961914 -70.3563232421875 42.13144683837891 -73.03732299804688 C 45.69032287597656 -74.49007415771484 49.53182220458984 -75.60494232177734 53.54932403564453 -76.35094451904297 C 57.78357315063477 -77.13719940185547 62.33232116699219 -77.53594970703125 67.06919860839844 -77.53594970703125 C 74.13507080078125 -77.53594970703125 81.85295104980469 -76.64981842041016 90.00832366943359 -74.90219879150391 L 90.07207489013672 -74.88857269287109 L 90.13645172119141 -74.87819671630859 C 90.78507232666016 -74.77419281005859 156.0079498291016 -64.34407043457031 243.7270660400391 -52.47694778442383 C 295.2481994628906 -45.5069465637207 344.3368225097656 -39.41181945800781 389.6293334960938 -34.3610725402832 C 446.2569580078125 -28.04632186889648 497.0797119140625 -23.35519599914551 540.6858520507812 -20.41794586181641 C 597.07421875 -16.61982154846191 658.4130859375 -14.69394588470459 722.9984741210938 -14.69394588470459 C 780.456298828125 -14.69394588470459 829.9006958007812 -16.24994659423828 861.2615966796875 -17.55532073974609 C 893.6337890625 -18.90268516540527 913.9301147460938 -20.26775169372559 915.9639282226562 -20.40693283081055 C 921.5347900390625 -20.05130004882812 926.79052734375 -18.94894790649414 931.5883178710938 -17.12994575500488 C 936.1575927734375 -15.39757061004639 940.4337158203125 -12.96857070922852 944.2978515625 -9.910446166992188 C 951.4346923828125 -4.262071132659912 957.4107055664062 3.703804016113281 962.0596923828125 13.76617908477783 C 966.1716918945312 22.66580390930176 969.263671875 33.22142791748047 971.2500610351562 45.13980484008789 C 972.9592895507812 55.3948860168457 973.8271484375 66.44664001464844 973.8295288085938 77.98965454101562 L 955.0333862304688 548.8842163085938 C 953.645751953125 556.9874267578125 950.904541015625 564.861328125 946.8847045898438 572.288818359375 C 943.1355590820312 579.216064453125 938.1829223632812 585.9264526367188 932.1640625 592.2337036132812 C 921.6173095703125 603.2858276367188 907.5786743164062 613.3754272460938 890.4382934570312 622.2222900390625 C 876.9915771484375 629.1626586914062 861.8060913085938 635.2702026367188 845.3037109375 640.3753051757812 C 830.4260864257812 644.9777221679688 818.6102294921875 647.4857788085938 812.770263671875 648.5896606445312 L 58.18756103515625 662.4351806640625 Z" stroke="none"/>
      <path d="M 67.0692138671875 -75.0360107421875 C 62.485107421875 -75.0360107421875 58.08990478515625 -74.6514892578125 54.0057373046875 -73.89306640625 C 50.15521240234375 -73.17816162109375 46.47802734375 -72.11151123046875 43.0762939453125 -70.72283935546875 C 39.86505126953125 -69.41204833984375 36.80987548828125 -67.77777099609375 33.99560546875 -65.865234375 C 31.3291015625 -64.0531005859375 28.80389404296875 -61.9405517578125 26.49017333984375 -59.5860595703125 C 21.341064453125 -54.346435546875 17.0184326171875 -47.69390869140625 13.64227294921875 -39.813232421875 C 10.7891845703125 -33.15362548828125 8.57562255859375 -25.53857421875 7.06268310546875 -17.17962646484375 C 4.34027099609375 -2.13787841796875 4.57403564453125 11.2659912109375 4.67376708984375 16.98968505859375 C 4.68817138671875 17.812744140625 4.699462890625 18.4627685546875 4.699462890625 18.9713134765625 L 4.699462890625 19.10528564453125 L 4.6922607421875 19.23919677734375 L -24.2139892578125 558.0071411132812 C -23.630615234375 566.0012817382812 -22.26239013671875 573.8035888671875 -20.146240234375 581.201416015625 C -18.162109375 588.1381225585938 -15.47344970703125 594.884521484375 -12.155029296875 601.2530517578125 C -6.2923583984375 612.504638671875 1.6412353515625 622.8375854492188 11.42523193359375 631.9649047851562 C 15.61346435546875 635.8720703125 20.16107177734375 639.5715942382812 24.94189453125 642.9605102539062 C 29.18536376953125 645.968505859375 33.63629150390625 648.75048828125 38.17095947265625 651.22900390625 C 45.226806640625 655.0855712890625 52.5916748046875 658.2327270507812 58.51214599609375 659.9288330078125 L 812.5125732421875 646.093994140625 C 818.36865234375 644.9805908203125 829.9779663085938 642.4994506835938 844.5648193359375 637.987060546875 C 860.9270629882812 632.9251708984375 875.975341796875 626.8737182617188 889.291748046875 620.0006103515625 C 906.184814453125 611.2814331054688 920.0006713867188 601.358642578125 930.35546875 590.5076904296875 C 936.2210693359375 584.3609008789062 941.0425415039062 577.8309326171875 944.68603515625 571.098876953125 C 948.5498046875 563.9598999023438 951.1920166015625 556.3984985351562 952.5419311523438 548.6200561523438 L 971.3294677734375 77.94039916992188 C 971.3245239257812 66.55264282226562 970.46826171875 55.65582275390625 968.7839965820312 45.5506591796875 C 966.8344116210938 33.8526611328125 963.8084106445312 23.5115966796875 959.7901611328125 14.81463623046875 C 955.3071899414062 5.1116943359375 949.5728149414062 -2.5474853515625 942.7462768554688 -7.95013427734375 C 939.08349609375 -10.84893798828125 935.0311889648438 -13.15093994140625 930.7020263671875 -14.79241943359375 C 926.184326171875 -16.50518798828125 921.2291870117188 -17.55059814453125 915.9681396484375 -17.9013671875 C 913.15869140625 -17.710693359375 893.025390625 -16.375244140625 861.365478515625 -15.057373046875 C 829.98095703125 -13.7510986328125 780.4993286132812 -12.19390869140625 722.9984130859375 -12.19390869140625 C 658.357177734375 -12.19390869140625 596.9619140625 -14.12164306640625 540.5177612304688 -17.92364501953125 C 496.8753356933594 -20.86322021484375 446.0160217285156 -25.5576171875 389.3521728515625 -31.8765869140625 C 344.0404052734375 -36.92938232421875 294.93212890625 -43.0269775390625 243.3919067382812 -49.9996337890625 C 155.642822265625 -61.870849609375 90.38958740234375 -72.305908203125 89.74066162109375 -72.409912109375 L 89.61199951171875 -72.4305419921875 L 89.48455810546875 -72.457763671875 C 81.50079345703125 -74.1685791015625 73.959228515625 -75.0360107421875 67.0692138671875 -75.0360107421875 M 67.06927490234375 -80.0360107421875 C 74.13232421875 -80.0360107421875 81.91864013671875 -79.19256591796875 90.53216552734375 -77.3468017578125 C 90.53216552734375 -77.3468017578125 349.8382568359375 -35.7786865234375 540.853759765625 -22.91229248046875 C 604.521728515625 -18.623779296875 667.4301147460938 -17.1939697265625 722.9984130859375 -17.1939697265625 C 834.1452026367188 -17.1939697265625 915.9566650390625 -22.91229248046875 915.9566650390625 -22.91229248046875 C 964.4528198242188 -19.9432373046875 976.3294677734375 35.48101806640625 976.3294677734375 78.03890991210938 L 957.5249633789062 549.14453125 C 945.6482543945312 619.4144897460938 841.7279052734375 645.6922607421875 813.026123046875 651.08544921875 L 57.8714599609375 664.94140625 C 36.0977783203125 659.003173828125 -24.2750244140625 628.3218383789062 -29.22357177734375 558.0519409179688 L -0.300537109375 18.9713134765625 C -0.300537109375 9.0101318359375 -5.4010009765625 -80.0360107421875 67.06927490234375 -80.0360107421875 Z" stroke="none" fill="#8eab96"/>
    </g>
  </g>
</svg>
