<svg xmlns="http://www.w3.org/2000/svg" width="94.247" height="179.005" viewBox="0 0 94.247 179.005">
  <g id="blue_owning_right" transform="translate(-1961.753 -4935)">
    <g id="Group_2777" data-name="Group 2777" transform="translate(1967.577 4935)">
      <rect id="Rectangle_315" data-name="Rectangle 315" width="0.976" height="141.493" fill="#29255f"/>
    </g>
    <g id="Group_2778" data-name="Group 2778" transform="translate(1961.753 5075.023)">
      <path id="Path_9335" data-name="Path 9335" d="M323.247,139.458A55.267,55.267,0,0,0,402.685,154.2l.005,0a.6.6,0,0,1,.872.782c-4.183,7.3-11.432,12.9-19.563,16.021a48.685,48.685,0,0,1-49.339-9.155c-6.471-5.831-11.23-13.654-12.513-21.974a.6.6,0,0,1,1.1-.418Z" transform="translate(-315.285 -135.108)" fill="#29255f"/>
      <path id="Path_9336" data-name="Path 9336" d="M314.441,141.133a6.58,6.58,0,0,1,1.634-3.79,7.655,7.655,0,0,1,3.579-2.356,8.2,8.2,0,0,1,4.236-.182,7.578,7.578,0,0,1,3.568,1.812.626.626,0,0,1-.312,1.089l-.088.014a16.106,16.106,0,0,1-1.79.122c-.562.075-1.1.049-1.616.147a13.42,13.42,0,0,0-2.834.588,12.777,12.777,0,0,0-2.583,1.192c-.87.5-1.751,1.165-2.722,1.845l-.1.071a.617.617,0,0,1-.969-.551Z" transform="translate(-314.439 -134.606)" fill="#29255f"/>
      <path id="Path_9337" data-name="Path 9337" d="M417.5,160.436c-.663-.983-1.245-1.922-1.878-2.7a12.787,12.787,0,0,0-1.984-2.039,13.468,13.468,0,0,0-2.435-1.566c-.442-.274-.958-.445-1.456-.717a16.117,16.117,0,0,1-1.626-.756l-.077-.045a.626.626,0,0,1,.1-1.129,7.582,7.582,0,0,1,3.98-.411,8.2,8.2,0,0,1,3.89,1.69,7.648,7.648,0,0,1,2.5,3.484,6.573,6.573,0,0,1,.165,4.123.617.617,0,0,1-1.1.167Z" transform="translate(-324.683 -136.405)" fill="#29255f"/>
    </g>
  </g>
</svg>
