<svg xmlns="http://www.w3.org/2000/svg" width="1251.171" height="1592.615" viewBox="0 0 1251.171 1592.615">
  <g id="cap-bg" transform="matrix(0.719, -0.695, 0.695, 0.719, -451.974, 1130.826)">
    <g id="Group_46" data-name="Group 46" transform="translate(202.817 441.383)">
      <path id="Path_118" data-name="Path 118" d="M213.724,269.507h-6.932v-6.932h-5.709v6.932h-6.932v5.709h6.932v6.932h5.709v-6.932h6.932Z" transform="translate(-194.151 -262.575)" fill="#f9fbfc"/>
      <path id="Path_119" data-name="Path 119" d="M213.724,269.507h-6.932v-6.932h-5.709v6.932h-6.932v5.709h6.932v6.932h5.709v-6.932h6.932Z" transform="translate(-194.151 -262.575)" fill="none" stroke="#738cbf" stroke-linecap="round" stroke-linejoin="round" stroke-width="0.75"/>
    </g>
    <g id="Group_47" data-name="Group 47" transform="translate(1472.414 574.52)">
      <path id="Path_120" data-name="Path 120" d="M385.718,303.533h-6.932V296.6h-5.709v6.932h-6.932v5.709h6.932v6.932h5.709v-6.932h6.932Z" transform="translate(-366.145 -296.601)" fill="#f9fbfc"/>
      <path id="Path_121" data-name="Path 121" d="M385.718,303.533h-6.932V296.6h-5.709v6.932h-6.932v5.709h6.932v6.932h5.709v-6.932h6.932Z" transform="translate(-366.145 -296.601)" fill="none" stroke="#738cbf" stroke-linecap="round" stroke-linejoin="round" stroke-width="0.75"/>
    </g>
    <g id="Group_48" data-name="Group 48" transform="translate(540.082 526.678)">
      <path id="Path_122" data-name="Path 122" d="M242.926,293.2a7.919,7.919,0,1,0-7.919,7.919A7.918,7.918,0,0,0,242.926,293.2Z" transform="translate(-227.089 -285.287)" fill="#f9fbfc"/>
      <path id="Path_123" data-name="Path 123" d="M242.926,293.2a7.919,7.919,0,1,0-7.919,7.919A7.918,7.918,0,0,0,242.926,293.2Z" transform="translate(-227.089 -285.287)" fill="none" stroke="#738cbf" stroke-linecap="round" stroke-linejoin="round" stroke-width="0.75"/>
      <line id="Line_43" data-name="Line 43" x1="11.764" transform="translate(2.037 7.918)" fill="none" stroke="#738cbf" stroke-linecap="round" stroke-linejoin="round" stroke-width="0.75"/>
    </g>
    <g id="Group_49" data-name="Group 49" transform="translate(734.39 201.189)">
      <circle id="Ellipse_2" data-name="Ellipse 2" cx="7.918" cy="7.918" r="7.918" fill="#f9fbfc"/>
      <circle id="Ellipse_3" data-name="Ellipse 3" cx="7.918" cy="7.918" r="7.918" fill="none" stroke="#738cbf" stroke-linecap="round" stroke-linejoin="round" stroke-width="0.75"/>
      <line id="Line_44" data-name="Line 44" x1="8.319" y1="8.319" transform="translate(3.759 3.759)" fill="none" stroke="#738cbf" stroke-linecap="round" stroke-linejoin="round" stroke-width="0.75"/>
    </g>
    <g id="Group_50" data-name="Group 50" transform="translate(1819.529 534.596)">
      <path id="Path_124" data-name="Path 124" d="M457.249,359.017a7.918,7.918,0,1,0-11.2,0A7.917,7.917,0,0,0,457.249,359.017Z" transform="translate(-443.732 -345.5)" fill="#f9fbfc"/>
      <path id="Path_125" data-name="Path 125" d="M457.249,359.017a7.918,7.918,0,1,0-11.2,0A7.917,7.917,0,0,0,457.249,359.017Z" transform="translate(-443.732 -345.5)" fill="none" stroke="#738cbf" stroke-linecap="round" stroke-linejoin="round" stroke-width="0.75"/>
      <line id="Line_45" data-name="Line 45" x1="8.319" y1="8.319" transform="translate(3.759 3.759)" fill="none" stroke="#738cbf" stroke-linecap="round" stroke-linejoin="round" stroke-width="0.75"/>
    </g>
    <g id="Group_51" data-name="Group 51" transform="translate(826.944 687.205)">
      <ellipse id="Ellipse_4" data-name="Ellipse 4" cx="12.669" cy="5.43" rx="12.669" ry="5.43" fill="#f9fbfc"/>
      <ellipse id="Ellipse_5" data-name="Ellipse 5" cx="12.669" cy="5.43" rx="12.669" ry="5.43" fill="none" stroke="#738cbf" stroke-linecap="round" stroke-linejoin="round" stroke-width="0.75"/>
      <line id="Line_46" data-name="Line 46" y2="6.411" transform="translate(12.669 2.373)" fill="none" stroke="#738cbf" stroke-linecap="round" stroke-linejoin="round" stroke-width="0.75"/>
    </g>
    <g id="Group_52" data-name="Group 52" transform="translate(1334.535 673.137)">
      <path id="Path_126" data-name="Path 126" d="M360.424,317.649c-4.947-4.947-10.677-7.24-12.8-5.119s.172,7.85,5.12,12.8,10.677,7.24,12.8,5.12S365.372,322.6,360.424,317.649Z" transform="translate(-346.835 -311.739)" fill="#f9fbfc"/>
      <path id="Path_127" data-name="Path 127" d="M360.424,317.649c-4.947-4.947-10.677-7.24-12.8-5.119s.172,7.85,5.12,12.8,10.677,7.24,12.8,5.12S365.372,322.6,360.424,317.649Z" transform="translate(-346.835 -311.739)" fill="none" stroke="#738cbf" stroke-linecap="round" stroke-linejoin="round" stroke-width="0.75"/>
      <line id="Line_47" data-name="Line 47" x1="4.533" y2="4.533" transform="translate(7.378 7.587)" fill="none" stroke="#738cbf" stroke-linecap="round" stroke-linejoin="round" stroke-width="0.75"/>
    </g>
    <g id="Group_53" data-name="Group 53" transform="translate(1845.355 224.516)">
      <path id="Path_128" data-name="Path 128" d="M400.129,223.042l8.02,8.02a2.919,2.919,0,0,0,4.127,0h0a2.919,2.919,0,0,0,0-4.127l-8.02-8.02a2.919,2.919,0,0,0-4.127,0h0A2.919,2.919,0,0,0,400.129,223.042Z" transform="translate(-399.275 -218.06)" fill="#f9fbfc"/>
      <path id="Path_129" data-name="Path 129" d="M400.129,223.042l8.02,8.02a2.919,2.919,0,0,0,4.127,0h0a2.919,2.919,0,0,0,0-4.127l-8.02-8.02a2.919,2.919,0,0,0-4.127,0h0A2.919,2.919,0,0,0,400.129,223.042Z" transform="translate(-399.275 -218.06)" fill="none" stroke="#738cbf" stroke-linecap="round" stroke-linejoin="round" stroke-width="0.75"/>
      <path id="Path_130" data-name="Path 130" d="M400.129,223.042l4.089,4.089L408.345,223l-4.089-4.089a2.919,2.919,0,0,0-4.127,0h0A2.919,2.919,0,0,0,400.129,223.042Z" transform="translate(-399.275 -218.06)" fill="#92e3a9"/>
      <path id="Path_131" data-name="Path 131" d="M400.129,223.042l4.089,4.089L408.345,223l-4.089-4.089a2.919,2.919,0,0,0-4.127,0h0A2.919,2.919,0,0,0,400.129,223.042Z" transform="translate(-399.275 -218.06)" fill="none" stroke="#738cbf" stroke-linecap="round" stroke-linejoin="round" stroke-width="0.75"/>
    </g>
    <g id="Group_54" data-name="Group 54" transform="translate(889.037 219.605)">
      <path id="Path_132" data-name="Path 132" d="M281.976,217.425v11.341a2.919,2.919,0,0,0,2.919,2.919h0a2.918,2.918,0,0,0,2.917-2.919V217.425a2.918,2.918,0,0,0-2.917-2.917h0A2.918,2.918,0,0,0,281.976,217.425Z" transform="translate(-281.976 -214.508)" fill="#f9fbfc"/>
      <path id="Path_133" data-name="Path 133" d="M281.976,217.425v11.341a2.919,2.919,0,0,0,2.919,2.919h0a2.918,2.918,0,0,0,2.917-2.919V217.425a2.918,2.918,0,0,0-2.917-2.917h0A2.918,2.918,0,0,0,281.976,217.425Z" transform="translate(-281.976 -214.508)" fill="none" stroke="#738cbf" stroke-linecap="round" stroke-linejoin="round" stroke-width="0.75"/>
      <path id="Path_134" data-name="Path 134" d="M281.976,217.425v5.782h5.836v-5.782a2.918,2.918,0,0,0-2.917-2.917h0A2.918,2.918,0,0,0,281.976,217.425Z" transform="translate(-281.976 -214.508)" fill="#92e3a9"/>
      <path id="Path_135" data-name="Path 135" d="M281.976,217.425v5.782h5.836v-5.782a2.918,2.918,0,0,0-2.917-2.917h0A2.918,2.918,0,0,0,281.976,217.425Z" transform="translate(-281.976 -214.508)" fill="none" stroke="#738cbf" stroke-linecap="round" stroke-linejoin="round" stroke-width="0.75"/>
    </g>
    <g id="Group_55" data-name="Group 55" transform="translate(171.506 634.016)">
      <path id="Path_136" data-name="Path 136" d="M172.36,318.64l8.02,8.02a2.919,2.919,0,0,0,4.127,0h0a2.919,2.919,0,0,0,0-4.127l-8.02-8.02a2.919,2.919,0,0,0-4.127,0h0A2.919,2.919,0,0,0,172.36,318.64Z" transform="translate(-171.506 -313.658)" fill="#f9fbfc"/>
      <path id="Path_137" data-name="Path 137" d="M172.36,318.64l8.02,8.02a2.919,2.919,0,0,0,4.127,0h0a2.919,2.919,0,0,0,0-4.127l-8.02-8.02a2.919,2.919,0,0,0-4.127,0h0A2.919,2.919,0,0,0,172.36,318.64Z" transform="translate(-171.506 -313.658)" fill="none" stroke="#738cbf" stroke-linecap="round" stroke-linejoin="round" stroke-width="0.75"/>
      <path id="Path_138" data-name="Path 138" d="M172.36,318.64l4.089,4.089,4.127-4.127-4.089-4.089a2.919,2.919,0,0,0-4.127,0h0A2.919,2.919,0,0,0,172.36,318.64Z" transform="translate(-171.506 -313.658)" fill="#92e3a9"/>
      <path id="Path_139" data-name="Path 139" d="M172.36,318.64l4.089,4.089,4.127-4.127-4.089-4.089a2.919,2.919,0,0,0-4.127,0h0A2.919,2.919,0,0,0,172.36,318.64Z" transform="translate(-171.506 -313.658)" fill="none" stroke="#738cbf" stroke-linecap="round" stroke-linejoin="round" stroke-width="0.75"/>
    </g>
    <g id="Group_56" data-name="Group 56" transform="translate(1173.774 488.773)">
      <path id="Path_140" data-name="Path 140" d="M325.145,299.815h11.341A2.919,2.919,0,0,0,339.4,296.9h0a2.918,2.918,0,0,0-2.919-2.917H325.145a2.918,2.918,0,0,0-2.919,2.917h0A2.919,2.919,0,0,0,325.145,299.815Z" transform="translate(-322.226 -293.979)" fill="#f9fbfc"/>
      <path id="Path_141" data-name="Path 141" d="M325.145,299.815h11.341A2.919,2.919,0,0,0,339.4,296.9h0a2.918,2.918,0,0,0-2.919-2.917H325.145a2.918,2.918,0,0,0-2.919,2.917h0A2.919,2.919,0,0,0,325.145,299.815Z" transform="translate(-322.226 -293.979)" fill="none" stroke="#738cbf" stroke-linecap="round" stroke-linejoin="round" stroke-width="0.75"/>
      <path id="Path_142" data-name="Path 142" d="M325.145,299.815h5.782v-5.836h-5.782a2.918,2.918,0,0,0-2.919,2.917h0A2.919,2.919,0,0,0,325.145,299.815Z" transform="translate(-322.226 -293.979)" fill="#f16880"/>
      <path id="Path_143" data-name="Path 143" d="M325.145,299.815h5.782v-5.836h-5.782a2.918,2.918,0,0,0-2.919,2.917h0A2.919,2.919,0,0,0,325.145,299.815Z" transform="translate(-322.226 -293.979)" fill="none" stroke="#738cbf" stroke-linecap="round" stroke-linejoin="round" stroke-width="0.75"/>
    </g>
    <g id="Group_57" data-name="Group 57" transform="translate(1328.698 806.341)">
      <path id="Path_144" data-name="Path 144" d="M355.5,363.524V352.184a2.918,2.918,0,0,0-2.919-2.918h0a2.918,2.918,0,0,0-2.919,2.918v11.341a2.919,2.919,0,0,0,2.919,2.919h0A2.919,2.919,0,0,0,355.5,363.524Z" transform="translate(-349.665 -349.266)" fill="#f9fbfc"/>
      <path id="Path_145" data-name="Path 145" d="M355.5,363.524V352.184a2.918,2.918,0,0,0-2.919-2.918h0a2.918,2.918,0,0,0-2.919,2.918v11.341a2.919,2.919,0,0,0,2.919,2.919h0A2.919,2.919,0,0,0,355.5,363.524Z" transform="translate(-349.665 -349.266)" fill="none" stroke="#738cbf" stroke-linecap="round" stroke-linejoin="round" stroke-width="0.75"/>
      <path id="Path_146" data-name="Path 146" d="M355.5,361.178V355.4h-5.838v5.781a2.919,2.919,0,0,0,2.919,2.919h0A2.919,2.919,0,0,0,355.5,361.178Z" transform="translate(-349.665 -346.92)" fill="#f16880"/>
      <path id="Path_147" data-name="Path 147" d="M355.5,361.178V355.4h-5.838v5.781a2.919,2.919,0,0,0,2.919,2.919h0A2.919,2.919,0,0,0,355.5,361.178Z" transform="translate(-349.665 -346.92)" fill="none" stroke="#738cbf" stroke-linecap="round" stroke-linejoin="round" stroke-width="0.75"/>
    </g>
    <g id="Group_58" data-name="Group 58" transform="translate(205.824 822.811)">
      <path id="Path_148" data-name="Path 148" d="M196.326,364.1v11.341a2.918,2.918,0,0,0,2.917,2.917h0a2.918,2.918,0,0,0,2.919-2.917V364.1a2.919,2.919,0,0,0-2.919-2.919h0A2.918,2.918,0,0,0,196.326,364.1Z" transform="translate(-196.326 -361.177)" fill="#f9fbfc"/>
      <path id="Path_149" data-name="Path 149" d="M196.326,364.1v11.341a2.918,2.918,0,0,0,2.917,2.917h0a2.918,2.918,0,0,0,2.919-2.917V364.1a2.919,2.919,0,0,0-2.919-2.919h0A2.918,2.918,0,0,0,196.326,364.1Z" transform="translate(-196.326 -361.177)" fill="none" stroke="#738cbf" stroke-linecap="round" stroke-linejoin="round" stroke-width="0.75"/>
      <path id="Path_150" data-name="Path 150" d="M196.326,364.1v5.781h5.836V364.1a2.919,2.919,0,0,0-2.919-2.919h0A2.918,2.918,0,0,0,196.326,364.1Z" transform="translate(-196.326 -361.177)" fill="#cdd9e9"/>
      <path id="Path_151" data-name="Path 151" d="M196.326,364.1v5.781h5.836V364.1a2.919,2.919,0,0,0-2.919-2.919h0A2.918,2.918,0,0,0,196.326,364.1Z" transform="translate(-196.326 -361.177)" fill="none" stroke="#738cbf" stroke-linecap="round" stroke-linejoin="round" stroke-width="0.75"/>
    </g>
    <g id="Group_59" data-name="Group 59" transform="translate(499.252 364.366)">
      <path id="Path_152" data-name="Path 152" d="M234.138,252.464l-8.018-8.02a2.919,2.919,0,0,0-4.127,0h0a2.917,2.917,0,0,0,0,4.127l8.018,8.02a2.919,2.919,0,0,0,4.127,0h0A2.917,2.917,0,0,0,234.138,252.464Z" transform="translate(-221.137 -243.59)" fill="#f9fbfc"/>
      <path id="Path_153" data-name="Path 153" d="M234.138,252.464l-8.018-8.02a2.919,2.919,0,0,0-4.127,0h0a2.917,2.917,0,0,0,0,4.127l8.018,8.02a2.919,2.919,0,0,0,4.127,0h0A2.917,2.917,0,0,0,234.138,252.464Z" transform="translate(-221.137 -243.59)" fill="none" stroke="#738cbf" stroke-linecap="round" stroke-linejoin="round" stroke-width="0.75"/>
      <path id="Path_154" data-name="Path 154" d="M232.814,251.14l-4.089-4.089-4.126,4.127,4.087,4.089a2.919,2.919,0,0,0,4.127,0h0A2.917,2.917,0,0,0,232.814,251.14Z" transform="translate(-219.813 -242.266)" fill="#cdd9e9"/>
      <path id="Path_155" data-name="Path 155" d="M232.814,251.14l-4.089-4.089-4.126,4.127,4.087,4.089a2.919,2.919,0,0,0,4.127,0h0A2.917,2.917,0,0,0,232.814,251.14Z" transform="translate(-219.813 -242.266)" fill="none" stroke="#738cbf" stroke-linecap="round" stroke-linejoin="round" stroke-width="0.75"/>
    </g>
    <g id="Group_60" data-name="Group 60" transform="translate(1640.386 403.558)">
      <path id="Path_156" data-name="Path 156" d="M398.924,266.775l8.018-8.02a2.917,2.917,0,0,0,0-4.127h0a2.919,2.919,0,0,0-4.127,0l-8.018,8.02a2.919,2.919,0,0,0,0,4.127h0A2.919,2.919,0,0,0,398.924,266.775Z" transform="translate(-393.942 -253.774)" fill="#f9fbfc"/>
      <path id="Path_157" data-name="Path 157" d="M398.924,266.775l8.018-8.02a2.917,2.917,0,0,0,0-4.127h0a2.919,2.919,0,0,0-4.127,0l-8.018,8.02a2.919,2.919,0,0,0,0,4.127h0A2.919,2.919,0,0,0,398.924,266.775Z" transform="translate(-393.942 -253.774)" fill="none" stroke="#738cbf" stroke-linecap="round" stroke-linejoin="round" stroke-width="0.75"/>
      <path id="Path_158" data-name="Path 158" d="M398.924,265.451l4.089-4.089-4.127-4.127-4.089,4.089a2.919,2.919,0,0,0,0,4.127h0A2.919,2.919,0,0,0,398.924,265.451Z" transform="translate(-393.942 -252.449)" fill="#cdd9e9"/>
      <path id="Path_159" data-name="Path 159" d="M398.924,265.451l4.089-4.089-4.127-4.127-4.089,4.089a2.919,2.919,0,0,0,0,4.127h0A2.919,2.919,0,0,0,398.924,265.451Z" transform="translate(-393.942 -252.449)" fill="none" stroke="#738cbf" stroke-linecap="round" stroke-linejoin="round" stroke-width="0.75"/>
    </g>
    <g id="Group_61" data-name="Group 61" transform="translate(1845.329 358.431)">
      <path id="Path_160" data-name="Path 160" d="M402.173,248.807h11.341a2.918,2.918,0,0,0,2.919-2.917h0a2.919,2.919,0,0,0-2.919-2.919H402.173a2.918,2.918,0,0,0-2.917,2.919h0A2.918,2.918,0,0,0,402.173,248.807Z" transform="translate(-399.256 -242.971)" fill="none" stroke="#738cbf" stroke-linecap="round" stroke-linejoin="round" stroke-width="0.75"/>
      <path id="Path_161" data-name="Path 161" d="M402.173,248.807h5.782v-5.836h-5.782a2.918,2.918,0,0,0-2.917,2.919h0A2.918,2.918,0,0,0,402.173,248.807Z" transform="translate(-399.256 -242.971)" fill="none" stroke="#738cbf" stroke-linecap="round" stroke-linejoin="round" stroke-width="0.75"/>
    </g>
  </g>
</svg>
