<svg xmlns="http://www.w3.org/2000/svg" width="252.022" height="507.392" viewBox="0 0 252.022 507.392">
  <g id="contact-happy-avtar" transform="translate(1416.148 -1337.773)">
    <g id="Group_2515" data-name="Group 2515" transform="translate(-1415.497 1338.424)">
      <g id="Group_211" data-name="Group 211" transform="translate(0 0)">
        <g id="Group_202" data-name="Group 202" transform="translate(12.472 477.562)">
          <path id="Path_420" data-name="Path 420" d="M188.448,442.56,184,448.17s-13.348,5.223-15.862,7.545-7.545,12.188-7.545,12.188l2.128,2.9s8.9.58,14.316.386,12.187-2.322,13.734-3.288,6.577-8.125,7.545-9.286,3.1-.58,5.8-1.934,2.322-11.994,2.322-11.994Z" transform="translate(-160.592 -442.56)" fill="#263238" stroke="#263238" stroke-linecap="round" stroke-miterlimit="10" stroke-width="1"/>
          <path id="Path_421" data-name="Path 421" d="M190.182,443.494s.062.352.175.865c.291,1.314.925,3.694,1.76,3.972,1.16.386,7.157-3.869,7.157-3.869" transform="translate(-153.427 -442.334)" fill="#fff" stroke="#263238" stroke-linecap="round" stroke-miterlimit="10" stroke-width="1"/>
        </g>
        <g id="Group_203" data-name="Group 203" transform="translate(192.003 477.562)">
          <path id="Path_422" data-name="Path 422" d="M323.135,442.56l4.449,5.61s13.348,5.223,15.863,7.545,7.544,12.188,7.544,12.188l-2.128,2.9s-8.9.58-14.315.386-12.188-2.322-13.736-3.288-6.577-8.125-7.545-9.286-3.094-.58-5.8-1.934-2.322-11.994-2.322-11.994Z" transform="translate(-305.125 -442.56)" fill="#263238" stroke="#263238" stroke-linecap="round" stroke-miterlimit="10" stroke-width="1"/>
          <path id="Path_423" data-name="Path 423" d="M314.233,443.494s-.061.352-.174.865c-.291,1.314-.925,3.694-1.76,3.972-1.161.386-7.159-3.869-7.159-3.869" transform="translate(-305.121 -442.334)" fill="#fff" stroke="#263238" stroke-linecap="round" stroke-miterlimit="10" stroke-width="1"/>
        </g>
        <g id="Group_204" data-name="Group 204" transform="translate(39.498 256.803)">
          <path id="Path_424" data-name="Path 424" d="M353.7,487.5,312.845,310.865l-8.055-46.029-36.767.49-36.767-.49L223.2,310.865,182.349,487.5l18.987,1.726,66.686-160.966,66.686,160.966Z" transform="translate(-182.349 -264.836)" fill="#263238" stroke="#263238" stroke-linecap="round" stroke-miterlimit="10" stroke-width="1"/>
          <line id="Line_50" data-name="Line 50" x2="1.966" y2="2.971" transform="translate(75.537 46.975)" fill="none" stroke="#858585" stroke-linecap="round" stroke-miterlimit="10" stroke-width="1"/>
          <line id="Line_51" data-name="Line 51" x1="2.126" y2="6.823" transform="translate(9.008 207.737)" fill="none" stroke="#858585" stroke-linecap="round" stroke-miterlimit="10" stroke-width="1"/>
          <line id="Line_52" data-name="Line 52" x1="44.033" y2="141.332" transform="translate(14.098 56.888)" fill="none" stroke="#858585" stroke-linecap="round" stroke-miterlimit="10" stroke-width="1"/>
          <line id="Line_53" data-name="Line 53" x2="1.16" y2="4.04" transform="translate(161.558 206.559)" fill="none" stroke="#858585" stroke-linecap="round" stroke-miterlimit="10" stroke-width="1"/>
          <line id="Line_54" data-name="Line 54" x2="26.312" y2="91.637" transform="translate(133.983 110.522)" fill="none" stroke="#858585" stroke-linecap="round" stroke-miterlimit="10" stroke-width="1"/>
          <line id="Line_55" data-name="Line 55" x2="16.042" y2="55.869" transform="translate(116.763 50.55)" fill="none" stroke="#858585" stroke-linecap="round" stroke-miterlimit="10" stroke-width="1"/>
          <line id="Line_56" data-name="Line 56" x2="13.757" y2="20.795" transform="translate(58.46 21.161)" fill="none" stroke="#858585" stroke-linecap="round" stroke-miterlimit="10" stroke-width="1"/>
          <path id="Path_425" data-name="Path 425" d="M267.146,290.8a11.21,11.21,0,0,0-1.368,2.635" transform="translate(-162.147 -258.548)" fill="none" stroke="#858585" stroke-linecap="round" stroke-miterlimit="10" stroke-width="1"/>
          <path id="Path_426" data-name="Path 426" d="M277.856,276.88s-5.139,7.443-8.916,13.249" transform="translate(-161.382 -261.919)" fill="none" stroke="#858585" stroke-linecap="round" stroke-miterlimit="10" stroke-width="1"/>
        </g>
        <rect id="Rectangle_219" data-name="Rectangle 219" width="5.525" height="12.477" rx="2.113" transform="translate(13.439 2.068) rotate(-21.984)" fill="#fff" stroke="#263238" stroke-linecap="round" stroke-miterlimit="10" stroke-width="1"/>
        <rect id="Rectangle_220" data-name="Rectangle 220" width="5.525" height="12.477" rx="2.113" transform="translate(8.448 5.455) rotate(-21.984)" fill="#fff" stroke="#263238" stroke-linecap="round" stroke-miterlimit="10" stroke-width="1"/>
        <rect id="Rectangle_221" data-name="Rectangle 221" width="5.525" height="12.477" rx="2.113" transform="translate(3.92 9.458) rotate(-21.984)" fill="#fff" stroke="#263238" stroke-linecap="round" stroke-miterlimit="10" stroke-width="1"/>
        <rect id="Rectangle_222" data-name="Rectangle 222" width="5.525" height="10.572" rx="2.113" transform="translate(0 13.556) rotate(-21.974)" fill="#fff" stroke="#263238" stroke-linecap="round" stroke-miterlimit="10" stroke-width="1"/>
        <path id="Path_427" data-name="Path 427" d="M379.592,64.855l-10.459,24.4L305.074,194.716l-9.588,6.1-20.481.773-20.482-.773-9.587-6.1L180.877,89.258l-10.458-24.4L154.295,78.8S161.7,91,163.446,91.873s8.716,3.487,8.716,3.487l27.89,89.769,33.118,75.826,4.6,35.509s-4.754,13.865-2.376,17.431c3.251,4.875,14.979,6.965,20.129,8.649a60.583,60.583,0,0,0,36.351.846c6.86-1.918,18.447-3.038,22.751-9.495,2.377-3.566-2.378-17.431-2.378-17.431l4.6-35.509,33.119-75.826L377.848,95.36s6.973-2.615,8.716-3.487S395.715,78.8,395.715,78.8Z" transform="translate(-149.645 -56.457)" fill="#fff" stroke="#263238" stroke-linecap="round" stroke-miterlimit="10" stroke-width="1"/>
        <rect id="Rectangle_223" data-name="Rectangle 223" width="5.525" height="12.477" rx="2.113" transform="translate(232.613 13.638) rotate(-158.026)" fill="#fff" stroke="#263238" stroke-linecap="round" stroke-miterlimit="10" stroke-width="1"/>
        <rect id="Rectangle_224" data-name="Rectangle 224" width="5.525" height="12.477" rx="2.113" transform="translate(237.603 17.024) rotate(-158.026)" fill="#fff" stroke="#263238" stroke-linecap="round" stroke-miterlimit="10" stroke-width="1"/>
        <rect id="Rectangle_225" data-name="Rectangle 225" width="5.525" height="12.477" rx="2.113" transform="translate(242.131 21.027) rotate(-158.026)" fill="#fff" stroke="#263238" stroke-linecap="round" stroke-miterlimit="10" stroke-width="1"/>
        <rect id="Rectangle_226" data-name="Rectangle 226" width="5.525" height="10.572" rx="2.113" transform="translate(246.765 23.36) rotate(-158.026)" fill="#fff" stroke="#263238" stroke-linecap="round" stroke-miterlimit="10" stroke-width="1"/>
        <g id="Group_205" data-name="Group 205" transform="translate(38.157 68.272)">
          <path id="Path_428" data-name="Path 428" d="M343.427,173.456l16.384-52.738-18.757-7.662-42.512,69.987-9.588,6.1-20.48.773-20.482-.773-9.587-6.1L201.82,122.817l-20.55,11.209,12.25,39.431,33.118,75.825,4.6,35.509s-4.754,13.865-2.376,17.431c2.729,4.09,12.025,5.905,16.318,7.376,13.469,4.617,24.678,6.95,38.5,2.638,6.115-1.907,20.589-4.283,24.409-10.014,2.378-3.566-2.377-17.431-2.377-17.431l4.6-35.509Z" transform="translate(-181.27 -113.057)" fill="#fff" stroke="#263238" stroke-linecap="round" stroke-miterlimit="10" stroke-width="1"/>
          <line id="Line_57" data-name="Line 57" x1="0.576" y2="3.953" transform="translate(52.813 94.269)" fill="none" stroke="#263238" stroke-linecap="round" stroke-miterlimit="10" stroke-width="1"/>
          <line id="Line_58" data-name="Line 58" x1="2.369" y2="16.245" transform="translate(53.977 74)" fill="none" stroke="#263238" stroke-linecap="round" stroke-miterlimit="10" stroke-width="1"/>
          <line id="Line_59" data-name="Line 59" y1="5.092" x2="0.359" transform="translate(131.178 100.746)" fill="none" stroke="#263238" stroke-linecap="round" stroke-miterlimit="10" stroke-width="1"/>
          <line id="Line_60" data-name="Line 60" y1="24.969" x2="1.759" transform="translate(129.038 111.255)" fill="none" stroke="#263238" stroke-linecap="round" stroke-miterlimit="10" stroke-width="1"/>
          <line id="Line_61" data-name="Line 61" x1="0.125" y1="25.891" transform="translate(45.243 110.334)" fill="none" stroke="#263238" stroke-linecap="round" stroke-miterlimit="10" stroke-width="1"/>
          <path id="Path_429" data-name="Path 429" d="M231.5,175.358s-3.562,25.881-1.038,41.526" transform="translate(-169.577 -97.971)" fill="none" stroke="#263238" stroke-linecap="round" stroke-miterlimit="10" stroke-width="1"/>
          <path id="Path_430" data-name="Path 430" d="M267.664,177.1a163.619,163.619,0,0,1,4.037,28.764" transform="translate(-160.35 -97.549)" fill="none" stroke="#263238" stroke-linecap="round" stroke-miterlimit="10" stroke-width="1"/>
          <path id="Path_431" data-name="Path 431" d="M301.3,161.668a36.585,36.585,0,0,0,.607,4.534" transform="translate(-152.205 -101.286)" fill="none" stroke="#263238" stroke-linecap="round" stroke-miterlimit="10" stroke-width="1"/>
          <path id="Path_432" data-name="Path 432" d="M305.477,125.5s-4.14,21.977-4.324,38.35" transform="translate(-152.241 -110.043)" fill="none" stroke="#263238" stroke-linecap="round" stroke-miterlimit="10" stroke-width="1"/>
          <path id="Path_433" data-name="Path 433" d="M300.657,134.848s-2.523,18.672-2.523,26.747" transform="translate(-152.972 -107.78)" fill="none" stroke="#263238" stroke-linecap="round" stroke-miterlimit="10" stroke-width="1"/>
          <path id="Path_434" data-name="Path 434" d="M205.506,135.661s2.523,27.756,4.541,43.4" transform="translate(-175.401 -107.584)" fill="none" stroke="#263238" stroke-linecap="round" stroke-miterlimit="10" stroke-width="1"/>
          <path id="Path_435" data-name="Path 435" d="M212.151,179.132c.006,2.215-.038,4.413-.145,6.56" transform="translate(-173.827 -97.057)" fill="none" stroke="#263238" stroke-linecap="round" stroke-miterlimit="10" stroke-width="1"/>
          <path id="Path_436" data-name="Path 436" d="M209.162,148.255a257.717,257.717,0,0,1,3.615,34.342" transform="translate(-174.516 -104.534)" fill="none" stroke="#263238" stroke-linecap="round" stroke-miterlimit="10" stroke-width="1"/>
        </g>
        <path id="Path_437" data-name="Path 437" d="M200.923,118.211l-20.713,11.265a2.6,2.6,0,0,0-1.271,2.949l2.56,9.675a2.6,2.6,0,0,0,3.733,1.631l22.728-12.074a2.6,2.6,0,0,0,1.091-3.488l-4.576-8.866A2.6,2.6,0,0,0,200.923,118.211Z" transform="translate(-143.698 -43.614)" fill="#fff" stroke="#263238" stroke-linecap="round" stroke-miterlimit="10" stroke-width="1"/>
        <path id="Path_438" data-name="Path 438" d="M311.451,108.394l21.848,8.864a2.6,2.6,0,0,1,1.594,2.786l-1.457,9.9a2.6,2.6,0,0,1-3.525,2.04l-23.941-9.44a2.6,2.6,0,0,1-1.476-3.343l3.55-9.325A2.6,2.6,0,0,1,311.451,108.394Z" transform="translate(-113.316 -45.96)" fill="#fff" stroke="#263238" stroke-linecap="round" stroke-miterlimit="10" stroke-width="1"/>
        <path id="Path_439" data-name="Path 439" d="M178.016,86.944l-3.939-19.693a2.282,2.282,0,0,0-2.531-1.817c-2.979.384-8.253,1.029-10.089,1.029-2.615,0-3.487,5.229-1.308,5.229A26.678,26.678,0,0,1,166.25,73s-3.051,10.895,3.921,14.818" transform="translate(-148.526 -56.321)" fill="#fff" stroke="#263238" stroke-linecap="round" stroke-miterlimit="10" stroke-width="1"/>
        <path id="Path_440" data-name="Path 440" d="M328.655,86.944l3.939-19.693a2.284,2.284,0,0,1,2.533-1.817c2.977.384,8.252,1.029,10.089,1.029,2.615,0,3.486,5.229,1.307,5.229a26.662,26.662,0,0,0-6.1,1.307s3.049,10.895-3.923,14.818" transform="translate(-107.424 -56.321)" fill="#fff" stroke="#263238" stroke-linecap="round" stroke-miterlimit="10" stroke-width="1"/>
        <g id="Group_210" data-name="Group 210" transform="translate(91.488 63.326)">
          <g id="Group_207" data-name="Group 207" transform="translate(8.595 67.602)">
            <path id="Path_441" data-name="Path 441" d="M243.181,192.25l6.735,14.658-6.735,74.478,11.093,12.677,9.508-15.054L254.67,207.7l8.319-17.431-9.9-7.527Z" transform="translate(-228.204 -158.839)" fill="#263238" stroke="#263238" stroke-linecap="round" stroke-miterlimit="10" stroke-width="1"/>
            <path id="Path_442" data-name="Path 442" d="M239.184,171.054s-3.892-.833-5.559,1.668a30.827,30.827,0,0,0-2.5,4.447l7.227,34.463,17.231-15.009,16.954,17.51s3.335-17.232,3.335-29.738-8.894-15.565-11.117-16.4S239.184,171.054,239.184,171.054Z" transform="translate(-231.124 -162.438)" fill="#fff" stroke="#263238" stroke-linecap="round" stroke-miterlimit="10" stroke-width="1"/>
            <g id="Group_206" data-name="Group 206" transform="translate(4.169)">
              <path id="Path_443" data-name="Path 443" d="M234.48,164.055l2.5,16.676s8.06,16.4,14.731,17.231,11.951-4.169,14.731-11.672l2.779-7.5,1.945-15.287Z" transform="translate(-234.48 -163.499)" fill="#fff" stroke="#263238" stroke-linecap="round" stroke-miterlimit="10" stroke-width="1"/>
              <path id="Path_444" data-name="Path 444" d="M271.064,165.7s-14.319,14.318-18.876,16.272-17.248-15.621-17.248-15.621Z" transform="translate(-234.369 -162.965)" fill="#263238"/>
            </g>
          </g>
          <g id="Group_209" data-name="Group 209">
            <path id="Path_445" data-name="Path 445" d="M232.622,163.6a21.845,21.845,0,0,1-7.424-15.907c-.265-10.34,2.122-18.823,3.182-17.5a10.645,10.645,0,0,1,1.59,3.447s.53-14.052,6.364-18.029,5.037,5.567,5.037,5.567,15.378-13.787,25.982-11.931,3.977,5.3,3.977,5.3,15.378,5.832,18.028,11.931-10.87,10.87-10.87,10.87,7.423,1.856,6.362,3.711-4.242,2.651-4.242,2.651-.529,14.052-2.12,15.378-2.386,3.447-4.508-.795-5.567-14.317-13.256-15.642-21.21-1.856-23.065,2.915,1.325,16.173-1.061,18.559S232.622,163.6,232.622,163.6Z" transform="translate(-223.968 -109.076)" fill="#263238" stroke="#263238" stroke-linecap="round" stroke-miterlimit="10" stroke-width="1"/>
            <g id="Group_208" data-name="Group 208" transform="translate(0 21.347)">
              <path id="Path_446" data-name="Path 446" d="M260.24,126.75s-11.1-1.958-17.625,1.959-9.465,11.749-9.465,14.687v12.728s-7.181-5.222-8.486-.325.327,12.075,2.938,12.728a6.073,6.073,0,0,0,4.9-1.305s1.305,7.833,7.181,10.444,13.912,6.554,17.175,6.227,16.116-8.511,17.421-9.817,2.611-8.486,2.611-8.486,2.832,2.733,4.323,1.8c4.155-2.6,4.816-7.675,4.816-11.592s-7.833-2.286-7.833-2.286-3.263-18.6-6.2-22.847S260.24,126.75,260.24,126.75Z" transform="translate(-224.204 -126.261)" fill="#fff" stroke="#263238" stroke-linecap="round" stroke-miterlimit="10" stroke-width="1"/>
              <path id="Path_447" data-name="Path 447" d="M247.959,131.62s3.264-6.854,6.529-4.9,1.306,9.792,1.306,9.792" transform="translate(-218.452 -126.234)" fill="none" stroke="#263238" stroke-linecap="round" stroke-miterlimit="10" stroke-width="1"/>
              <path id="Path_448" data-name="Path 448" d="M240.077,139.53s6.2,3.916,11.1,3.916,10.769-3.263,10.769-3.263" transform="translate(-220.361 -123.048)" fill="none" stroke="#263238" stroke-linecap="round" stroke-miterlimit="10" stroke-width="1"/>
              <path id="Path_449" data-name="Path 449" d="M242.584,139.2s-2.943-.866-3.981,1.558" transform="translate(-220.717 -123.165)" fill="none" stroke="#263238" stroke-linecap="round" stroke-miterlimit="10" stroke-width="1"/>
              <path id="Path_450" data-name="Path 450" d="M256.021,139.308s2.423.519,3.289,2.25" transform="translate(-216.5 -123.102)" fill="none" stroke="#263238" stroke-linecap="round" stroke-miterlimit="10" stroke-width="1"/>
              <path id="Path_451" data-name="Path 451" d="M242.4,141.393s2.943,14.886,9,15.405,7.1-15.059,7.1-15.059-5.474,1.463-7.843,1.424-8.428-2.462-8.428-2.462Z" transform="translate(-219.84 -122.765)" fill="#263238" stroke="#263238" stroke-linecap="round" stroke-miterlimit="10" stroke-width="1"/>
              <path id="Path_452" data-name="Path 452" d="M242.226,140.7l.173.692s.2,1,.6,2.492a20.1,20.1,0,0,0,15.235.345c.2-1.487.266-2.491.266-2.491s-5.474,1.463-7.843,1.424S242.226,140.7,242.226,140.7Z" transform="translate(-219.84 -122.765)" fill="#fff" stroke="#263238" stroke-linecap="round" stroke-miterlimit="10" stroke-width="1"/>
              <path id="Path_453" data-name="Path 453" d="M254.815,151.155a26.431,26.431,0,0,1-8.937-.39c1.266,1.97,2.809,3.44,4.637,3.6C252.391,154.521,253.783,153.139,254.815,151.155Z" transform="translate(-218.956 -120.328)" fill="#fff" stroke="#263238" stroke-linecap="round" stroke-miterlimit="10" stroke-width="1"/>
              <path id="Path_454" data-name="Path 454" d="M238.185,133.882s2.943-3.635,6.924-2.77" transform="translate(-220.819 -125.119)" fill="none" stroke="#263238" stroke-linecap="round" stroke-miterlimit="10" stroke-width="1"/>
              <path id="Path_455" data-name="Path 455" d="M255.325,131.255a8.542,8.542,0,0,1,6.75,1.558" transform="translate(-216.668 -125.088)" fill="none" stroke="#263238" stroke-linecap="round" stroke-miterlimit="10" stroke-width="1"/>
              <path id="Path_456" data-name="Path 456" d="M244.619,127.881s-5.193.347-7.27,3.808" transform="translate(-221.021 -125.869)" fill="none" stroke="#263238" stroke-linecap="round" stroke-miterlimit="10" stroke-width="2"/>
              <path id="Path_457" data-name="Path 457" d="M256.3,127.742s5.02.173,7.443,4.154" transform="translate(-216.432 -125.903)" fill="none" stroke="#263238" stroke-linecap="round" stroke-miterlimit="10" stroke-width="2"/>
            </g>
          </g>
        </g>
      </g>
    </g>
  </g>
</svg>
