<svg xmlns="http://www.w3.org/2000/svg" width="219.409" height="50.409" viewBox="0 0 219.409 50.409">
  <g id="entero-logo" transform="translate(-1.622 -6.13)">
    <g id="g6" transform="translate(1.622 6.13)">
      <path id="path8" d="M51.042,8.493c16.964-2.434,30.742,2.383,30.742,10.748S68.032,36.386,51.042,38.82,20.3,36.437,20.3,28.072,34.052,10.927,51.042,8.493Z" transform="translate(-15.463 -7.413)" fill="#e1e2e4"/>
      <path id="path10" d="M4.31,47.819c3.548,5.9,10.7,9.764,22.247,8.469C41.086,54.657,60.588,45.773,67.5,32.824c2.8-5.646,2.3-6.216,2.823-7.278a46.938,46.938,0,0,1-2.745,4.222c-2.331,3.522-6.993,6.682-10.515,8.857a67.915,67.915,0,0,1-18.518,7.562C32.41,47.716,22.879,49.529,15.446,48c-2.331-.492-4.481-.958-6.086-2.1-5.413-3.885-4.118-8.78-2.745-12.665a14.669,14.669,0,0,1,1.424-3.211c3.056-5.232,9.246-9.66,13.934-12.354,9.013-5.128,27.4-8.909,37.968-4.973,3.885,1.45,7.407,4.636,3.548,8.469-2.616,2.59-12.742,5.491-19.761,6.216-.57.052-1.114.1-1.632.129l-4.014.181-.647-8.883-5.7.414.57,8.857-7.8.363.363,5.335,7.9-.466.7,8.547,5.62-.311-.622-8.573,5.309-.285c5.827-.311,12.561-2.693,17.326-5a17.508,17.508,0,0,0,5.309-4.429c2.46-3.678,2.564-9.427-3.211-13.208-9.738-6.371-30.69-4.532-44.468,2.2C11.406,15.808,5.371,21.61,2.859,29.327.943,35.155,1.124,42.51,4.31,47.819Z" transform="translate(-1.622 -6.13)" fill="#2f87c5"/>
    </g>
    <g id="XMLID_58_" transform="translate(78.458 7.547)">
      <path id="path12" d="M326.763,36.489l-.647,10.385H298.3V45.087c.466-.026,1.114-.1,1.891-.207a6.209,6.209,0,0,0,1.528-.337,2.2,2.2,0,0,0,1.062-.984,3.23,3.23,0,0,0,.311-1.5V16.728a3.625,3.625,0,0,0-.259-1.45,2.237,2.237,0,0,0-1.088-1.036,10.085,10.085,0,0,0-1.709-.57,12.814,12.814,0,0,0-1.709-.285V11.6h25.951v8.495H322.49a11.562,11.562,0,0,0-2.046-4.014c-1.036-1.4-2.046-2.176-2.978-2.3-.492-.052-1.062-.1-1.735-.155-.673-.026-1.45-.052-2.3-.052h-5.257V27.554h3.755a7.275,7.275,0,0,0,2.642-.363,3.8,3.8,0,0,0,1.476-1.217,6.617,6.617,0,0,0,.881-1.917,13.67,13.67,0,0,0,.492-2.253H319.2v13.8h-1.813a10.344,10.344,0,0,0-.518-2.512,6.434,6.434,0,0,0-.855-1.917,3.461,3.461,0,0,0-1.658-1.269,8.005,8.005,0,0,0-2.46-.285h-3.755V40.192a12.642,12.642,0,0,0,.207,2.512,2.374,2.374,0,0,0,.829,1.4,3.585,3.585,0,0,0,1.658.622,23.057,23.057,0,0,0,3.03.129h2.046a17.022,17.022,0,0,0,2.15-.1,13.111,13.111,0,0,0,1.865-.363,2.624,2.624,0,0,0,1.347-.725,15.509,15.509,0,0,0,2.279-3.626,24.544,24.544,0,0,0,1.528-3.574h1.683Zm28.618,10.385H343.908V45.243c.363-.026.777-.078,1.191-.1a3.864,3.864,0,0,0,1.088-.207,1.763,1.763,0,0,0,.984-.777,2.939,2.939,0,0,0,.311-1.45V30.118a6.13,6.13,0,0,0-1.165-4.014,3.617,3.617,0,0,0-2.849-1.424,5.948,5.948,0,0,0-2.279.414,7.822,7.822,0,0,0-1.839,1.01,5.568,5.568,0,0,0-1.243,1.217,10.8,10.8,0,0,0-.673,1.062V42.471a2.545,2.545,0,0,0,.337,1.4,2.143,2.143,0,0,0,.984.855,4.269,4.269,0,0,0,1.062.363c.388.078.777.129,1.191.181V46.9H329.534V45.269c.363-.026.751-.078,1.14-.1a3.66,3.66,0,0,0,1.01-.207,1.763,1.763,0,0,0,.984-.777,2.939,2.939,0,0,0,.311-1.45V27.58a3.419,3.419,0,0,0-.337-1.554,3.224,3.224,0,0,0-.958-1.165,3.275,3.275,0,0,0-1.062-.44,7.064,7.064,0,0,0-1.321-.181V22.607l7.8-.57.337.337v3.47h.13c.363-.388.855-.881,1.4-1.424a11.65,11.65,0,0,1,1.606-1.347,8.1,8.1,0,0,1,2.072-.984,8.787,8.787,0,0,1,2.693-.388,5.684,5.684,0,0,1,4.947,2.2,9.793,9.793,0,0,1,1.606,5.853V42.5a3.118,3.118,0,0,0,.285,1.4,1.768,1.768,0,0,0,.984.829,4.171,4.171,0,0,0,1.01.337,5.775,5.775,0,0,0,1.165.155Zm17.171-1.062c-1.036.44-1.994.8-2.9,1.114a11.232,11.232,0,0,1-3.341.44c-1.942,0-3.341-.518-4.118-1.554A7.036,7.036,0,0,1,361,41.435v-16.6H356.78V22.452h4.3v-7.64h4.3v7.64h6.682v2.383h-6.63V38.561a24.372,24.372,0,0,0,.1,2.59,4.8,4.8,0,0,0,.518,1.813,2.446,2.446,0,0,0,1.14,1.088,4.777,4.777,0,0,0,2.02.363c.388,0,.984-.052,1.735-.129A8.34,8.34,0,0,0,372.552,44Zm23.05-4.688a12.207,12.207,0,0,1-3.937,4.662,9.5,9.5,0,0,1-5.672,1.735,11.039,11.039,0,0,1-4.947-1.036,9.856,9.856,0,0,1-3.5-2.823,12.3,12.3,0,0,1-2.046-4.17,18.682,18.682,0,0,1-.673-5.024,15.149,15.149,0,0,1,.725-4.688,13.367,13.367,0,0,1,2.124-4.144,10.565,10.565,0,0,1,3.367-2.849,9.178,9.178,0,0,1,4.481-1.088,10.227,10.227,0,0,1,4.377.855,7.734,7.734,0,0,1,2.952,2.305,9.659,9.659,0,0,1,1.632,3.263,14.616,14.616,0,0,1,.544,4.092v1.632H379.545a20.519,20.519,0,0,0,.44,4.377,10.616,10.616,0,0,0,1.4,3.47,7,7,0,0,0,2.409,2.279,7.362,7.362,0,0,0,3.574.829,6.249,6.249,0,0,0,3.652-1.036,9.963,9.963,0,0,0,2.952-3.729ZM390.345,31.8a20.544,20.544,0,0,0-.233-2.978,9.226,9.226,0,0,0-.725-2.642,5.045,5.045,0,0,0-1.5-1.865,3.835,3.835,0,0,0-2.435-.725,4.956,4.956,0,0,0-4.118,2.176,10.563,10.563,0,0,0-1.787,6.034h10.8Zm25.8-6.319a4.045,4.045,0,0,1-.6,2.227,1.993,1.993,0,0,1-1.813.984,2.645,2.645,0,0,1-2.02-.725,2.254,2.254,0,0,1-.7-1.58,5.62,5.62,0,0,1,.078-.984c.052-.285.1-.6.155-.881a5.023,5.023,0,0,0-2.564.932,8.051,8.051,0,0,0-2.512,2.668v14.3a2.833,2.833,0,0,0,.311,1.424,1.922,1.922,0,0,0,1.01.829,5.3,5.3,0,0,0,1.528.363c.622.078,1.165.155,1.606.181v1.632H398.27V45.217c.363-.026.751-.078,1.14-.1a3.66,3.66,0,0,0,1.01-.207,1.763,1.763,0,0,0,.984-.777,2.939,2.939,0,0,0,.311-1.45V27.58a3.432,3.432,0,0,0-.337-1.5,2.924,2.924,0,0,0-.958-1.191,3.275,3.275,0,0,0-1.062-.44,7.064,7.064,0,0,0-1.321-.181V22.633l7.8-.57.337.337v3.419h.129a10.569,10.569,0,0,1,3.237-3.056,6.534,6.534,0,0,1,3.263-1.036,3.129,3.129,0,0,1,2.409,1.01A3.875,3.875,0,0,1,416.14,25.482Zm24.733,8.909a17.007,17.007,0,0,1-.777,5.076,12.133,12.133,0,0,1-2.227,4.222,10.528,10.528,0,0,1-3.781,2.952,11.634,11.634,0,0,1-4.843.958A10.4,10.4,0,0,1,425,46.719a10.825,10.825,0,0,1-3.574-2.564,12.458,12.458,0,0,1-2.46-4.066,15.315,15.315,0,0,1-.906-5.361,13.714,13.714,0,0,1,3.186-9.375,11.246,11.246,0,0,1,16.42-.181,13.027,13.027,0,0,1,3.211,9.22Zm-4.895.052a23.68,23.68,0,0,0-.363-3.937,13.167,13.167,0,0,0-1.062-3.522,6.744,6.744,0,0,0-1.994-2.46,4.906,4.906,0,0,0-3.03-.932,5.141,5.141,0,0,0-3.108.932,7.013,7.013,0,0,0-2.1,2.59,11.66,11.66,0,0,0-1.062,3.445,23.686,23.686,0,0,0-.311,3.755,25.883,25.883,0,0,0,.363,4.4,12.677,12.677,0,0,0,1.165,3.626,6.989,6.989,0,0,0,2.02,2.486,4.953,4.953,0,0,0,3.03.906,5.248,5.248,0,0,0,4.688-3,16.5,16.5,0,0,0,1.761-8.288Z" transform="translate(-298.3 -11.6)" fill="#231f20"/>
      <path id="path14" d="M306.228,173.04h-.8v-3.263H301.9v3.263h-.8v-7.174h.8v3.16h3.522v-3.16h.8Zm6.319-2.357H309.1a2.019,2.019,0,0,0,.44,1.321,1.484,1.484,0,0,0,1.14.466,2.338,2.338,0,0,0,1.528-.57v.777a2.682,2.682,0,0,1-1.709.492,2.007,2.007,0,0,1-1.632-.7,2.977,2.977,0,0,1-.6-1.968,2.8,2.8,0,0,1,.647-1.942,2.063,2.063,0,0,1,1.606-.751,1.736,1.736,0,0,1,1.476.647,2.9,2.9,0,0,1,.518,1.813Zm-.8-.7a1.636,1.636,0,0,0-.337-1.114,1.1,1.1,0,0,0-.906-.388,1.2,1.2,0,0,0-.932.414,1.9,1.9,0,0,0-.466,1.088Zm6.164,3.056h-.777v-.8h-.026a1.608,1.608,0,0,1-1.5.932,1.506,1.506,0,0,1-1.14-.414,1.388,1.388,0,0,1-.414-1.088,1.61,1.61,0,0,1,1.606-1.683l1.45-.207q0-1.321-1.01-1.321a2.3,2.3,0,0,0-1.58.622v-.829a3.039,3.039,0,0,1,1.658-.492c1.14,0,1.709.647,1.709,1.917v3.367Zm-.8-2.59-1.165.181a1.929,1.929,0,0,0-.829.285.83.83,0,0,0-.285.725.768.768,0,0,0,.259.622.968.968,0,0,0,.673.233,1.243,1.243,0,0,0,.958-.44,1.555,1.555,0,0,0,.388-1.088Zm3.729,2.59h-.777v-7.588h.777Zm4.532-.052a1.5,1.5,0,0,1-.725.155c-.855,0-1.269-.492-1.269-1.5v-3.03h-.829v-.7h.829v-1.243l.777-.259v1.528h1.217v.7H324.15v2.875a1.254,1.254,0,0,0,.155.725.6.6,0,0,0,.544.233.746.746,0,0,0,.518-.181Zm5.8.052h-.777v-2.952c0-1.062-.388-1.606-1.14-1.606a1.189,1.189,0,0,0-.958.466,1.783,1.783,0,0,0-.388,1.191v2.9h-.777v-7.588h.777v3.315h.026a1.736,1.736,0,0,1,1.606-.958c1.088,0,1.658.7,1.658,2.1Zm5.465-.233a2.46,2.46,0,0,1-1.321.363,2.088,2.088,0,0,1-1.683-.725,2.694,2.694,0,0,1-.648-1.839,2.927,2.927,0,0,1,.7-2.046,2.59,2.59,0,0,1,2.978-.518v.829a1.968,1.968,0,0,0-1.165-.388,1.485,1.485,0,0,0-1.217.57,2.252,2.252,0,0,0-.492,1.476,2.177,2.177,0,0,0,.44,1.424,1.564,1.564,0,0,0,1.217.518,1.938,1.938,0,0,0,1.191-.44Zm5.361.233h-.777v-.8h0a1.609,1.609,0,0,1-1.5.932,1.506,1.506,0,0,1-1.139-.414,1.388,1.388,0,0,1-.414-1.088,1.61,1.61,0,0,1,1.606-1.683l1.45-.207q0-1.321-1.01-1.321a2.3,2.3,0,0,0-1.58.622v-.829a3.039,3.039,0,0,1,1.658-.492c1.14,0,1.709.647,1.709,1.917Zm-.777-2.59-1.165.181a1.929,1.929,0,0,0-.829.285.83.83,0,0,0-.285.725.768.768,0,0,0,.259.622.968.968,0,0,0,.673.233,1.243,1.243,0,0,0,.958-.44,1.555,1.555,0,0,0,.388-1.088Zm5.491-1.709a.962.962,0,0,0-.6-.155.936.936,0,0,0-.829.492,2.307,2.307,0,0,0-.337,1.347v2.616h-.777v-5.128h.777v1.062h.026a1.772,1.772,0,0,1,.518-.855,1.142,1.142,0,0,1,.777-.311,1.082,1.082,0,0,1,.466.078Zm5.465,1.942h-3.445a2.019,2.019,0,0,0,.44,1.321,1.484,1.484,0,0,0,1.14.466,2.338,2.338,0,0,0,1.528-.57v.777a2.682,2.682,0,0,1-1.709.492,2.007,2.007,0,0,1-1.632-.7,2.977,2.977,0,0,1-.6-1.968,2.8,2.8,0,0,1,.647-1.942,2.063,2.063,0,0,1,1.606-.751,1.736,1.736,0,0,1,1.476.647,2.9,2.9,0,0,1,.518,1.813A2.1,2.1,0,0,1,352.173,170.683Zm-.8-.7a1.636,1.636,0,0,0-.337-1.114,1.1,1.1,0,0,0-.906-.388,1.2,1.2,0,0,0-.932.414,1.9,1.9,0,0,0-.466,1.088Zm5.128,2.771v-.984a1.453,1.453,0,0,0,.388.259,3.674,3.674,0,0,0,.466.207,3.451,3.451,0,0,0,.492.129,3.639,3.639,0,0,0,.466.052,1.906,1.906,0,0,0,1.114-.285,1,1,0,0,0,.363-.829,1.094,1.094,0,0,0-.13-.518.968.968,0,0,0-.337-.388,2.553,2.553,0,0,0-.518-.337c-.207-.1-.414-.233-.622-.337-.233-.13-.466-.259-.673-.388a3.1,3.1,0,0,1-.544-.44,1.7,1.7,0,0,1-.492-1.243,1.738,1.738,0,0,1,.207-.855,1.707,1.707,0,0,1,.544-.6,2.523,2.523,0,0,1,.751-.363,3.283,3.283,0,0,1,.881-.1,3.069,3.069,0,0,1,1.476.259v.958a2.684,2.684,0,0,0-1.554-.44,3.511,3.511,0,0,0-.518.052,1.945,1.945,0,0,0-.466.181,1.046,1.046,0,0,0-.337.337.992.992,0,0,0-.13.492.886.886,0,0,0,.1.466,1.259,1.259,0,0,0,.285.363,3.638,3.638,0,0,0,.466.311c.181.1.388.207.622.337s.466.259.7.414a2.491,2.491,0,0,1,.57.466,2.772,2.772,0,0,1,.388.57,1.541,1.541,0,0,1,.155.7,1.679,1.679,0,0,1-.207.906,1.509,1.509,0,0,1-.544.6,2.618,2.618,0,0,1-.777.337,3.548,3.548,0,0,1-.932.1,2.237,2.237,0,0,1-.388-.026c-.155-.026-.311-.052-.492-.078a3.132,3.132,0,0,1-.466-.13A3.465,3.465,0,0,1,356.5,172.755Zm8.132.414a2.2,2.2,0,0,1-1.735-.725,2.687,2.687,0,0,1-.647-1.917,2.925,2.925,0,0,1,.673-2.02,2.325,2.325,0,0,1,1.813-.725,2.17,2.17,0,0,1,1.709.7,3.37,3.37,0,0,1-.026,3.937A2.364,2.364,0,0,1,364.63,173.17Zm.052-4.688a1.452,1.452,0,0,0-1.191.544,2.33,2.33,0,0,0-.44,1.476,2.177,2.177,0,0,0,.44,1.424,1.432,1.432,0,0,0,1.191.518,1.387,1.387,0,0,0,1.165-.518,2.836,2.836,0,0,0,0-2.952A1.445,1.445,0,0,0,364.682,168.482Zm5.1,4.558h-.777v-7.588h.777Zm6.216,0h-.777v-.8H375.2a1.583,1.583,0,0,1-1.5.932c-1.165,0-1.735-.725-1.735-2.176v-3.056h.777v2.927c0,1.088.388,1.632,1.191,1.632a1.154,1.154,0,0,0,.932-.44,1.791,1.791,0,0,0,.363-1.165v-2.952H376Zm4.506-.052a1.5,1.5,0,0,1-.725.155c-.855,0-1.269-.492-1.269-1.5v-3.03h-.829v-.7h.829v-1.243l.777-.259v1.528h1.217v.7h-1.217v2.875a1.254,1.254,0,0,0,.155.725.6.6,0,0,0,.544.233.747.747,0,0,0,.518-.181v.7Zm2.15-6.371a.511.511,0,0,1-.363-.155.563.563,0,0,1,0-.777.5.5,0,0,1,.725,0,.527.527,0,0,1,.155.388.47.47,0,0,1-.155.363A.452.452,0,0,1,382.656,166.617Zm.388,6.423h-.777v-5.128h.777Zm4.3.13a2.195,2.195,0,0,1-1.735-.725,2.687,2.687,0,0,1-.648-1.917,2.925,2.925,0,0,1,.673-2.02,2.325,2.325,0,0,1,1.813-.725,2.169,2.169,0,0,1,1.709.7,3.37,3.37,0,0,1-.026,3.937A2.364,2.364,0,0,1,387.343,173.17Zm.052-4.688a1.452,1.452,0,0,0-1.191.544,2.331,2.331,0,0,0-.44,1.476,2.177,2.177,0,0,0,.44,1.424,1.432,1.432,0,0,0,1.191.518,1.387,1.387,0,0,0,1.165-.518,2.386,2.386,0,0,0,.414-1.476,2.23,2.23,0,0,0-.414-1.476A1.445,1.445,0,0,0,387.4,168.482Zm8.365,4.558h-.777v-2.927c0-1.088-.388-1.632-1.14-1.632a1.155,1.155,0,0,0-.958.466,1.759,1.759,0,0,0-.388,1.165v2.927h-.777v-5.128h.777v.855h.026a1.736,1.736,0,0,1,1.606-.958,1.436,1.436,0,0,1,1.217.544,2.5,2.5,0,0,1,.414,1.58v3.108Zm1.865-.181v-.881a2.2,2.2,0,0,0,1.4.492c.673,0,1.036-.233,1.036-.725a.648.648,0,0,0-.078-.337.735.735,0,0,0-.233-.259,2.252,2.252,0,0,0-.363-.207c-.13-.052-.285-.13-.44-.181a5.827,5.827,0,0,1-.57-.285,2.872,2.872,0,0,1-.414-.311,1.452,1.452,0,0,1-.259-.388,1.558,1.558,0,0,1-.078-.518,1.4,1.4,0,0,1,.155-.647,1.419,1.419,0,0,1,.414-.466,1.589,1.589,0,0,1,.6-.285,3.261,3.261,0,0,1,.7-.1,2.716,2.716,0,0,1,1.14.233v.829a2.065,2.065,0,0,0-1.243-.363,1.568,1.568,0,0,0-.388.052.706.706,0,0,0-.311.155.612.612,0,0,0-.207.233.522.522,0,0,0-.078.285.717.717,0,0,0,.078.337.589.589,0,0,0,.207.233,1.224,1.224,0,0,0,.311.181c.13.052.285.13.44.181a6.079,6.079,0,0,1,.57.259,3.234,3.234,0,0,1,.44.311,1.365,1.365,0,0,1,.285.388,1.2,1.2,0,0,1,.1.544,1.433,1.433,0,0,1-.155.673,1.787,1.787,0,0,1-.414.466,2.28,2.28,0,0,1-.622.285,3.276,3.276,0,0,1-.725.078,2.129,2.129,0,0,1-1.295-.259Zm8.7-2.538v2.719h-.8v-7.174h1.865a2.394,2.394,0,0,1,1.709.57,2,2,0,0,1,.6,1.58,2.3,2.3,0,0,1-.673,1.683,2.43,2.43,0,0,1-1.813.647Zm0-3.7v2.952h.829a1.86,1.86,0,0,0,1.269-.388,1.462,1.462,0,0,0,.44-1.114c0-.958-.544-1.424-1.606-1.424h-.932Zm9.09,1.295-1.942,5.128H412.7l-1.839-5.128h.855l1.243,3.729a3.276,3.276,0,0,1,.181.725h.026a2.776,2.776,0,0,1,.155-.7l1.295-3.755Zm3.781,5.076a1.5,1.5,0,0,1-.725.155c-.855,0-1.269-.492-1.269-1.5v-3.03h-.829v-.7h.829v-1.243l.777-.259v1.528H419.2v.7h-1.217v2.875a1.254,1.254,0,0,0,.155.725.6.6,0,0,0,.544.233.747.747,0,0,0,.518-.181Zm1.994.155a.47.47,0,0,1-.363-.155.563.563,0,0,1,0-.777.512.512,0,0,1,.363-.155.544.544,0,1,1,0,1.088Zm8.857-.1H426.5v-7.174h.8v6.423h2.745v.751Zm3.781-.052a1.5,1.5,0,0,1-.725.155c-.855,0-1.269-.492-1.269-1.5v-3.03h-.829v-.7h.829v-1.243l.777-.259v1.528h1.217v.7h-1.217v2.875a1.254,1.254,0,0,0,.155.725.6.6,0,0,0,.544.233.747.747,0,0,0,.518-.181v.7Zm5.879.052h-.777v-.881h-.026a1.921,1.921,0,0,1-3.16.285,2.956,2.956,0,0,1-.544-1.865,3.161,3.161,0,0,1,.622-2.046,1.989,1.989,0,0,1,1.632-.777,1.587,1.587,0,0,1,1.476.829h.026V165.4h.777l-.026,7.64Zm-.777-2.331v-.751a1.535,1.535,0,0,0-.388-1.062,1.368,1.368,0,0,0-2.1.1,2.436,2.436,0,0,0-.414,1.528,2.244,2.244,0,0,0,.388,1.4,1.369,1.369,0,0,0,2.124.026A1.88,1.88,0,0,0,438.934,170.709Zm3.341,2.434a.47.47,0,0,1-.363-.155.563.563,0,0,1,0-.777.511.511,0,0,1,.363-.155.549.549,0,0,1,.388.932A.622.622,0,0,1,442.275,173.144Z" transform="translate(-300.375 -125.568)" fill="#231f20"/>
    </g>
  </g>
</svg>
