<svg xmlns="http://www.w3.org/2000/svg" width="197" height="92.334" viewBox="0 0 197 92.334">
  <g id="healthedge-logo" transform="translate(-206.808 -221.177)">
    <g id="Group_216" data-name="Group 216" transform="translate(206.808 283.803)">
      <g id="Group_214" data-name="Group 214" transform="translate(0 0)">
        <path id="Path_458" data-name="Path 458" d="M206.808,463.984V450.14h3.222v5.37h10.059v-5.37h3.249v13.844h-3.249v-5.959H210.03v5.959Z" transform="translate(-206.808 -450.14)" fill="#e3001d"/>
        <path id="Path_459" data-name="Path 459" d="M289.178,463.984V450.14H303.35V452.5H292.4v3.091h6.392v2.357H292.4v3.432h11.081v2.607Z" transform="translate(-266.648 -450.14)" fill="#e3001d"/>
        <path id="Path_460" data-name="Path 460" d="M357.46,463.984l7.832-13.844h3.1l7.938,13.844h-3.615l-1.663-3.026H362.28l-1.612,3.026Zm6.2-5.527h6.064l-2.986-5.632Z" transform="translate(-316.254 -450.14)" fill="#e3001d"/>
        <path id="Path_461" data-name="Path 461" d="M444.708,463.984V450.14h3.222v11.238h10.387v2.607Z" transform="translate(-379.638 -450.14)" fill="#e3001d"/>
        <path id="Path_462" data-name="Path 462" d="M505.909,452.616v11.369h-3.222V452.616h-6.353V450.14h15.953v2.476Z" transform="translate(-417.143 -450.14)" fill="#e3001d"/>
        <path id="Path_463" data-name="Path 463" d="M565.151,463.984V450.14h3.222v5.37h10.059v-5.37h3.249v13.844h-3.249v-5.959H568.373v5.959Z" transform="translate(-467.137 -450.14)" fill="#e3001d"/>
      </g>
      <g id="Group_215" data-name="Group 215" transform="translate(120.007 0)">
        <path id="Path_464" data-name="Path 464" d="M645.558,463.984V450.14H659.73V452.5H648.78v3.091h6.392v2.357H648.78v3.432h11.081v2.607Z" transform="translate(-645.558 -450.14)" fill="#141c50"/>
        <path id="Path_465" data-name="Path 465" d="M715.669,463.984V450.14h8.907a8.671,8.671,0,0,1,5.861,1.781,6.339,6.339,0,0,1,2.05,5.056,7.515,7.515,0,0,1-.8,3.491,6.053,6.053,0,0,1-2.252,2.443,6.533,6.533,0,0,1-2.246.819,18.983,18.983,0,0,1-3.438.255Zm3.222-2.607h4.165q3.327,0,4.715-1.034a3.987,3.987,0,0,0,1.389-3.418,4.226,4.226,0,0,0-1.153-3.215,4.771,4.771,0,0,0-3.405-1.094h-5.711Z" transform="translate(-696.492 -450.14)" fill="#141c50"/>
        <path id="Path_466" data-name="Path 466" d="M807.058,452.616H797v8.762h10.06V458.3h-5.266v-2.357h8.4v4.767a3.6,3.6,0,0,1-.708,2.587,3.978,3.978,0,0,1-2.724.687h-9.549a3.979,3.979,0,0,1-2.724-.687,3.605,3.605,0,0,1-.707-2.587v-7.3a3.606,3.606,0,0,1,.707-2.58,3.95,3.95,0,0,1,2.724-.694h9.549a4.012,4.012,0,0,1,2.711.681,3.332,3.332,0,0,1,.721,2.462v.314l-3.13.563Z" transform="translate(-753.236 -450.14)" fill="#141c50"/>
        <path id="Path_467" data-name="Path 467" d="M874.757,463.984V450.14h14.172V452.5h-10.95v3.091h6.392v2.357h-6.392v3.432H889.06v2.607Z" transform="translate(-812.067 -450.14)" fill="#141c50"/>
      </g>
    </g>
    <path id="Path_468" data-name="Path 468" d="M476.118,221.177V269.7H465.9V250.546h-8.8V269.7H446.885V221.177H457.1V240.33h8.8V221.177Z" transform="translate(-174.411 0)" fill="#e3001d"/>
    <g id="Group_218" data-name="Group 218" transform="translate(306.355 221.179)">
      <g id="Group_217" data-name="Group 217" transform="translate(0 0)">
        <rect id="Rectangle_232" data-name="Rectangle 232" width="29.588" height="10.217" fill="#141c50"/>
        <rect id="Rectangle_233" data-name="Rectangle 233" width="29.588" height="10.217" transform="translate(0 19.15)" fill="#141c50"/>
        <rect id="Rectangle_234" data-name="Rectangle 234" width="29.588" height="10.217" transform="translate(0 38.301)" fill="#141c50"/>
      </g>
    </g>
    <g id="Group_219" data-name="Group 219" transform="translate(222 305.797)">
      <path id="Path_469" data-name="Path 469" d="M264.934,535.7l-2.585-4.805h1.011l2.057,3.91,2.045-3.91h1.011l-2.585,4.805v2.719h-.954Z" transform="translate(-262.349 -530.802)" fill="#141c50"/>
      <path id="Path_470" data-name="Path 470" d="M291.708,533.481a2.772,2.772,0,0,1,.678-2.15,2.856,2.856,0,0,1,2.206-.78,2.822,2.822,0,0,1,2.332.906,2.92,2.92,0,0,1,.551,2.023v1.854a2.716,2.716,0,0,1-.678,2.15,2.856,2.856,0,0,1-2.206.78,2.782,2.782,0,0,1-2.321-.906,2.877,2.877,0,0,1-.563-2.023Zm4.814.084a2.334,2.334,0,0,0-.448-1.676,2.115,2.115,0,0,0-3.045.095,2.571,2.571,0,0,0-.368,1.581v1.686a2.333,2.333,0,0,0,.448,1.676,2.115,2.115,0,0,0,3.045-.095,2.57,2.57,0,0,0,.368-1.581Z" transform="translate(-283.678 -530.551)" fill="#141c50"/>
      <path id="Path_471" data-name="Path 471" d="M324.791,530.9v4.764a2.413,2.413,0,0,0,.3,1.454,1.686,1.686,0,0,0,1.551.664,1.647,1.647,0,0,0,1.62-.769,2.725,2.725,0,0,0,.23-1.349V530.9h.954v4.764a2.689,2.689,0,0,1-.494,1.981,2.732,2.732,0,0,1-2.309.874,2.692,2.692,0,0,1-2.413-1,2.913,2.913,0,0,1-.391-1.854V530.9Z" transform="translate(-307.019 -530.802)" fill="#141c50"/>
      <path id="Path_472" data-name="Path 472" d="M357.088,538.421h-.954V530.9h2.815a2.654,2.654,0,0,1,1.953.548,1.971,1.971,0,0,1,.586,1.549,1.846,1.846,0,0,1-1.689,2.087l1.8,3.341h-1.057l-1.689-3.246h-1.769Zm1.873-3.973c1.069,0,1.574-.453,1.574-1.412s-.528-1.412-1.677-1.412h-1.781v2.824Z" transform="translate(-330.482 -530.802)" fill="#141c50"/>
      <path id="Path_473" data-name="Path 473" d="M397.924,530.9h.919l4.044,6.028V530.9h.931v7.524H402.9l-4.045-6.028v6.028h-.931Z" transform="translate(-360.842 -530.802)" fill="#141c50"/>
      <path id="Path_474" data-name="Path 474" d="M431.356,530.9h4.791v.738H432.3v2.613h3.286v.738H432.3v2.7h3.86v.738h-4.8Z" transform="translate(-385.129 -530.802)" fill="#141c50"/>
      <path id="Path_475" data-name="Path 475" d="M457.59,530.9h1.046l1.815,2.919,1.735-2.919H463.2l-2.252,3.688,2.4,3.836H462.3l-2-3.193-1.9,3.193h-1.011l2.413-3.962Z" transform="translate(-404.046 -530.802)" fill="#141c50"/>
      <path id="Path_476" data-name="Path 476" d="M489.12,531.635h-2.367V530.9h5.664v.738h-2.344v6.787h-.954Z" transform="translate(-425.374 -530.802)" fill="#141c50"/>
      <path id="Path_477" data-name="Path 477" d="M530.163,534.246h2.654v1.18a2.756,2.756,0,0,1-.609,2.055,2.889,2.889,0,0,1-2.252.811,2.776,2.776,0,0,1-2.379-.948,3.255,3.255,0,0,1-.505-2.129v-1.539a3.041,3.041,0,0,1,.632-2.276,2.747,2.747,0,0,1,2.183-.812c1.631,0,2.585.685,2.666,1.9l-.885.063c-.115-.78-.747-1.222-1.758-1.222-1.344,0-1.884.685-1.884,2.392v1.454c0,1.707.551,2.382,1.919,2.382a1.736,1.736,0,0,0,1.93-1.95v-.653h-1.712Z" transform="translate(-454.665 -530.579)" fill="#141c50"/>
      <path id="Path_478" data-name="Path 478" d="M558.782,530.9h4.791v.738h-3.849v2.613h3.286v.738h-3.286v2.7h3.86v.738h-4.8Z" transform="translate(-477.702 -530.802)" fill="#141c50"/>
      <path id="Path_479" data-name="Path 479" d="M586.25,530.9h.919l4.044,6.028V530.9h.93v7.524h-.919l-4.045-6.028v6.028h-.93Z" transform="translate(-497.657 -530.802)" fill="#141c50"/>
      <path id="Path_480" data-name="Path 480" d="M632.227,538.421h-.953V530.9h2.643a2.634,2.634,0,0,1,2.034.6,2.185,2.185,0,0,1,.6,1.7,2.146,2.146,0,0,1-.7,1.792,2.808,2.808,0,0,1-1.93.506h-1.689Zm1.689-3.657c1.149,0,1.677-.5,1.677-1.57s-.528-1.57-1.677-1.57h-1.7v3.141Z" transform="translate(-530.366 -530.802)" fill="#141c50"/>
      <path id="Path_481" data-name="Path 481" d="M660.42,530.9h.954v3.351h3.516V530.9h.954v7.524h-.954v-3.435h-3.516v3.435h-.954Z" transform="translate(-551.54 -530.802)" fill="#141c50"/>
      <path id="Path_482" data-name="Path 482" d="M690.886,536.777l-.621,1.644h-1.034l3-7.524h.908l3,7.524H695.1l-.62-1.644Zm1.8-4.763-1.551,4.036h3.1Z" transform="translate(-572.471 -530.802)" fill="#141c50"/>
      <path id="Path_483" data-name="Path 483" d="M722.946,538.421h-.954V530.9h2.815a2.655,2.655,0,0,1,1.953.548,1.971,1.971,0,0,1,.586,1.549,1.846,1.846,0,0,1-1.689,2.087l1.8,3.341H726.4l-1.689-3.246h-1.769Zm1.873-3.973c1.069,0,1.574-.453,1.574-1.412s-.529-1.412-1.678-1.412h-1.781v2.824Z" transform="translate(-596.271 -530.802)" fill="#141c50"/>
      <path id="Path_484" data-name="Path 484" d="M752.274,530.9h.919l2.574,4.921,2.574-4.921h.919v7.524h-.919v-5.807l-2.264,4.268h-.609l-2.275-4.268v5.807h-.919Z" transform="translate(-618.27 -530.802)" fill="#141c50"/>
      <path id="Path_485" data-name="Path 485" d="M788.409,536.777l-.62,1.644h-1.034l3-7.524h.908l3,7.524h-1.034l-.62-1.644Zm1.8-4.763-1.551,4.036h3.1Z" transform="translate(-643.319 -530.802)" fill="#141c50"/>
      <path id="Path_486" data-name="Path 486" d="M824.716,536.427c-.08,1.191-1.045,1.865-2.665,1.865a2.579,2.579,0,0,1-2.252-.948,3.353,3.353,0,0,1-.494-2.129v-1.549a3.135,3.135,0,0,1,.609-2.266,2.652,2.652,0,0,1,2.149-.812c1.574,0,2.5.685,2.573,1.9l-.873.063c-.115-.79-.724-1.222-1.689-1.222-1.287,0-1.815.685-1.815,2.382v1.454c0,1.718.517,2.392,1.827,2.392.988,0,1.62-.443,1.746-1.223Z" transform="translate(-666.966 -530.579)" fill="#141c50"/>
      <path id="Path_487" data-name="Path 487" d="M848.6,535.7l-2.585-4.805h1.011l2.057,3.91,2.045-3.91h1.011l-2.585,4.805v2.719H848.6Z" transform="translate(-686.37 -530.802)" fill="#141c50"/>
    </g>
  </g>
</svg>
