<svg id="o_offer_icon-7" xmlns="http://www.w3.org/2000/svg" xmlns:xlink="http://www.w3.org/1999/xlink" width="135.621" height="172.276" viewBox="0 0 135.621 172.276">
  <defs>
    <clipPath id="clip-path">
      <rect id="Rectangle_634" data-name="Rectangle 634" width="135.621" height="172.276" fill="none"/>
    </clipPath>
  </defs>
  <g id="Group_5219" data-name="Group 5219" clip-path="url(#clip-path)">
    <path id="Path_9366" data-name="Path 9366" d="M119.9,33.9c4.453.849,5.755,2.323,5.077,6.443a30.471,30.471,0,0,1-2.609,8.038c-.644,1.35-2.3,2.219-3.728,3.063,3.658-3.674,4.2-8.448,4.757-13.112.262-2.185-1.4-3.3-3.692-3.713l-2.317,7.3A31.386,31.386,0,0,0,116.7,37.2c-.771-2.428-1.931-4.736-2.641-7.179a13.331,13.331,0,0,1-.533-4.974c.623-5.981.538-6.062-5.284-7.666C97.281,14.356,86.635,15.461,76.117,19.4c-2.065.774-3.38,1.833-3.252,4.2A25.68,25.68,0,0,1,70.176,35.83c-.923,2.02-1.121,4.371-1.713,6.853-.591-1.76-1.07-3.352-1.671-4.9-.237-.61-.783-1.6-1.118-1.573a3.845,3.845,0,0,0-2.293,1.048,4.047,4.047,0,0,0-.844,2.222c-.546,4.423,2.1,10.53,5.861,13.321a5.114,5.114,0,0,1-4.736-2.876A30.858,30.858,0,0,1,60.9,41.481c-.546-4.058,1.028-5.632,4.511-6.082-.249-4.306-.973-8.612-.64-12.836.642-8.152,5.017-14.2,12.187-18.032A38.072,38.072,0,0,1,96.51.025c3.665.129,7.079,1.1,9.61,4.092a2.084,2.084,0,0,0,1.623.627c6.334-1.027,12.316,4.157,13.8,11.207,1.109,5.252.284,10.376-1.028,15.467-.2.778-.386,1.559-.614,2.486" transform="translate(-31.039 0)"/>
    <path id="Path_9367" data-name="Path 9367" d="M107.222,196.858c1.714,3.468,3.439,6.93,5.125,10.411a10.782,10.782,0,0,1,.385,2.1c-1.32-2.874-2.185-5.175-3.386-7.286-2.871-5.047-6.124-6.561-11.825-5.493-16.185,3.032-31.558,8.7-46.861,14.583a4.956,4.956,0,0,1-2.652.493c4.7-2.121,9.349-4.387,14.128-6.322,4.976-2.014,10.057-3.784,15.148-5.495a2.937,2.937,0,0,0,2.306-2.663c.973-5.953,1.929-11.914,3.164-17.816.794-3.8,2.063-7.5,3.2-11.511l-2.806-5.407c-.792,1.806-1.5,3.481-2.262,5.135a27.949,27.949,0,0,1-1.649,3.269c-1,1.583-2.266,1.622-3.258.067a40.014,40.014,0,0,1-3.159-5.776c-2.369-5.567-4.474-11.236-4.139-17.443a18.693,18.693,0,0,1,1-4.716c-.806,10,3.465,18.445,7.813,27.428l6.631-11.457h10.6l-.288-1.118.582-.375,8.507,11.393c4.292-4.216,6.518-19.982,3.912-27.544L108,141.1c.65,1.94,1.632,3.836,1.889,5.827a37.446,37.446,0,0,1-3.426,21.187,4.738,4.738,0,0,1-2.813,2.576c-.782.112-2.009-1.379-2.692-2.39-1.348-1.995-2.456-4.151-3.6-6.127-1.311,1.991-2.578,3.852-3.758,5.765a2.26,2.26,0,0,0-.053,1.348q1.634,11.475,3.3,22.945c.114.789.2,1.583.325,2.619a14.175,14.175,0,0,1,10.106,2.084Z" transform="translate(-24.51 -72.038)"/>
    <path id="Path_9368" data-name="Path 9368" d="M31.355,162.931c-4.144,1.85-8.265,3.754-12.439,5.534a14.823,14.823,0,0,0-8.6,9.419C4.1,196.378.405,215.247,2.451,234.832a47.473,47.473,0,0,0,3.567,12.851c1.643,4,5.151,6.348,9.632,5.563a145.891,145.891,0,0,0,18.781-4.226c10.869-3.433,21.543-7.482,32.326-11.195,4.278-1.473,8.629-2.736,13.048-3.837a7.484,7.484,0,0,1-.979.528c-15.61,5.7-31.179,11.513-46.86,17.007a89.917,89.917,0,0,1-14.479,3.447c-6.471,1.113-10.8-1.37-13.72-7.278C1.215,242.534.407,236.948.138,231.328c-.9-18.764,2.635-36.809,9.187-54.339a14.878,14.878,0,0,1,8.641-9.085c4.41-1.79,8.806-3.618,13.209-5.428l.18.454" transform="translate(0 -82.952)"/>
    <path id="Path_9369" data-name="Path 9369" d="M170.637,154.468q9.644,3.439,19.286,6.882a13.124,13.124,0,0,1,6.76,5.75c5.238,8.428,8.218,17.731,10.384,27.3,3.057,13.5,4.691,27.164,3.219,41.025a40.987,40.987,0,0,1-1.811,7.829,9.1,9.1,0,0,1-7.8,6.531,52.335,52.335,0,0,1-18.74-.715c-11.571-2.3-23.08-4.911-34.615-7.393l.178-.829c4.8,1.059,9.6,2.155,14.407,3.168,10.7,2.253,21.4,4.546,32.4,4.624,9.827.07,13.171-2.617,14-12.321a130.982,130.982,0,0,0-10.5-64.482c-2.344-5.37-5.974-9.147-11.675-11.02-5.327-1.75-10.523-3.9-15.777-5.867l.29-.485" transform="translate(-75.213 -78.863)"/>
    <path id="Path_9370" data-name="Path 9370" d="M169.043,231.781c2.02-1.362,4.126-2.043,6.512-.926a2.739,2.739,0,0,0,1.37.265c8.7-.895,10.514-.4,16.851,4.835-1.435-9.091-1.281-17.83,2.411-26.6-.557,7.057-1.144,13.7-1.584,20.352a23.948,23.948,0,0,0,1.577,11.393c1.438,3.387,2.017,7,5.429,9.2a5.216,5.216,0,0,1,1.511,2.487c-6.015-5.831-13.309-6.691-21.221-5.946-.243,3.281-2.239,4.282-4.812,4.1.942-.855,2.54-1.666,3.006-2.9.492-1.308.13-3.08-.257-4.545-.7-2.666-1.661-5.268-2.586-7.87-1.435-4.038-4.522-4.693-8.264-3.913l.058.076m12.909,14.613a20.843,20.843,0,0,1,15.007.1c-2.33-9.783-12.054-16.729-19.98-14.472,3.294,4.089,4.7,8.84,4.973,14.373" transform="translate(-86.275 -106.886)"/>
    <path id="Path_9371" data-name="Path 9371" d="M89.576,128.027a12.973,12.973,0,0,0-.677-1.99c-1.993-3.786-4.029-7.55-5.682-11.5,2.383,3.7,4.5,7.616,7.233,11.039a33.532,33.532,0,0,0,7.815,7.247c6.19,3.989,12.718,3.1,18.16-1.889,3.981-3.649,6.623-8.22,8.877-13.049.512-1.1,1-2.207,1.5-3.312l.6.243q-1.94,4.622-3.877,9.246c-.357.857-.681,1.728-1.02,2.592v0c-.643.724-1.343,1.407-1.92,2.18-7.852,10.514-19.276,11.115-28.3,1.5a30.022,30.022,0,0,0-2.714-2.3Z" transform="translate(-42.486 -58.474)"/>
    <path id="Path_9372" data-name="Path 9372" d="M24.576,250.406A22.431,22.431,0,0,1,37.584,240.39a8.961,8.961,0,0,1,5.872.4c5.367,2.64,10.508,5.737,15.736,8.658l-.4.838c-.5-.2-1.018-.365-1.5-.607-4.426-2.235-8.859-4.455-13.26-6.737a8.21,8.21,0,0,0-8.4.025c-3.443,2.091-6.658,4.558-9.962,6.875a10.508,10.508,0,0,0-.88.8s-.1-.1-.221-.236" transform="translate(-12.547 -122.572)"/>
    <path id="Path_9373" data-name="Path 9373" d="M96.083,142.1c.35,1.077.68,2.16,1.055,3.229,1.012,2.881,3.184,4.608,5.818,5.93,3.308,1.662,6.574,3.41,9.858,5.12l-.475.966c-4.188-1.925-8.525-3.587-12.518-5.854-3.488-1.98-4.165-5.586-3.733-9.389l-.005,0" transform="translate(-48.999 -72.548)"/>
    <path id="Path_9374" data-name="Path 9374" d="M148.933,139.284c1.553,5.565.762,7.936-4.146,11.107-3.041,1.964-6.283,3.619-9.435,5.412l-.366-.478c1.058-.9,2.075-1.852,3.183-2.683A39.664,39.664,0,0,1,142.2,149.9c4.13-2.366,7.149-5.387,6.728-10.616v0" transform="translate(-68.917 -71.109)"/>
    <path id="Path_9375" data-name="Path 9375" d="M36.537,253.085l-12.255,8.752c.494-3.433,6.663-8.06,12.255-8.752" transform="translate(-12.397 -129.212)"/>
    <path id="Path_9376" data-name="Path 9376" d="M38.413,262.5,27.317,271c1.968-4.97,6.118-7.255,11.1-8.507" transform="translate(-13.947 -134.017)"/>
    <path id="Path_9377" data-name="Path 9377" d="M42.881,272.226l-9.718,7.243c.4-3.25,4.966-6.829,9.718-7.243" transform="translate(-16.931 -138.984)"/>
    <path id="Path_9378" data-name="Path 9378" d="M57.295,225.878l-3.251-11.5.776-.223a17.454,17.454,0,0,1,3.149,11.526l-.674.194" transform="translate(-27.592 -109.338)"/>
    <path id="Path_9379" data-name="Path 9379" d="M95.973,65.74s5.124-5.374,9,0" transform="translate(-48.999 -32.344)" fill="none" stroke="#000" stroke-linecap="round" stroke-miterlimit="10" stroke-width="2"/>
    <path id="Path_9380" data-name="Path 9380" d="M114.315,117.469s10.063,5.374,17.671,0" transform="translate(-58.363 -59.973)" fill="none" stroke="#000" stroke-linecap="round" stroke-miterlimit="10" stroke-width="2"/>
    <path id="Path_9381" data-name="Path 9381" d="M130.469,104.059a1.953,1.953,0,0,0,1.857,0" transform="translate(-66.611 -53.127)" fill="none" stroke="#000" stroke-linecap="round" stroke-miterlimit="10" stroke-width="2"/>
    <path id="Path_9382" data-name="Path 9382" d="M138.127,65.74s5.124-5.374,9,0" transform="translate(-70.52 -32.344)" fill="none" stroke="#000" stroke-linecap="round" stroke-miterlimit="10" stroke-width="2"/>
    <path id="Path_9383" data-name="Path 9383" d="M106.308,75.128c0,1.13-.645,2.046-1.44,2.046s-1.44-.916-1.44-2.046.645-2.046,1.44-2.046,1.44.916,1.44,2.046" transform="translate(-52.805 -37.312)"/>
    <path id="Path_9384" data-name="Path 9384" d="M148.1,75.128c0,1.13-.645,2.046-1.44,2.046s-1.44-.916-1.44-2.046.645-2.046,1.44-2.046,1.44.916,1.44,2.046" transform="translate(-74.139 -37.312)"/>
  </g>
</svg>
