<svg xmlns="http://www.w3.org/2000/svg" width="200.112" height="151.023" viewBox="0 0 200.112 151.023">
  <g id="o_offer_icon-3" transform="translate(0.5 0.508)">
    <g id="Character" transform="translate(82.296)">
      <g id="Group_2397" data-name="Group 2397">
        <path id="Path_7021" data-name="Path 7021" d="M280.142,182.751s4.312-1.88,5.418,1.769,1.437,13.6,1.437,13.6l-2.323-.553s.553-11.279-1.99-13.048-4.533,2.212-4.533,2.212Z" transform="translate(-208.736 -171.099)" fill="#a6a6a6" stroke="#263238" stroke-linecap="round" stroke-linejoin="round" stroke-width="1"/>
        <path id="Path_7022" data-name="Path 7022" d="M198.5,352.168l14.729-7.875s-1.021-15.458-.875-16.042,3.836-30.829,3.836-30.829l-10.107,29.954Z" transform="translate(-175.494 -220.786)" fill="none" stroke="#263238" stroke-linecap="round" stroke-linejoin="round" stroke-width="1"/>
        <g id="Group_2393" data-name="Group 2393" transform="translate(37.062 116.791)">
          <line id="Line_63" data-name="Line 63" x1="2.448" y2="5.039" transform="translate(0 14.46)" fill="none" stroke="#263238" stroke-linecap="round" stroke-linejoin="round" stroke-width="1"/>
          <path id="Path_7023" data-name="Path 7023" d="M229.181,366.338s-3.636,2.479-1.818,3.8a8.982,8.982,0,0,1,2.644,4.132l-2.324,4.538" transform="translate(-224.389 -366.338)" fill="none" stroke="#263238" stroke-linecap="round" stroke-linejoin="round" stroke-width="1"/>
          <path id="Path_7024" data-name="Path 7024" d="M260.239,386.974q1.48.114,3.109.161" transform="translate(-238.322 -374.95)" fill="none" stroke="#263238" stroke-linecap="round" stroke-linejoin="round" stroke-width="1"/>
          <path id="Path_7025" data-name="Path 7025" d="M233.393,379.952s3.953,2.642,12.574,3.774" transform="translate(-227.118 -372.02)" fill="none" stroke="#263238" stroke-linecap="round" stroke-linejoin="round" stroke-width="1"/>
        </g>
        <path id="Path_7026" data-name="Path 7026" d="M214.89,198.5a3.945,3.945,0,0,0-2.211,3.759c0,2.875,2.322,8.514,2.322,8.514l1.327-.442s-2.433-5.86-2.1-7.961a3.4,3.4,0,0,1,2.322-2.654l-.442-1.437Z" transform="translate(-181.411 -177.782)" fill="#a6a6a6" stroke="#263238" stroke-linecap="round" stroke-linejoin="round" stroke-width="1"/>
        <path id="Path_7027" data-name="Path 7027" d="M221.539,220.716c.562,2.908-.415,5.543-2.184,5.885s-3.659-1.737-4.221-4.646.415-5.543,2.184-5.885S220.976,217.808,221.539,220.716Z" transform="translate(-182.369 -185.547)" fill="#fff" stroke="#263238" stroke-linecap="round" stroke-linejoin="round" stroke-width="1"/>
        <path id="Path_7028" data-name="Path 7028" d="M228.2,218.565c1.1,3.718-.186,7.379-2.88,8.178s-5.771-1.567-6.874-5.285.186-7.379,2.88-8.178S227.1,214.847,228.2,218.565Z" transform="translate(-183.655 -184.321)" fill="#263238" stroke="#263238" stroke-linecap="round" stroke-linejoin="round" stroke-width="1"/>
        <path id="Path_7029" data-name="Path 7029" d="M246.669,244.4l2.617,8.326-8.6,10.609-1.43,8.2s-1.429,23.391-.612,26.99a27.08,27.08,0,0,1,.817,4.6s17.767-20.192,26.548-32.588,10.824-19.992,10.824-19.992l-8.577-4.6-4.084-18.593Z" transform="translate(-192.141 -189.915)" fill="none" stroke="#263238" stroke-linecap="round" stroke-linejoin="round" stroke-width="1"/>
        <path id="Path_7030" data-name="Path 7030" d="M265.85,243.111l-10.945,16.74L251.855,250Z" transform="translate(-197.761 -197.054)" fill="#263238" stroke="#263238" stroke-linecap="round" stroke-linejoin="round" stroke-width="1"/>
        <path id="Path_7031" data-name="Path 7031" d="M239.334,301.54l-.081.475s-1.429,23.894-.612,27.57a28.211,28.211,0,0,1,.817,4.7s17.767-20.626,26.548-33.288c.689-.993,1.331-1.952,1.939-2.883C256.948,301.874,245.74,301.94,239.334,301.54Z" transform="translate(-192.141 -220.555)" fill="none" stroke="#263238" stroke-linecap="round" stroke-linejoin="round" stroke-width="1"/>
        <g id="Group_2394" data-name="Group 2394" transform="translate(33.654)">
          <path id="Path_7032" data-name="Path 7032" d="M226,165.8s-8.182,4.976-9.067,12.5,2.211,15.591,3.428,18.8,5.418,15.7,7.629,18.134,9.4,6.082,10.615,6.745,3.428.443,5.307-.884,9.62-10.726,10.836-12.937,1.437-7.076,1.437-7.076-.221-9.731-.664-16.034-.11-12.384-5.307-17.692S231.085,161.925,226,165.8Z" transform="translate(-216.775 -163.099)" fill="#fff" stroke="#263238" stroke-linecap="round" stroke-linejoin="round" stroke-width="1"/>
          <path id="Path_7033" data-name="Path 7033" d="M255.522,185.035c-.442-6.3-.11-12.384-5.307-17.692S231.085,161.925,226,165.8c0,0-8.182,4.976-9.067,12.5a33.639,33.639,0,0,0,1.341,12.595c1.881-1.143,8.23-5.054,15.356-10.051a31.7,31.7,0,0,0,11.279-15.26s1-.552.774.664-3.538,8.4-4.755,9.51l-1.217,1.106s1-.221,5.529,5.2,7.077,7.63,8.4,8.293a7.118,7.118,0,0,0,2.2.429C255.75,188.783,255.644,186.778,255.522,185.035Z" transform="translate(-216.775 -163.099)" fill="#263238" stroke="#263238" stroke-linecap="round" stroke-linejoin="round" stroke-width="1"/>
          <path id="Path_7034" data-name="Path 7034" d="M258.557,219.925c.143.812-.156,1.543-.667,1.633s-1.042-.5-1.185-1.307.156-1.543.667-1.633S258.414,219.114,258.557,219.925Z" transform="translate(-233.425 -186.266)" fill="#263238" stroke="#263238" stroke-linecap="round" stroke-linejoin="round" stroke-width="1"/>
          <path id="Path_7035" data-name="Path 7035" d="M237.3,222.962c.143.812-.156,1.543-.667,1.633s-1.041-.5-1.185-1.307.156-1.543.667-1.633S237.159,222.15,237.3,222.962Z" transform="translate(-224.554 -187.533)" fill="#263238" stroke="#263238" stroke-linecap="round" stroke-linejoin="round" stroke-width="1"/>
          <path id="Path_7036" data-name="Path 7036" d="M251.2,211.279s3.649-2.875,6.966-.553" transform="translate(-231.143 -182.598)" fill="none" stroke="#263238" stroke-linecap="round" stroke-linejoin="round" stroke-width="1"/>
          <path id="Path_7037" data-name="Path 7037" d="M233.261,214.561s-4.312-2.1-7.3,1.659" transform="translate(-220.609 -184.332)" fill="none" stroke="#263238" stroke-linecap="round" stroke-linejoin="round" stroke-width="1"/>
          <path id="Path_7038" data-name="Path 7038" d="M239.817,215.17s2.986,1.437,3.206,4.2" transform="translate(-226.391 -184.831)" fill="none" stroke="#263238" stroke-linecap="round" stroke-linejoin="round" stroke-width="1"/>
          <path id="Path_7039" data-name="Path 7039" d="M245.51,235.476a3.84,3.84,0,0,0,3.317.221" transform="translate(-228.767 -193.305)" fill="none" stroke="#263238" stroke-linecap="round" stroke-linejoin="round" stroke-width="1"/>
          <path id="Path_7040" data-name="Path 7040" d="M243.992,239.408a20.194,20.194,0,0,0,7.187-1.659,12.748,12.748,0,0,0,5.418-3.981" transform="translate(-228.134 -192.592)" fill="none" stroke="#263238" stroke-linecap="round" stroke-linejoin="round" stroke-width="1"/>
          <path id="Path_7041" data-name="Path 7041" d="M247.218,241.594a4.818,4.818,0,0,0,3.206,1.217c1.99,0,3.76-3.539,3.76-3.539S249.1,241.483,247.218,241.594Z" transform="translate(-229.48 -194.889)" fill="none" stroke="#263238" stroke-linecap="round" stroke-linejoin="round" stroke-width="1"/>
        </g>
        <ellipse id="Ellipse_17" data-name="Ellipse 17" cx="5.086" cy="7.022" rx="5.086" ry="7.022" transform="translate(69.306 24.189)" fill="#263238" stroke="#263238" stroke-linecap="round" stroke-linejoin="round" stroke-width="1"/>
        <ellipse id="Ellipse_18" data-name="Ellipse 18" cx="3.262" cy="5.363" rx="3.262" ry="5.363" transform="translate(73.286 24.633)" fill="#fff" stroke="#263238" stroke-linecap="round" stroke-linejoin="round" stroke-width="1"/>
        <path id="Path_7042" data-name="Path 7042" d="M222.493,230.023s.031,11.487,3.017,12.482,11.168-.995,11.168-.995" transform="translate(-185.507 -191.487)" fill="none" stroke="#263238" stroke-linecap="round" stroke-linejoin="round" stroke-width="2"/>
        <path id="Path_7043" data-name="Path 7043" d="M250.565,248.495c0,.885-1.089,1.6-2.433,1.6s-2.433-.718-2.433-1.6,1.089-1.6,2.433-1.6S250.565,247.609,250.565,248.495Z" transform="translate(-195.192 -198.605)" fill="#263238" stroke="#263238" stroke-linecap="round" stroke-linejoin="round" stroke-width="1"/>
        <path id="Path_7044" data-name="Path 7044" d="M244.1,272.748s-3.47,6.114-5.949,24.291-.826,21.813-.826,21.813L233.853,321s-7.27-.826-4.792-18.012,3.8-19.995,3.8-19.995Z" transform="translate(-188.033 -209.867)" fill="none" stroke="#263238" stroke-linecap="round" stroke-linejoin="round" stroke-width="1"/>
        <path id="Path_7045" data-name="Path 7045" d="M267.675,261.971s-7.932,18.838-16.194,30.57-19.5,28.588-19.5,28.588,5.949-2.809,18.508-12.228,25.283-31.066,26.6-33.215a65.907,65.907,0,0,0,3.3-7.106Z" transform="translate(-189.467 -205.377)" fill="none" stroke="#263238" stroke-linecap="round" stroke-linejoin="round" stroke-width="1"/>
        <g id="Group_2395" data-name="Group 2395" transform="translate(0 132.336)">
          <path id="Path_7046" data-name="Path 7046" d="M168.58,402.492a41.141,41.141,0,0,1-6.083,3.042c-3.718,1.521-4.059,1.248-2.873,2.535s7.435-1.014,9.125-1.69,4.9-1.69,4.9-1.69a39.359,39.359,0,0,0,6.253,2.873,10.086,10.086,0,0,0,5.239-.338A5.273,5.273,0,0,0,183.282,403c-2.028-1.521-6.421-5.069-7.942-4.9S168.58,402.492,168.58,402.492Z" transform="translate(-159.015 -395.136)" fill="none" stroke="#263238" stroke-linecap="round" stroke-linejoin="round" stroke-width="1"/>
          <path id="Path_7047" data-name="Path 7047" d="M169.063,398.592a4.521,4.521,0,0,0-3.379.507c-1.352,1.014-2.873,4.224-3.042,5.069s.169,1.352,1.521.169,3.717-2.872,3.717-2.872l2.028-.676Z" transform="translate(-160.512 -395.291)" fill="none" stroke="#263238" stroke-linecap="round" stroke-linejoin="round" stroke-width="1"/>
          <path id="Path_7048" data-name="Path 7048" d="M177,395.6s-4.056-1.352-4.9-.169-3.717,7.942-2.873,8.449,2.028-.507,3.548-2.7,2.366-3.379,2.366-3.379l2.028-.338Z" transform="translate(-163.214 -393.824)" fill="none" stroke="#263238" stroke-linecap="round" stroke-linejoin="round" stroke-width="1"/>
          <path id="Path_7049" data-name="Path 7049" d="M185.951,396.311s-5.288-4.132-6.61-3.14-5.619,7.436-6.114,8.758,1.818.661,3.636-.991,3.966-3.47,3.966-3.47l4.132,2.148Z" transform="translate(-164.918 -393.017)" fill="none" stroke="#263238" stroke-linecap="round" stroke-linejoin="round" stroke-width="1"/>
          <path id="Path_7050" data-name="Path 7050" d="M206.232,400.974s-6.94-.33-9.75-1.322-8.428-3.139-10.08-2.974-7.932,6.279-9.254,7.6-1.189,1.678.133,1.844,4.493-2.008,5.981-3.166a16.083,16.083,0,0,1,2.974-1.817,36.958,36.958,0,0,0,3.966,4.792,12.762,12.762,0,0,0,7.106,2.479,24.034,24.034,0,0,0,2.81-.5l5.618-.165Z" transform="translate(-166.196 -394.541)" fill="none" stroke="#263238" stroke-linecap="round" stroke-linejoin="round" stroke-width="1"/>
        </g>
        <path id="Path_7051" data-name="Path 7051" d="M269.249,288.092c-1.446,2.4-.33,20.533,0,23.012s.5,4.957.5,4.957L265.284,343s-3.8-1.817-3.8-.33v1.487l-35.694,3.636-.33,12.559,56.845.165s2.809-3.14,3.14-4.3,6.61-21.152,8.262-42.138.826-30.406,0-32.058-16.637-9.214-16.637-9.214" transform="translate(-186.745 -210.513)" fill="none" stroke="#263238" stroke-linecap="round" stroke-linejoin="round" stroke-width="1"/>
        <path id="Path_7052" data-name="Path 7052" d="M296.077,393s5.288,3.47,8.428,4.3" transform="translate(-216.216 -260.673)" fill="#fff" stroke="#263238" stroke-linecap="round" stroke-linejoin="round" stroke-width="1"/>
        <g id="Group_2396" data-name="Group 2396" transform="translate(23.546 49.744)">
          <path id="Path_7053" data-name="Path 7053" d="M206.177,305.28l4.079-13.07a28.279,28.279,0,0,0,4.308-5.415c1.723-2.954,1.723-8.492,1.476-9.476s3.569-5.415,4.676-7.015,1.723-4.43.246-6.522-2.215,1.354-3.2,2.954-4.43,3.2-4.43,3.2l-3.692,2.954s-6.03,5.292-6.4,6.03S202.135,282,202.135,282l.492,7.138-3.2,12.429Z" transform="translate(-199.427 -255.398)" fill="#fff" stroke="#263238" stroke-linecap="round" stroke-linejoin="round" stroke-width="1"/>
          <path id="Path_7054" data-name="Path 7054" d="M212.733,263.046s2.954-4.676,3.815-6.153,2.215-7.384,3.076-7.015,1.723,2.338,1.476,4.922-3.322,8.492-3.322,8.492Z" transform="translate(-204.98 -249.862)" fill="#fff" stroke="#263238" stroke-linecap="round" stroke-linejoin="round" stroke-width="1"/>
          <path id="Path_7055" data-name="Path 7055" d="M200.483,300.808l2.585-8.737-1.108-14.029,3.446-6.645,9.476-1.231s5.783,3.076,6.276,3.076,0,1.354-1.108,1.6a8.811,8.811,0,0,1-3.2-.369l3.569,2.338s-.246,1.108-1.108,1.354a12.877,12.877,0,0,1-2.584.246s3.076,1.969,2.338,2.338a5.339,5.339,0,0,1-2.338.492h-2.338L212.544,281l-2.831,1.108s1.969,5.045,1.846,7.507-3.2,4.061-3.2,4.061" transform="translate(-199.868 -258.335)" fill="#fff" stroke="#263238" stroke-linecap="round" stroke-linejoin="round" stroke-width="1"/>
          <path id="Path_7056" data-name="Path 7056" d="M220.729,276.412s-1.969-1.6-3.076-1.6-7.876,1.231-7.876,1.231" transform="translate(-203.746 -260.274)" fill="#fff" stroke="#263238" stroke-linecap="round" stroke-linejoin="round" stroke-width="1"/>
          <path id="Path_7057" data-name="Path 7057" d="M219.108,283.083s-3.2-1.723-4.184-1.723-8.738,1.969-8.738,1.969" transform="translate(-202.248 -263.007)" fill="none" stroke="#263238" stroke-linecap="round" stroke-linejoin="round" stroke-width="1"/>
        </g>
        <path id="Path_7058" data-name="Path 7058" d="M187.746,318.045l9.047,5.823s-4.028,20.667-4.424,22.433-3.3,6.433-4.755,7.821-3.17,1.135-7.131.126-7.4-4.036-7.264-7.947S187.746,318.045,187.746,318.045Z" transform="translate(-164.941 -223.611)" fill="none" stroke="#263238" stroke-linecap="round" stroke-linejoin="round" stroke-width="1"/>
      </g>
    </g>
    <g id="Device" transform="translate(7.664 66.527)">
      <g id="Group_2398" data-name="Group 2398" transform="translate(44.893 80.029)">
        <rect id="Rectangle_243" data-name="Rectangle 243" width="2.904" height="0.894" transform="translate(1.669)" fill="#fff" stroke="#263238" stroke-linecap="round" stroke-linejoin="round" stroke-width="1"/>
        <rect id="Rectangle_244" data-name="Rectangle 244" width="2.904" height="0.894" transform="translate(5.691)" fill="#fff" stroke="#263238" stroke-linecap="round" stroke-linejoin="round" stroke-width="1"/>
        <rect id="Rectangle_245" data-name="Rectangle 245" width="2.904" height="0.894" transform="translate(9.712)" fill="#fff" stroke="#263238" stroke-linecap="round" stroke-linejoin="round" stroke-width="1"/>
        <rect id="Rectangle_246" data-name="Rectangle 246" width="2.904" height="0.894" transform="translate(13.733)" fill="#fff" stroke="#263238" stroke-linecap="round" stroke-linejoin="round" stroke-width="1"/>
        <rect id="Rectangle_247" data-name="Rectangle 247" width="2.904" height="0.894" transform="translate(17.754)" fill="#fff" stroke="#263238" stroke-linecap="round" stroke-linejoin="round" stroke-width="1"/>
        <rect id="Rectangle_248" data-name="Rectangle 248" width="2.904" height="0.894" transform="translate(21.776)" fill="#fff" stroke="#263238" stroke-linecap="round" stroke-linejoin="round" stroke-width="1"/>
        <rect id="Rectangle_249" data-name="Rectangle 249" width="2.904" height="0.894" transform="translate(25.797)" fill="#fff" stroke="#263238" stroke-linecap="round" stroke-linejoin="round" stroke-width="1"/>
        <rect id="Rectangle_250" data-name="Rectangle 250" width="2.904" height="0.894" transform="translate(29.818)" fill="#fff" stroke="#263238" stroke-linecap="round" stroke-linejoin="round" stroke-width="1"/>
        <rect id="Rectangle_251" data-name="Rectangle 251" width="2.904" height="0.894" transform="translate(33.84)" fill="#fff" stroke="#263238" stroke-linecap="round" stroke-linejoin="round" stroke-width="1"/>
        <rect id="Rectangle_252" data-name="Rectangle 252" width="2.904" height="0.894" transform="translate(37.861)" fill="#fff" stroke="#263238" stroke-linecap="round" stroke-linejoin="round" stroke-width="1"/>
        <rect id="Rectangle_253" data-name="Rectangle 253" width="2.904" height="0.894" transform="translate(41.882)" fill="#fff" stroke="#263238" stroke-linecap="round" stroke-linejoin="round" stroke-width="1"/>
        <rect id="Rectangle_254" data-name="Rectangle 254" width="2.904" height="0.894" transform="translate(45.903)" fill="#fff" stroke="#263238" stroke-linecap="round" stroke-linejoin="round" stroke-width="1"/>
        <rect id="Rectangle_255" data-name="Rectangle 255" width="2.904" height="0.894" transform="translate(49.925)" fill="#fff" stroke="#263238" stroke-linecap="round" stroke-linejoin="round" stroke-width="1"/>
        <rect id="Rectangle_256" data-name="Rectangle 256" width="2.904" height="0.894" transform="translate(53.946)" fill="#fff" stroke="#263238" stroke-linecap="round" stroke-linejoin="round" stroke-width="1"/>
        <rect id="Rectangle_257" data-name="Rectangle 257" width="2.904" height="0.894" transform="translate(57.967)" fill="#fff" stroke="#263238" stroke-linecap="round" stroke-linejoin="round" stroke-width="1"/>
        <rect id="Rectangle_258" data-name="Rectangle 258" width="2.904" height="0.894" transform="translate(61.989)" fill="#fff" stroke="#263238" stroke-linecap="round" stroke-linejoin="round" stroke-width="1"/>
        <rect id="Rectangle_259" data-name="Rectangle 259" width="71.894" height="2.531" transform="translate(0 0.702)" fill="none" stroke="#263238" stroke-linecap="round" stroke-linejoin="round" stroke-width="1"/>
        <rect id="Rectangle_260" data-name="Rectangle 260" width="27.561" height="2.531" transform="translate(44.333 0.702)" fill="none" stroke="#263238" stroke-linecap="round" stroke-linejoin="round" stroke-width="1"/>
      </g>
      <g id="Group_2400" data-name="Group 2400">
        <g id="Group_2399" data-name="Group 2399">
          <path id="Path_7059" data-name="Path 7059" d="M92.825,337.134H37.994L27.217,280.072H82.049Z" transform="translate(-27.217 -280.072)" fill="none" stroke="#000" stroke-linecap="round" stroke-linejoin="round" stroke-width="1"/>
          <path id="Path_7060" data-name="Path 7060" d="M86.759,339.824H45.991L37.979,297.4H78.746Z" transform="translate(-31.708 -287.303)" fill="none" stroke="#000" stroke-linecap="round" stroke-linejoin="round" stroke-width="1"/>
          <line id="Line_64" data-name="Line 64" x1="6.27" y1="10.095" fill="none" stroke="#000" stroke-linecap="round" stroke-linejoin="round" stroke-width="1"/>
          <line id="Line_65" data-name="Line 65" y1="10.095" x2="7.794" transform="translate(47.038)" fill="#263238" stroke="#000" stroke-linecap="round" stroke-linejoin="round" stroke-width="1"/>
          <line id="Line_66" data-name="Line 66" x2="10.558" y2="4.541" transform="translate(55.05 52.521)" fill="#263238" stroke="#000" stroke-linecap="round" stroke-linejoin="round" stroke-width="1"/>
          <line id="Line_67" data-name="Line 67" x1="3.506" y2="4.541" transform="translate(10.777 52.521)" fill="#fff" stroke="#263238" stroke-linecap="round" stroke-linejoin="round" stroke-width="1"/>
        </g>
        <path id="Path_7061" data-name="Path 7061" d="M73.533,344.628h-9.28l5.905-5.273h9.28Z" transform="translate(-42.674 -304.813)" fill="none" stroke="#000" stroke-linecap="round" stroke-linejoin="round" stroke-width="1"/>
        <rect id="Rectangle_261" data-name="Rectangle 261" width="33.956" height="3.375" transform="translate(27.696 80.098)" fill="#263238"/>
        <path id="Path_7062" data-name="Path 7062" d="M84.922,414.064h-9.28L64.253,401.123h9.28Z" transform="translate(-42.674 -330.591)" fill="none" stroke="#000" stroke-linecap="round" stroke-linejoin="round" stroke-width="1"/>
        <rect id="Rectangle_262" data-name="Rectangle 262" width="9.28" height="30.371" transform="translate(21.58 40.026)" fill="none" stroke="#000" stroke-linecap="round" stroke-linejoin="round" stroke-width="1"/>
      </g>
    </g>
    <g id="Table" transform="translate(0 144.222)">
      <path id="Path_7063" data-name="Path 7063" d="M313.411,413.417a13.766,13.766,0,0,0,5.784,5.619" transform="translate(-141.155 -413.417)" fill="#fff" stroke="#263238" stroke-linecap="round" stroke-linejoin="round" stroke-width="1"/>
      <line id="Line_68" data-name="Line 68" x2="199.112" transform="translate(0 5.778)" fill="none" stroke="#263238" stroke-linecap="round" stroke-linejoin="round" stroke-width="1"/>
    </g>
  </g>
</svg>
