<svg xmlns="http://www.w3.org/2000/svg" width="497.917" height="111.862" viewBox="0 0 497.917 111.862">
  <g id="owning_bg" transform="translate(-8165.502 -2043.551)">
    <g id="Group_2521" data-name="Group 2521" transform="translate(8165.502 2043.551)">
      <path id="Path_6889" data-name="Path 6889" d="M1039.978,457.307H684.269L613.488,528.49h497.287Z" transform="translate(-613.488 -457.307)" fill="#fff"/>
      <path id="Path_6890" data-name="Path 6890" d="M958.2,457.307H934.487l61.344,71.183h33.163Z" transform="translate(-531.708 -457.307)" fill="#29255f"/>
      <path id="Path_6891" data-name="Path 6891" d="M920.4,457.307h-23.7l42.466,71.183h33.156Z" transform="translate(-541.336 -457.307)" fill="#ec2229"/>
      <path id="Path_6892" data-name="Path 6892" d="M882.6,457.307H858.892l23.6,71.183h33.146Z" transform="translate(-550.967 -457.307)" fill="#29255f"/>
      <path id="Path_6893" data-name="Path 6893" d="M844.8,457.307H821.1l4.713,71.183h33.153Z" transform="translate(-560.596 -457.307)" fill="#ec2229"/>
      <path id="Path_6894" data-name="Path 6894" d="M786.171,457.307l-14.16,71.183h33.156l4.716-71.183Z" transform="translate(-573.101 -457.307)" fill="#29255f"/>
      <path id="Path_6895" data-name="Path 6895" d="M752.2,457.307,719.172,528.49h33.146l23.6-71.183Z" transform="translate(-586.563 -457.307)" fill="#ec2229"/>
      <path id="Path_6896" data-name="Path 6896" d="M718.236,457.307l-51.91,71.183h33.154l42.471-71.183Z" transform="translate(-600.026 -457.307)" fill="#29255f"/>
      <path id="Path_6897" data-name="Path 6897" d="M684.269,457.307,613.488,528.49h33.146l61.347-71.183Z" transform="translate(-613.488 -457.307)" fill="#ec2229"/>
      <path id="Path_6898" data-name="Path 6898" d="M646.675,518.794c0,12.141-7.431,21.991-16.6,21.991s-16.591-9.85-16.591-21.991V500.106h33.187Z" transform="translate(-613.487 -428.922)" fill="#ec2229"/>
      <path id="Path_6899" data-name="Path 6899" d="M673.134,518.794c0,12.141-7.431,21.991-16.6,21.991s-16.6-9.85-16.6-21.991V500.106h33.2Z" transform="translate(-606.749 -428.922)" fill="#dbdbdb"/>
      <path id="Path_6900" data-name="Path 6900" d="M699.586,518.794c0,12.141-7.431,21.991-16.6,21.991s-16.6-9.85-16.6-21.991V500.106h33.192Z" transform="translate(-600.009 -428.922)" fill="#29255f"/>
      <path id="Path_6901" data-name="Path 6901" d="M726.048,518.794c0,12.141-7.429,21.991-16.6,21.991s-16.6-9.85-16.6-21.991V500.106h33.2Z" transform="translate(-593.269 -428.922)" fill="#dbdbdb"/>
      <path id="Path_6902" data-name="Path 6902" d="M752.5,518.794c0,12.141-7.432,21.991-16.6,21.991s-16.6-9.85-16.6-21.991V500.106H752.5Z" transform="translate(-586.528 -428.922)" fill="#ec2229"/>
      <path id="Path_6903" data-name="Path 6903" d="M778.957,518.794c0,12.141-7.431,21.991-16.6,21.991s-16.6-9.85-16.6-21.991V500.106h33.2Z" transform="translate(-579.789 -428.922)" fill="#dbdbdb"/>
      <path id="Path_6904" data-name="Path 6904" d="M805.409,518.794c0,12.141-7.431,21.991-16.6,21.991s-16.6-9.85-16.6-21.991V500.106h33.192Z" transform="translate(-573.049 -428.922)" fill="#29255f"/>
      <path id="Path_6905" data-name="Path 6905" d="M831.869,518.794c0,12.141-7.438,21.991-16.6,21.991s-16.6-9.85-16.6-21.991V500.106h33.2Z" transform="translate(-566.309 -428.922)" fill="#dbdbdb"/>
      <path id="Path_6906" data-name="Path 6906" d="M858.313,518.794c0,12.141-7.43,21.991-16.593,21.991s-16.592-9.85-16.592-21.991V500.106h33.185Z" transform="translate(-559.569 -428.922)" fill="#ec2229"/>
      <path id="Path_6907" data-name="Path 6907" d="M884.777,518.794c0,12.141-7.423,21.991-16.6,21.991s-16.6-9.85-16.6-21.991V500.106h33.2Z" transform="translate(-552.831 -428.922)" fill="#dbdbdb"/>
      <path id="Path_6908" data-name="Path 6908" d="M911.227,518.794c0,12.141-7.431,21.991-16.592,21.991s-16.6-9.85-16.6-21.991V500.106h33.191Z" transform="translate(-546.089 -428.922)" fill="#29255f"/>
      <path id="Path_6909" data-name="Path 6909" d="M937.69,518.794c0,12.141-7.428,21.991-16.6,21.991s-16.6-9.85-16.6-21.991V500.106h33.2Z" transform="translate(-539.35 -428.922)" fill="#dbdbdb"/>
      <path id="Path_6910" data-name="Path 6910" d="M964.141,518.794c0,12.141-7.438,21.991-16.6,21.991s-16.591-9.85-16.591-21.991V500.106h33.192Z" transform="translate(-532.609 -428.922)" fill="#ec2229"/>
      <path id="Path_6911" data-name="Path 6911" d="M990.594,518.794c0,12.141-7.431,21.991-16.6,21.991s-16.591-9.85-16.591-21.991V500.106h33.192Z" transform="translate(-525.87 -428.922)" fill="#dbdbdb"/>
      <path id="Path_6912" data-name="Path 6912" d="M1017.047,518.794c0,12.141-7.421,21.991-16.592,21.991s-16.6-9.85-16.6-21.991V500.106h33.192Z" transform="translate(-519.13 -428.922)" fill="#29255f"/>
    </g>
  </g>
</svg>
