<svg xmlns="http://www.w3.org/2000/svg" width="94.287" height="233.919" viewBox="0 0 94.287 233.919">
  <g id="red_owning_left" transform="translate(-1858.903 -4935)">
    <g id="Group_2774" data-name="Group 2774" transform="translate(1946.899 4935)">
      <rect id="Rectangle_314" data-name="Rectangle 314" width="0.976" height="196.589" fill="#ec2229"/>
    </g>
    <g id="Group_2775" data-name="Group 2775" transform="translate(1858.903 5130.061)">
      <path id="Path_9332" data-name="Path 9332" d="M206.553,215.807a55.267,55.267,0,0,0,79.476-14.535l0-.005a.6.6,0,0,1,1.095.419c-1.306,8.316-6.084,16.128-12.57,21.942a48.685,48.685,0,0,1-49.363,9.028c-8.123-3.142-15.358-8.757-19.522-16.072a.6.6,0,0,1,.875-.78Z" transform="translate(-199.638 -196.933)" fill="#ec2229"/>
      <path id="Path_9333" data-name="Path 9333" d="M199.157,221.95a6.573,6.573,0,0,1,.175-4.123,7.649,7.649,0,0,1,2.5-3.477,8.209,8.209,0,0,1,3.895-1.68,7.576,7.576,0,0,1,3.978.422.626.626,0,0,1,.1,1.128l-.077.045a16.057,16.057,0,0,1-1.628.751c-.5.271-1.016.44-1.458.713a13.489,13.489,0,0,0-2.439,1.559,12.812,12.812,0,0,0-1.989,2.035c-.636.775-1.22,1.713-1.885,2.695l-.069.1a.617.617,0,0,1-1.1-.17Z" transform="translate(-198.903 -198.206)" fill="#ec2229"/>
      <path id="Path_9334" data-name="Path 9334" d="M302.116,203.457c-.969-.683-1.848-1.352-2.716-1.852a12.841,12.841,0,0,0-2.581-1.2,13.41,13.41,0,0,0-2.833-.595c-.51-.1-1.053-.075-1.616-.151a15.935,15.935,0,0,1-1.789-.126l-.087-.014a.626.626,0,0,1-.311-1.09,7.585,7.585,0,0,1,3.572-1.8,8.214,8.214,0,0,1,4.236.192,7.652,7.652,0,0,1,3.573,2.366,6.578,6.578,0,0,1,1.624,3.795.617.617,0,0,1-.97.549Z" transform="translate(-208.903 -196.432)" fill="#ec2229"/>
    </g>
  </g>
</svg>
