<svg xmlns="http://www.w3.org/2000/svg" width="33.129" height="44" viewBox="0 0 33.129 44">
  <g id="sfy-icon_2" transform="translate(-74.339 -31.57)">
    <path id="Path_7569" data-name="Path 7569" d="M93.206,62.113V57.521a1.861,1.861,0,0,0-1.859-1.859H76.2a1.861,1.861,0,0,0-1.859,1.859v4.592A1.861,1.861,0,0,0,76.2,63.972h15.15A1.861,1.861,0,0,0,93.206,62.113Zm-17.7,0V57.521a.691.691,0,0,1,.69-.69h15.15a.691.691,0,0,1,.69.69v4.592a.691.691,0,0,1-.69.69H76.2a.691.691,0,0,1-.69-.69Z" transform="translate(0 -21.746)" fill="#fff"/>
    <path id="Path_7570" data-name="Path 7570" d="M251.494,152.1H237.249a1.827,1.827,0,0,0-1.825,1.825v4.282a1.827,1.827,0,0,0,1.825,1.825h.569v1.562a.936.936,0,0,0,1.61.651l1.621-1.679a1.755,1.755,0,0,1,1.256-.533h9.188a1.827,1.827,0,0,0,1.825-1.825v-4.282A1.827,1.827,0,0,0,251.494,152.1Zm.656,6.106a.657.657,0,0,1-.656.656h-9.188a2.93,2.93,0,0,0-2.1.89l-1.222,1.266v-1.188a.969.969,0,0,0-.968-.968h-.769a.657.657,0,0,1-.656-.656v-4.282a.657.657,0,0,1,.656-.656h14.244a.657.657,0,0,1,.656.656Z" transform="translate(-145.85 -108.999)" fill="#fff"/>
    <path id="Path_7571" data-name="Path 7571" d="M108.69,73.706h-.572a1.024,1.024,0,0,0-1.023,1.023v.52h.877v-.52a.146.146,0,0,1,.146-.146h.572a.146.146,0,0,1,.146.146v.465a.146.146,0,0,1-.079.13l-.538.28a1.276,1.276,0,0,0-.689,1.135h.877a.4.4,0,0,1,.217-.358l.538-.28a1.019,1.019,0,0,0,.55-.907v-.465A1.024,1.024,0,0,0,108.69,73.706Z" transform="translate(-29.566 -38.032)" fill="#fff"/>
    <rect id="Rectangle_306" data-name="Rectangle 306" width="0.877" height="0.768" transform="translate(77.991 39.424)" fill="#fff"/>
    <rect id="Rectangle_307" data-name="Rectangle 307" width="8.527" height="0.877" transform="translate(81.347 36.725)" fill="#fff"/>
    <rect id="Rectangle_308" data-name="Rectangle 308" width="5.009" height="0.877" transform="translate(81.412 38.544)" fill="#fff"/>
    <rect id="Rectangle_309" data-name="Rectangle 309" width="7.411" height="0.877" transform="translate(92.89 45.712)" fill="#fff"/>
    <rect id="Rectangle_310" data-name="Rectangle 310" width="11.471" height="0.877" transform="translate(92.788 47.53)" fill="#fff"/>
    <rect id="Rectangle_311" data-name="Rectangle 311" width="2.711" height="0.877" transform="translate(101.548 45.712)" fill="#fff"/>
    <path id="Path_7572" data-name="Path 7572" d="M146.876,35.775v.689h7.937a.974.974,0,0,1,.974.974v4.7h1.484V34.755a3.185,3.185,0,0,0-3.185-3.185h-19.11a3.178,3.178,0,0,0-2.472,1.178h11.344A3.031,3.031,0,0,1,146.876,35.775Z" transform="translate(-52.954 0)" fill="#fff"/>
    <path id="Path_7573" data-name="Path 7573" d="M148.758,179.842a.966.966,0,0,1-.957.974h-1.875v-1.509a1.224,1.224,0,0,0-1.212-1.234h-.168v-4.112a2.032,2.032,0,0,0,1.38-1.931v-.056a3.845,3.845,0,0,0-.23-1.311l-1.591-4.4a1.916,1.916,0,0,0-1.791-1.272h-9.1a1.918,1.918,0,0,0-1.791,1.272l-1.591,4.4a3.844,3.844,0,0,0-.229,1.31v.056a2.032,2.032,0,0,0,1.38,1.931v4.112h-.169a1.224,1.224,0,0,0-1.211,1.234v1.509h-2a.966.966,0,0,1-.957-.974V152.984h-1.458v29.592a3.157,3.157,0,0,0,3.128,3.185h18.771a3.157,3.157,0,0,0,3.128-3.185V162h-1.458Zm-6.625-13.687h.183a.764.764,0,0,1,.714.506l1.214,3.361h-2.11Zm0,5.036h2.526a2.667,2.667,0,0,1,.12.782v.056a.855.855,0,0,1-.847.862h-.953a.855.855,0,0,1-.847-.862Zm-3.794-5.036h2.646v3.867h-2.646Zm0,5.875v-.839h2.646v.839a.855.855,0,0,1-.847.862h-.953a.855.855,0,0,1-.847-.86Zm-3.794-5.875h2.646v3.867h-2.646Zm0,5.036h2.646v.84a.855.855,0,0,1-.847.86h-.953a.855.855,0,0,1-.847-.862Zm.847,2.869h.953a1.974,1.974,0,0,0,1.421-.608,1.972,1.972,0,0,0,1.421.608h.953a1.974,1.974,0,0,0,1.421-.608,1.972,1.972,0,0,0,1.421.608h.419v4.013h-3.642V176.14A1.129,1.129,0,0,0,138.64,175h-1.751a1.128,1.128,0,0,0-1.116,1.137v1.932h-3.642V174.06h.419a1.974,1.974,0,0,0,1.421-.608A1.972,1.972,0,0,0,135.391,174.06Zm-2.891-7.4a.763.763,0,0,1,.713-.506h.184v3.867h-2.11Zm-1.75,5.368v-.056a2.636,2.636,0,0,1,.12-.782H133.4v.839a.855.855,0,0,1-.847.862H131.6a.855.855,0,0,1-.846-.862Zm0,7.277a.065.065,0,0,1,.063-.065h13.9a.065.065,0,0,1,.064.065v1.509H130.751Zm9.14,4.486h-4.377v-1.169h4.377Z" transform="translate(-45.898 -110.191)" fill="#fff"/>
  </g>
</svg>
