<svg xmlns="http://www.w3.org/2000/svg" width="46.414" height="46.414" viewBox="0 0 46.414 46.414">
  <g id="sfy-icon_3" transform="translate(-0.086 -0.5)">
    <line id="Line_96" data-name="Line 96" y1="43.511" x2="43.511" transform="translate(1.5 1.989)" fill="none" stroke="#fff" stroke-linecap="round" stroke-linejoin="round" stroke-width="2"/>
    <path id="Path_7574" data-name="Path 7574" d="M1.5,16.2H5a9.271,9.271,0,0,1,8.747,9.331c0,1.844,3.5,2.077,3.5-1.421a30.689,30.689,0,0,0-.924-5.77.789.789,0,0,1,.769-.973h8.32a1.749,1.749,0,0,0,0-3.5H24.243a1.749,1.749,0,1,0,0-3.5H23.077" transform="translate(0 -2.112)" fill="none" stroke="#fff" stroke-linecap="round" stroke-linejoin="round" stroke-width="2"/>
    <path id="Path_7575" data-name="Path 7575" d="M23.078,8.5h0a1.749,1.749,0,0,0,0-3.5H21.912a1.749,1.749,0,0,0,0-3.5H14.333c-4.666,0-3.5,2.333-12.83,2.333" transform="translate(-0.001)" fill="none" stroke="#fff" stroke-linecap="round" stroke-linejoin="round" stroke-width="2"/>
    <path id="Path_7576" data-name="Path 7576" d="M51.657,39.409h-3.5a9.271,9.271,0,0,1-8.747-9.331c0-1.844-3.5-2.077-3.5,1.421a30.689,30.689,0,0,0,.924,5.77.789.789,0,0,1-.769.973h-8.32a1.749,1.749,0,1,0,0,3.5h1.167a1.749,1.749,0,1,0,0,3.5H30.08" transform="translate(-6.157 -6.494)" fill="none" stroke="#fff" stroke-linecap="round" stroke-linejoin="round" stroke-width="2"/>
    <path id="Path_7577" data-name="Path 7577" d="M30.7,49.636h0a1.749,1.749,0,1,0,0,3.5h1.166a1.749,1.749,0,1,0,0,3.5h7.579c4.666,0,3.5-2.333,12.83-2.333" transform="translate(-6.78 -11.134)" fill="none" stroke="#fff" stroke-linecap="round" stroke-linejoin="round" stroke-width="2"/>
  </g>
</svg>
