<svg xmlns="http://www.w3.org/2000/svg" xmlns:xlink="http://www.w3.org/1999/xlink" width="381.3" height="665.934" viewBox="0 0 381.3 665.934">
  <defs>
    <clipPath id="clip-path">
      <path id="Path_7361" data-name="Path 7361" d="M261.355,315.222a215.651,215.651,0,0,0,1.018,59.059c5.089,31.567,41.749,84.516,41.749,96.736s-10.184,31.567-12.221,48.877,12.221,96.734,12.221,96.734l-3.055,12.221,3.055,6.11s9.163-3.055,17.31-3.055h15.273s4.074-9.166,4.074-16.292-3.055-11.2-3.055-11.2,6.11-5.092,6.11-20.365-10.184-49.9-2.037-75.353c0,0,10.184,5.092,24.439-5.092s21.383-94.7,23.42-135.43-2.037-57.022-2.037-57.022a188.816,188.816,0,0,1-60.077-5.092C294.957,297.912,264.411,301.983,261.355,315.222Z" transform="translate(-259.813 -301.863)" fill="#c6ff00" stroke="#263238" stroke-linecap="round" stroke-linejoin="round" stroke-width="1"/>
    </clipPath>
    <clipPath id="clip-path-2">
      <path id="Path_7366" data-name="Path 7366" d="M324.127,285.817l18.612,21.827s-.911,42.84-2.734,69.277c-.991,14.365-5.7,36.179-5.7,36.179s-14.255,8.147-15.273,11.2-7.129,17.312-7.129,17.312-2.037,6.108,2.037,4.074,9.165-14.257,9.165-14.257V471.14s3.055,5.092,6.108,0a107.987,107.987,0,0,1,7.129-10.181s8.147-10.184,11.2-18.328,4.071-36.659,4.071-36.659S366.781,360.893,371,344.1c4.24-16.886,4.558-35.095,3.023-46.069-.7-5.043-24.439-35.638-24.439-35.638S328.2,277.67,324.127,285.817Z" transform="translate(-311.397 -262.397)" fill="none" stroke="#263238" stroke-linecap="round" stroke-linejoin="round" stroke-width="1"/>
    </clipPath>
    <clipPath id="clip-path-3">
      <path id="Path_7371" data-name="Path 7371" d="M259.34,278.827,251.7,303.266s-11.454,23.675-14.509,37.421-12.221,56.515-12.221,60.331-12.982,25.966-14.509,31.313,4.583,21.383,6.874,23.675,6.872,3.055,7.635.764-1.528-7.638-1.528-7.638l10.693-12.982s-3.055,17.565,1.528,12.218,4.583-13.746,4.583-22.147-.786-21.557-.786-21.557,31.332-60.158,33.624-71.615,12.221-39.712,12.221-39.712Z" transform="translate(-210.221 -278.827)" fill="none" stroke="#263238" stroke-linecap="round" stroke-linejoin="round" stroke-width="1"/>
    </clipPath>
    <clipPath id="clip-path-4">
      <path id="Path_7381" data-name="Path 7381" d="M324.027,237.672c-24,3.9-48.789,13.687-48.789,13.687s-8.5,5.518-19.388,12.9c3.99,10.994,15,31.709,41.79,33.944C327.1,300.652,336.395,264.728,324.027,237.672Z" transform="translate(-255.85 -237.672)" fill="none" stroke="#263238" stroke-linecap="round" stroke-linejoin="round" stroke-width="1"/>
    </clipPath>
    <clipPath id="clip-path-5">
      <path id="Path_7388" data-name="Path 7388" d="M251.671,244.495s7.523,29.34,12.788,38.368,22.568,23.32,32.348,21.063,18.054-15.8,20.311-29.34-1.506-40.623-1.506-40.623-23.32-1.5-38.365,0A50.844,50.844,0,0,0,251.671,244.495Z" transform="translate(-251.671 -233.295)" fill="#fff" stroke="#263238" stroke-linecap="round" stroke-linejoin="round" stroke-width="1"/>
    </clipPath>
  </defs>
  <g id="skateboard_avatar" transform="translate(-209.7 -211.047)">
    <g id="Group_2670" data-name="Group 2670" transform="translate(301.146 794.352)">
      <ellipse id="Ellipse_31" data-name="Ellipse 31" cx="144.927" cy="41.314" rx="144.927" ry="41.314" fill="#dcdcdc"/>
      <path id="Path_7398" data-name="Path 7398" d="M144.927,0c80.041,0,144.927,18.5,144.927,41.314S224.968,82.628,144.927,82.628,0,64.131,0,41.314,64.886,0,144.927,0Z" fill="none" opacity="0.5"/>
    </g>
    <g id="Group_2689" data-name="Group 2689" transform="translate(210.221 211.647)">
      <g id="Group_2671" data-name="Group 2671" transform="translate(149.664 600.589)">
        <path id="Path_7346" data-name="Path 7346" d="M330.615,477.091l-18.237-8.885v-9.352l-7.015-1v-.869l-3.039.434-3.039-.434v.869l-7.015,1v9.352l-18.237,8.885v5.144l28.291-2.534,28.291,2.534Z" transform="translate(-267.485 -456.983)" fill="#fff" stroke="#263238" stroke-linecap="round" stroke-linejoin="round" stroke-width="1"/>
        <rect id="Rectangle_285" data-name="Rectangle 285" width="8.885" height="24.784" rx="1.454" transform="translate(0 13.561)" fill="#263238" stroke="#263238" stroke-linecap="round" stroke-linejoin="round" stroke-width="1"/>
        <rect id="Rectangle_286" data-name="Rectangle 286" width="8.885" height="24.784" rx="1.454" transform="translate(63.597 13.561)" fill="#263238" stroke="#263238" stroke-linecap="round" stroke-linejoin="round" stroke-width="1"/>
      </g>
      <g id="Group_2672" data-name="Group 2672" transform="translate(118.681 376.765)">
        <path id="Path_7347" data-name="Path 7347" d="M279.256,365.553s-10.184,1.018-17.31,8.147-1.018,20.365,4.073,36.659,1.016,27.491,4.071,38.693,10.184,22.4,19.347,14.255,14.257-37.675,11.2-50.914S291.474,370.645,279.256,365.553Z" transform="translate(-258.702 -365.553)" fill="#fff" stroke="#263238" stroke-linecap="round" stroke-linejoin="round" stroke-width="1"/>
        <path id="Path_7348" data-name="Path 7348" d="M273.388,430.8c3.3-14.287-3.579-27.731-7.158-42.938a105.608,105.608,0,0,1-2.7-19.565c-.539.453-1.072.925-1.584,1.44-7.129,7.129-1.018,20.365,4.073,36.657s1.016,27.494,4.071,38.7c2.284,8.37,6.842,16.732,12.825,17.031C275.491,456.341,270.26,444.358,273.388,430.8Z" transform="translate(-258.702 -361.585)" fill="#fff" stroke="#263238" stroke-linecap="round" stroke-linejoin="round" stroke-width="1"/>
        <path id="Path_7349" data-name="Path 7349" d="M269.086,388.784s.893,21.469,3.579,23.259,4.473-11.628,3.577-27.731S269.086,388.784,269.086,388.784Z" transform="translate(-243.665 -347.305)" fill="#fff" stroke="#263238" stroke-linecap="round" stroke-linejoin="round" stroke-width="1"/>
      </g>
      <path id="Path_7350" data-name="Path 7350" d="M297.416,367.59s-20.365-2.037-26.475-2.037-8.147,23.42-5.092,33.6,23.42,12.218,30.549,12.218,17.31-32.583,5.092-43.785Z" transform="translate(-131.704 11.212)" fill="#29255f" stroke="#263238" stroke-linecap="round" stroke-linejoin="round" stroke-width="1"/>
      <path id="Path_7351" data-name="Path 7351" d="M268.97,442.3V482.01H354.5L345.34,442.3Z" transform="translate(-125.152 122.34)" fill="#fff" stroke="#263238" stroke-linecap="round" stroke-linejoin="round" stroke-width="1"/>
      <path id="Path_7352" data-name="Path 7352" d="M268.97,457.21h76.369s-9.158-25.766-35.129-25.2C275.078,432.771,268.97,457.21,268.97,457.21Z" transform="translate(-125.151 107.427)" fill="#263238" stroke="#263238" stroke-linecap="round" stroke-linejoin="round" stroke-width="1"/>
      <g id="Group_2673" data-name="Group 2673" transform="translate(162.656 537.157)">
        <path id="Path_7353" data-name="Path 7353" d="M276.665,441.75s3.055,20.365,3.055,32.586,29.528,20.365,39.712,17.31,9.165-14.257,2.037-26.475-9.165-20.365-10.184-28.512S279.72,428.514,276.665,441.75Z" transform="translate(-276.665 -431.072)" fill="#fff" stroke="#263238" stroke-linecap="round" stroke-linejoin="round" stroke-width="1"/>
        <path id="Path_7354" data-name="Path 7354" d="M281.876,435.649s0,18.786,6.262,23.259,9.841,1.79,9.841-9.841-.9-14.314-.9-14.314Z" transform="translate(-269.119 -425.742)" fill="#fff" stroke="#263238" stroke-linecap="round" stroke-linejoin="round" stroke-width="1"/>
        <path id="Path_7355" data-name="Path 7355" d="M317.739,469.606c7.151-2.147,8.761-8.316,6.629-16.027-6.059,9.768-13.322,15.1-29.484,8.3-11.42-4.808-15.557-11.623-17.05-15.584.117,2.117.193,4.157.193,6C278.027,464.514,307.555,472.661,317.739,469.606Z" transform="translate(-274.972 -409.031)" fill="#fff" stroke="#263238" stroke-linecap="round" stroke-linejoin="round" stroke-width="1"/>
      </g>
      <g id="Group_2675" data-name="Group 2675" transform="translate(121.402 220.851)">
        <path id="Path_7356" data-name="Path 7356" d="M261.355,315.222a215.651,215.651,0,0,0,1.018,59.059c5.089,31.567,41.749,84.516,41.749,96.736s-10.184,31.567-12.221,48.877,12.221,96.734,12.221,96.734l-3.055,12.221,3.055,6.11s9.163-3.055,17.31-3.055h15.273s4.074-9.166,4.074-16.292-3.055-11.2-3.055-11.2,6.11-5.092,6.11-20.365-10.184-49.9-2.037-75.353c0,0,10.184,5.092,24.439-5.092s21.383-94.7,23.42-135.43-2.037-57.022-2.037-57.022a188.816,188.816,0,0,1-60.077-5.092C294.957,297.912,264.411,301.983,261.355,315.222Z" transform="translate(-259.813 -301.863)" fill="#29255f"/>
        <g id="Group_2674" data-name="Group 2674" clip-path="url(#clip-path)">
          <path id="Path_7357" data-name="Path 7357" d="M379.377,305.656a160.752,160.752,0,0,1-23.073.308c-19.009,2.815-38.742,6.82-51.262,6.82-24.439,0-47.859,14.255-36.657,13.237s38.693,10.184,43.785,19.347S340.683,421.739,341.7,447.2s-8.147,56-8.147,56,10.184,5.092,24.439-5.092,21.383-94.7,23.42-135.43S379.377,305.656,379.377,305.656Z" transform="translate(-251.57 -296.371)" fill="#29255f" opacity="0.5"/>
          <path id="Path_7358" data-name="Path 7358" d="M284.568,321.878s25.714,63.348,29.171,86.851-2.076,51.154-2.076,51.154" transform="translate(-223.967 -272.881)" fill="none" stroke="#263238" stroke-linecap="round" stroke-linejoin="round" stroke-width="1"/>
          <path id="Path_7359" data-name="Path 7359" d="M268.183,346.045s11.579,30.108,22,45.164,10.424,18.527,4.634,30.108-12.739,47.477-9.266,61.374,9.266,33.582,8.108,44,2.316,27.792,2.316,27.792,24,.333,19.685,1.158-18.527,6.947-18.527,6.947" transform="translate(-247.693 -237.886)" fill="none" stroke="#263238" stroke-linecap="round" stroke-linejoin="round" stroke-width="1"/>
          <path id="Path_7360" data-name="Path 7360" d="M264.01,316.169s16.59-2.766,32.49,4.147" transform="translate(-253.735 -281.939)" fill="none" stroke="#263238" stroke-linecap="round" stroke-linejoin="round" stroke-width="1"/>
        </g>
        <path id="Path_7362" data-name="Path 7362" d="M261.355,315.222a215.651,215.651,0,0,0,1.018,59.059c5.089,31.567,41.749,84.516,41.749,96.736s-10.184,31.567-12.221,48.877,12.221,96.734,12.221,96.734l-3.055,12.221,3.055,6.11s9.163-3.055,17.31-3.055h15.273s4.074-9.166,4.074-16.292-3.055-11.2-3.055-11.2,6.11-5.092,6.11-20.365-10.184-49.9-2.037-75.353c0,0,10.184,5.092,24.439-5.092s21.383-94.7,23.42-135.43-2.037-57.022-2.037-57.022a188.816,188.816,0,0,1-60.077-5.092C294.957,297.912,264.411,301.983,261.355,315.222Z" transform="translate(-259.813 -301.863)" fill="none" stroke="#263238" stroke-linecap="round" stroke-linejoin="round" stroke-width="1"/>
      </g>
      <g id="Group_2677" data-name="Group 2677" transform="translate(247.681 124.237)">
        <path id="Path_7363" data-name="Path 7363" d="M324.127,285.817l18.612,21.827s-.911,42.84-2.734,69.277c-.991,14.365-5.7,36.179-5.7,36.179s-14.255,8.147-15.273,11.2-7.129,17.312-7.129,17.312-2.037,6.108,2.037,4.074,9.165-14.257,9.165-14.257V471.14s3.055,5.092,6.108,0a107.987,107.987,0,0,1,7.129-10.181s8.147-10.184,11.2-18.328,4.071-36.659,4.071-36.659S366.781,360.893,371,344.1c4.24-16.886,4.558-35.095,3.023-46.069-.7-5.043-24.439-35.638-24.439-35.638S328.2,277.67,324.127,285.817Z" transform="translate(-311.397 -262.397)" fill="#fff"/>
        <g id="Group_2676" data-name="Group 2676" clip-path="url(#clip-path-2)">
          <path id="Path_7364" data-name="Path 7364" d="M367.093,298.035c-.7-5.043-24.439-35.638-24.439-35.638S321.27,277.67,317.2,285.817l5.246,6.149,25.859-12.2S360.429,297,359.79,312.315s-15.954,95.72-20.419,102.1-9.574,28.076-11.489,31.905-5.1,6.382-7.018,3.192-3.829-14.678-3.829-14.678-.328,1.427-.854,3.741V471.14s3.053,5.092,6.108,0a107.987,107.987,0,0,1,7.129-10.181s8.147-10.184,11.2-18.328,4.071-36.659,4.071-36.659,15.163-45.078,19.379-61.867C368.309,327.218,368.628,309.01,367.093,298.035Z" transform="translate(-304.47 -262.397)" fill="none"/>
          <path id="Path_7365" data-name="Path 7365" d="M367.093,298.035c-.7-5.043-24.439-35.638-24.439-35.638S321.27,277.67,317.2,285.817l5.246,6.149,25.859-12.2S360.429,297,359.79,312.315s-15.954,95.72-20.419,102.1-9.574,28.076-11.489,31.905-5.1,6.382-7.018,3.192-3.829-14.678-3.829-14.678-.328,1.427-.854,3.741V471.14s3.053,5.092,6.108,0a107.987,107.987,0,0,1,7.129-10.181s8.147-10.184,11.2-18.328,4.071-36.659,4.071-36.659,15.163-45.078,19.379-61.867C368.309,327.218,368.628,309.01,367.093,298.035Z" transform="translate(-304.47 -262.397)" fill="none" opacity="0.5"/>
        </g>
        <path id="Path_7367" data-name="Path 7367" d="M324.127,285.817l18.612,21.827s-.911,42.84-2.734,69.277c-.991,14.365-5.7,36.179-5.7,36.179s-14.255,8.147-15.273,11.2-7.129,17.312-7.129,17.312-2.037,6.108,2.037,4.074,9.165-14.257,9.165-14.257V471.14s3.055,5.092,6.108,0a107.987,107.987,0,0,1,7.129-10.181s8.147-10.184,11.2-18.328,4.071-36.659,4.071-36.659S366.781,360.893,371,344.1c4.24-16.886,4.558-35.095,3.023-46.069-.7-5.043-24.439-35.638-24.439-35.638S328.2,277.67,324.127,285.817Z" transform="translate(-311.397 -262.397)" fill="none" stroke="#263238" stroke-linecap="round" stroke-linejoin="round" stroke-width="1"/>
      </g>
      <g id="Group_2679" data-name="Group 2679" transform="translate(0 164.458)">
        <path id="Path_7368" data-name="Path 7368" d="M259.34,278.827,251.7,303.266s-11.454,23.675-14.509,37.421-12.221,56.515-12.221,60.331-12.982,25.966-14.509,31.313,4.583,21.383,6.874,23.675,6.872,3.055,7.635.764-1.528-7.638-1.528-7.638l10.693-12.982s-3.055,17.565,1.528,12.218,4.583-13.746,4.583-22.147-.786-21.557-.786-21.557,31.332-60.158,33.624-71.615,12.221-39.712,12.221-39.712Z" transform="translate(-210.221 -278.827)" fill="#fff"/>
        <g id="Group_2678" data-name="Group 2678" clip-path="url(#clip-path-3)">
          <path id="Path_7369" data-name="Path 7369" d="M277.485,293.336l-25.966-14.509-4.167,13.334c3.824,6.38,9.344,13.45,16.833,18.059a150.232,150.232,0,0,1-19.144,52.327c-15.954,26.8-19.144,43.394-17.868,52.326s0,14.039-3.829,18.507-3.953,11.721-7.721,15.751l10.693-12.982s-3.055,17.565,1.528,12.218,4.583-13.746,4.583-22.147-.786-21.557-.786-21.557,31.332-60.158,33.624-71.615S277.485,293.336,277.485,293.336Z" transform="translate(-202.399 -278.827)" fill="none"/>
          <path id="Path_7370" data-name="Path 7370" d="M277.485,293.336l-25.966-14.509-4.167,13.334c3.824,6.38,9.344,13.45,16.833,18.059a150.232,150.232,0,0,1-19.144,52.327c-15.954,26.8-19.144,43.394-17.868,52.326s0,14.039-3.829,18.507-3.953,11.721-7.721,15.751l10.693-12.982s-3.055,17.565,1.528,12.218,4.583-13.746,4.583-22.147-.786-21.557-.786-21.557,31.332-60.158,33.624-71.615S277.485,293.336,277.485,293.336Z" transform="translate(-202.399 -278.827)" fill="none" opacity="0.5"/>
        </g>
        <path id="Path_7372" data-name="Path 7372" d="M259.34,278.827,251.7,303.266s-11.454,23.675-14.509,37.421-12.221,56.515-12.221,60.331-12.982,25.966-14.509,31.313,4.583,21.383,6.874,23.675,6.872,3.055,7.635.764-1.528-7.638-1.528-7.638l10.693-12.982s-3.055,17.565,1.528,12.218,4.583-13.746,4.583-22.147-.786-21.557-.786-21.557,31.332-60.158,33.624-71.615,12.221-39.712,12.221-39.712Z" transform="translate(-210.221 -278.827)" fill="none" stroke="#263238" stroke-linecap="round" stroke-linejoin="round" stroke-width="1"/>
      </g>
      <g id="Group_2682" data-name="Group 2682" transform="translate(43.518 62.121)">
        <path id="Path_7373" data-name="Path 7373" d="M315.569,252.3s-58.04,37.675-65.169,47.859S228,336.814,228,336.814a35.7,35.7,0,0,0,15.273,17.31c11.2,6.11,16.294,6.11,16.294,6.11l22.4-16.292,23.42,50.912-3.055,23.42a48.6,48.6,0,0,1,36.657,2.037c19.347,9.165,57.024,21.384,73.316,16.294s34.622-16.294,34.622-16.294-16.294-38.693-20.367-52.948-2.037-52.951-2.037-52.951L445.909,330.7l32.583-37.675S446.927,263.5,431.652,252.3s-22.4-15.276-49.9-15.276S315.569,252.3,315.569,252.3Z" transform="translate(-227.998 -237.023)" fill="#92e3a9" stroke="#263238" stroke-linecap="round" stroke-linejoin="round" stroke-width="1"/>
        <g id="Group_2681" data-name="Group 2681" transform="translate(33.217 11.099)">
          <g id="Group_2680" data-name="Group 2680" transform="translate(0 50.559)">
            <path id="Path_7374" data-name="Path 7374" d="M250.284,268.976l12.034,28.7-20.751-22.6" transform="translate(-241.567 -252.413)" fill="none" stroke="#fff" stroke-linecap="round" stroke-linejoin="round" stroke-width="0.75"/>
            <line id="Line_91" data-name="Line 91" x1="22.964" y1="15.731" transform="translate(140.345)" fill="none" stroke="#fff" stroke-linecap="round" stroke-linejoin="round" stroke-width="0.75"/>
            <line id="Line_92" data-name="Line 92" x1="26.151" y1="2.615" transform="translate(133.371 11.332)" fill="none" stroke="#fff" stroke-linecap="round" stroke-linejoin="round" stroke-width="0.75"/>
            <path id="Path_7375" data-name="Path 7375" d="M356.045,332.671s-28.764-2.617-48.307-14.656-44.094-14.982-44.094-14.982,29.638-4.36,54.047,5.229" transform="translate(-209.599 -204.53)" fill="none" stroke="#fff" stroke-linecap="round" stroke-linejoin="round" stroke-width="0.75"/>
          </g>
          <path id="Path_7376" data-name="Path 7376" d="M289.543,248.465a66.664,66.664,0,0,0-1.329-6.908" transform="translate(-174.021 -241.557)" fill="none" stroke="#fff" stroke-linecap="round" stroke-linejoin="round" stroke-width="0.75"/>
          <path id="Path_7377" data-name="Path 7377" d="M266.137,282.346s13.946,8.717,39.227-2.615c12.673-5.682,16.365-18.375,16.894-29.621" transform="translate(-205.989 -229.172)" fill="none" stroke="#fff" stroke-linecap="round" stroke-linejoin="round" stroke-width="0.75"/>
        </g>
      </g>
      <g id="Group_2684" data-name="Group 2684" transform="translate(111.701 63.709)">
        <path id="Path_7378" data-name="Path 7378" d="M324.027,237.672c-24,3.9-48.789,13.687-48.789,13.687s-8.5,5.518-19.388,12.9c3.99,10.994,15,31.709,41.79,33.944C327.1,300.652,336.395,264.728,324.027,237.672Z" transform="translate(-255.85 -237.672)" fill="#fff"/>
        <g id="Group_2683" data-name="Group 2683" clip-path="url(#clip-path-4)">
          <path id="Path_7379" data-name="Path 7379" d="M324.027,237.672c-24,3.9-48.789,13.687-48.789,13.687s-8.5,5.518-19.388,12.9c3.99,10.994,15,31.709,41.79,33.944C327.1,300.652,336.395,264.728,324.027,237.672Z" transform="translate(-255.85 -237.672)" fill="none"/>
          <path id="Path_7380" data-name="Path 7380" d="M324.027,237.672c-24,3.9-48.789,13.687-48.789,13.687s-8.5,5.518-19.388,12.9c3.99,10.994,15,31.709,41.79,33.944C327.1,300.652,336.395,264.728,324.027,237.672Z" transform="translate(-255.85 -237.672)" fill="none" opacity="0.5"/>
        </g>
        <path id="Path_7382" data-name="Path 7382" d="M324.027,237.672c-24,3.9-48.789,13.687-48.789,13.687s-8.5,5.518-19.388,12.9c3.99,10.994,15,31.709,41.79,33.944C327.1,300.652,336.395,264.728,324.027,237.672Z" transform="translate(-255.85 -237.672)" fill="none" stroke="#263238" stroke-linecap="round" stroke-linejoin="round" stroke-width="1"/>
      </g>
      <path id="Path_7383" data-name="Path 7383" d="M258.855,242.461s-9.028-5.266-9.028,3.76,4.514,15.046,11.285,15.046S258.855,242.461,258.855,242.461Z" transform="translate(-152.871 -169.239)" fill="#fff" stroke="#263238" stroke-linecap="round" stroke-linejoin="round" stroke-width="1"/>
      <path id="Path_7384" data-name="Path 7384" d="M277.541,238.98s6.989-7.77,9.746.825.294,15.706-6.152,17.773S277.541,238.98,277.541,238.98Z" transform="translate(-113.651 -176.733)" fill="#fff" stroke="#263238" stroke-linecap="round" stroke-linejoin="round" stroke-width="1"/>
      <g id="Group_2688" data-name="Group 2688" transform="translate(101.47 52.995)">
        <g id="Group_2686" data-name="Group 2686">
          <path id="Path_7385" data-name="Path 7385" d="M251.671,244.495s7.523,29.34,12.788,38.368,22.568,23.32,32.348,21.063,18.054-15.8,20.311-29.34-1.506-40.623-1.506-40.623-23.32-1.5-38.365,0A50.844,50.844,0,0,0,251.671,244.495Z" transform="translate(-251.671 -233.295)" fill="#fff"/>
          <g id="Group_2685" data-name="Group 2685" clip-path="url(#clip-path-5)">
            <path id="Path_7386" data-name="Path 7386" d="M315.613,233.963s-23.32-1.5-38.365,0a50.844,50.844,0,0,0-25.577,10.531s1.687,6.563,4.012,14.421c13.1-2.974,38.385-8.039,61.592-8.835C316.617,241.217,315.613,233.963,315.613,233.963Z" transform="translate(-251.671 -233.295)" fill="#d9ffe4"/>
            <path id="Path_7387" data-name="Path 7387" d="M315.613,233.963s-23.32-1.5-38.365,0a50.844,50.844,0,0,0-25.577,10.531s1.687,6.563,4.012,14.421c13.1-2.974,38.385-8.039,61.592-8.835C316.617,241.217,315.613,233.963,315.613,233.963Z" transform="translate(-251.671 -233.295)" fill="none" opacity="0.5"/>
          </g>
          <path id="Path_7389" data-name="Path 7389" d="M251.671,244.495s7.523,29.34,12.788,38.368,22.568,23.32,32.348,21.063,18.054-15.8,20.311-29.34-1.506-40.623-1.506-40.623-23.32-1.5-38.365,0A50.844,50.844,0,0,0,251.671,244.495Z" transform="translate(-251.671 -233.295)" fill="none" stroke="#263238" stroke-linecap="round" stroke-linejoin="round" stroke-width="1"/>
        </g>
        <g id="Group_2687" data-name="Group 2687" transform="translate(15.525 7.531)">
          <path id="Path_7390" data-name="Path 7390" d="M264.518,244.108c.272,2.086-.419,3.9-1.542,4.042s-2.255-1.425-2.526-3.513.419-3.895,1.542-4.042S264.246,242.022,264.518,244.108Z" transform="translate(-254.571 -230.27)" fill="#263238"/>
          <path id="Path_7391" data-name="Path 7391" d="M272.778,243.031c.272,2.086-.419,3.895-1.542,4.042s-2.255-1.427-2.526-3.513.419-3.9,1.542-4.042S272.506,240.942,272.778,243.031Z" transform="translate(-242.61 -231.83)" fill="#263238"/>
          <path id="Path_7392" data-name="Path 7392" d="M266.392,241.055s0,5.276,1.76,8.791,5.861,1.758,5.861,4.688-6.448,5.863-6.448,5.863" transform="translate(-245.88 -229.59)" fill="#fff" stroke="#263238" stroke-linecap="round" stroke-linejoin="round" stroke-width="1"/>
          <path id="Path_7393" data-name="Path 7393" d="M263.28,254.016s10.551,7.621,18.754-4.1" transform="translate(-250.386 -216.764)" fill="#fff" stroke="#263238" stroke-linecap="round" stroke-linejoin="round" stroke-width="1"/>
          <line id="Line_93" data-name="Line 93" y1="1.172" x2="11.722" transform="translate(0 6.19)" fill="#fff" stroke="#263238" stroke-linecap="round" stroke-linejoin="round" stroke-width="1"/>
          <path id="Path_7394" data-name="Path 7394" d="M266.632,240.8s1.173-5.861,8.791-4.1" transform="translate(-245.532 -236.372)" fill="#fff" stroke="#263238" stroke-linecap="round" stroke-linejoin="round" stroke-width="1"/>
        </g>
      </g>
      <path id="Path_7395" data-name="Path 7395" d="M250.085,267.567s-2.965-28.676,1.55-40.713,29.584-17.9,47.492-14.013c16.189,3.52,20.921,32.157,21.672,44.946Z" transform="translate(-153.881 -211.647)" fill="#fff" stroke="#263238" stroke-linecap="round" stroke-linejoin="round" stroke-width="1"/>
      <path id="Path_7396" data-name="Path 7396" d="M252.368,240.675s-7.523,5.266-3.76,9.78,24.823-8.274,42.126-8.274,36.108,1.5,37.614-4.514-5.266-6.771-5.266-6.771S280.2,226.383,252.368,240.675Z" transform="translate(-156.163 -184.755)" fill="#92e3a9" stroke="#263238" stroke-linecap="round" stroke-linejoin="round" stroke-width="1"/>
      <path id="Path_7397" data-name="Path 7397" d="M268.97,464.391H354.5s-10.26-10.145-39.347-9.924C275.812,454.768,268.97,464.391,268.97,464.391Z" transform="translate(-125.151 139.957)" fill="#263238" stroke="#263238" stroke-linecap="round" stroke-linejoin="round" stroke-width="1"/>
    </g>
  </g>
</svg>
