<svg xmlns="http://www.w3.org/2000/svg" xmlns:xlink="http://www.w3.org/1999/xlink" width="853.542" height="245.779" xmlns:v="https://vecta.io/nano"><style><![CDATA[.B{fill:#331832}.C{fill:#ffb27d}.D{fill:#5c305d}.E{fill:#080435}.F{fill:#764678}.G{fill:#dd8d5a}]]></style><path d="M853.042 95.098H107.693v-2.5h745.349v2.5z" stroke="rgba(0,0,0,0)" stroke-miterlimit="10" class="B"/><path d="M247.961 87.856s10.539 4.559 9.6 5.633-5.358.293-5.358.293zm32.475 6.12c-13.872-15.276-35.36-37.4-45.571-54.344-2.366-3.926-15.164 3.886-12.6 8.3 8.914 15.35 22.148 34.579 47.792 51.567z" class="C"/><path d="M202.97 10.079s.12 6.348-8.1 7.312-6.91 5.64-5.454 8.186-9.07-2.968-19.733 5.37 3.642 18.187 11.834 17.629 39.433-5.24 41.095-7.47 4.173-8.482.133-9.635c-7.232-2.064 2.126-7.145-2.466-10.051S202.97 10.079 202.97 10.079zm72.679 190.158s6.212 8.834 9.267 10.347 12.079 3.287 8.484 6.05c-2.063 1.585-11.186-.119-13.782-.288s-5.274.953-6.924-1.059c-.783-.955-.132-3.611-.777-5.832a36.84 36.84 0 0 0-3.275-7.432s.45-4.89 2.468-4.811c2.91.114 4.539 3.025 4.539 3.025zm-18.684 6.625s6.212 8.834 9.267 10.347 12.079 3.287 8.485 6.05c-2.063 1.585-11.186-.12-13.782-.288s-5.274.953-6.924-1.06c-.783-.955-.132-3.61-.777-5.831a36.84 36.84 0 0 0-3.275-7.432s.45-4.89 2.468-4.811c2.909.114 4.538 3.025 4.538 3.025zm-66.673-97.823c1.39 3.454 15.251 5.149 30.554-1.118s27.077-12.231 25.687-15.685-15.416-3.089-30.72 3.178-26.91 10.171-25.521 13.625z" class="B"/><g fill="#ef8062"><path d="M190.982 45.82s3.613-13.438 20.21-14.15c7.843-.337 19.891 3.93 21.668 10.012 3.614 12.363 10.093 26.034 13.673 50.557 0 0-27.755-1.774-56.242 16.8-.324-1.372-9.8-36.448-8.39-57.448.407-6.038 7.815-1.462 9.081-5.771z"/><path d="M181.758 57.736l8.746 1.2s35.013 1.912 40.12-4.448a19.9 19.9 0 0 0 4.179-16.622c0 0-11.5-12.613-26.71-5.616-2.244 1.032-5.42 1.045-7.8 1.535-22.025 4.53-18.535 23.951-18.535 23.951z"/></g><path d="M214.022 37.438c-4.965 1.988-13.738-3.657-13.731-3.657 2.206-.962 4.607-1.944 5.561-3.788l2.895-5.636.084-.159.107-.211.759-1.471 5.085-9.883-1.487 10.5-.243 1.71-.123.851a14.58 14.58 0 0 0 .274 2.631c.2.934.556 1.789 1.169 1.944 0 .006 5.529 4.819-.35 7.169z" class="C"/><path d="M213.204 28.326a8.6 8.6 0 0 1-4.457-3.967l.084-.159.107-.211 4.114.859-.123.851c.012.882.104 1.761.275 2.627z" fill="#e59361"/><path d="M202.97 10.079s.289 1.76-.95 5.242c-1.814 5.094 3.973 7.669 5.594 6.292.2-.171.558-9.022.558-9.022l-1.82-1.258z" class="B"/><path d="M225.059 15.038c.464-6.756-3.6-12.539-9.075-12.915s-10.292 4.8-10.757 11.552 3.6 12.539 9.075 12.915 10.291-4.795 10.757-11.552z" class="C"/><g class="B"><path d="M219.715 5.237c-.3.357.827 6.758-10.935 7.459S204.993-.267 213.618.005c12.454.392 13.688 8.868 12.288 11.792s-6.191-6.56-6.191-6.56z"/><path d="M210.202 10.781s-5.109 4.7-3.81 9.944c0 0-2.556-3.209-2.54-4.341.239-1.736.583-3.456 1.03-5.151z"/></g><path d="M206.426 15.612c1.049 1.149 2.612 1.368 3.491.486.865-1.121.73-2.717-.31-3.677-1.049-1.149-2.612-1.368-3.491-.486-.865 1.121-.73 2.717.31 3.677z" class="C"/><path d="M215.793 15.231c.092.031.194.001.253-.077s.062-.184.007-.264a2.45 2.45 0 0 0-2.795-1.088c-.121.028-.197.148-.171.27.036.115.15.187.27.171a3.87 3.87 0 0 1 2.322.9c.027.041.067.072.114.088zm-2.238 1.547c-.054.537.218 1 .607 1.043s.749-.364.8-.9-.218-1-.607-1.043-.746.363-.8.9zm9.559-1.307c.096-.016.171-.091.187-.187s-.032-.191-.118-.236c-.957-.576-2.182-.431-2.978.352-.094.082-.104.224-.024.319.086.085.221.095.319.024a3.87 3.87 0 0 1 2.473-.295c.043.023.093.031.141.023zm-2.428 1.814c-.275.379-.203.908.164 1.2.345.185.831-.052 1.086-.527.275-.379.203-.908-.164-1.2-.345-.185-.831.052-1.086.527z" class="E"/><path d="M189.083 24.657l.321-.543c-.344-.27-1.07-3.06-.228-5.262.747-1.955 2.443-2.859 5.041-2.687 7.7.511 9.386-5.718 9.4-5.782l-.611-.156c-.061.236-1.578 5.784-8.749 5.308-3.829-.254-5.266 1.737-5.8 3.451-.726 2.362-.018 5.29.626 5.671z" class="B"/><path d="M217.538 23.211a.2.2 0 0 1-.168-.092c-1.034-1.629-4.289-2.193-4.322-2.2a.2.2 0 0 1 .066-.392c.141.024 3.464.6 4.592 2.378a.2.2 0 0 1-.168.306z" class="E"/><g fill="#73b3ce"><path d="M246.518 97.815c3.78 8.111 8.386 18.778 13.432 32.126 9.667 25.569 18.739 51.723 23.036 64.291 1.56 4.43-.12 9.352-4.062 11.905l-2.108 1.34a8.53 8.53 0 0 1-12.191-3.6l-38.823-79.367-7.2-14.071s21.667-26.038 27.916-12.624z"/><path d="M245.468 96.091c1.626 8.8-11.362 30.134-6.315 43.482 9.667 25.569 18.738 51.723 23.035 64.291a10.16 10.16 0 0 1-4.062 11.9l-2.108 1.341a8.53 8.53 0 0 1-12.191-3.6l-49.532-102.077s49.513-24.317 51.173-15.337z"/></g><path d="M256.613 188.039c-.123 0-.233-.076-.276-.191-.9-2.4-21.958-58.805-23.015-64.984-1.067-6.242 2.361-13.538 2.507-13.846.07-.147.246-.209.392-.139s.209.246.14.392c-.035.074-3.493 7.438-2.458 13.494 1.047 6.124 22.767 64.29 22.986 64.876.027.073.025.154-.008.225s-.092.126-.165.154c-.033.013-.068.019-.103.019z" fill="#020202"/><path d="M393.056 93.928c-8.754-11.086-22.195-26.332-36.515-36.01a48.17 48.17 0 0 0-6.734-4.075c-1.7-.826-2.187-4.765-.806-7.695 1.3-2.748 4.812-4.729 5.777-4.416 1.641.532 4.015 2.056 7.753 4.5 12.989 8.474 27.462 24.175 41.643 43.147z" class="C"/><path d="M325.243 119.899c.781 2.034 13.483-1.552 28.666-7.474s26.7-12.4 25.919-14.43-13.562 1.141-28.745 7.063-26.62 12.806-25.84 14.841z" class="B"/><g fill="#366f90"><path d="M308.39 60.448s-1.1-11.724 18.9-18.934c28.83-10.4 35.566 17.091 52.54 56.48 0 0-31.778 3.1-54.585 21.9-.002.004-17.293-40.781-16.855-59.446z"/><path d="M302.565 65.353l13.539-1.227s29.568-7.555 36.728-11.5 7.267-10.273 7.267-10.273a44.47 44.47 0 0 0-25.63-2.865 44.45 44.45 0 0 0-4.188.969 50 50 0 0 0-6.909 2.606c-21.434 9.679-20.807 22.29-20.807 22.29z"/></g><path d="M323.66 40.027l-.218-5.416-.064-1.577-.374-9.271 3.287 8.188 1.972 4.915.624 1.556a3.41 3.41 0 0 0 2.443 2.318c.953.173 3.167 1.2 1.194 3.064-2.458 2.321-8.622 2.236-11.6.417 1.619-.782 2.673-2.397 2.736-4.194z" class="C"/><path d="M302.67 66.633c.883 2.507 6.067 3.893 11.076 2.184s7.946-5.867 7.063-8.374-5.66-3.154-10.669-1.445-8.353 5.127-7.47 7.635z" class="B"/><path d="M335.246 21.375c.317 1.598.295 3.245-.065 4.834-.6 2.682-3.242-3.965-3.242-3.965z" class="D"/><ellipse cx="7.876" cy="9.497" rx="7.876" ry="9.497" transform="matrix(.993 -.117 .117 .993 318.741 19.398)" class="C"/><use xlink:href="#B" class="B"/><g class="E"><path d="M328.093 27.518a.16.16 0 0 0 .074-.172c-.015-.067-.072-.117-.141-.123a1.73 1.73 0 0 0-1.854 1.022.16.16 0 0 0 .069.215c.079.033.169.004.215-.068a2.73 2.73 0 0 1 1.539-.851.16.16 0 0 0 .098-.023zm-.72 2.038c.095.369.389.612.657.543a.62.62 0 0 0 .312-.794c-.1-.369-.389-.612-.657-.542a.62.62 0 0 0-.312.793z"/><use xlink:href="#C"/><path d="M332.527 28.739c-.052.378.127.714.4.752s.539-.237.591-.614-.127-.714-.4-.752-.538.237-.591.614z"/></g><path d="M314.638 26.293s2.556 5.717 6.283 6.184c0 0-2.961-4.37 3.438-6.923 0 .001-5.829-.999-9.721.739z" class="D"/><use xlink:href="#D" class="C"/><path d="M324.358 25.553s-.574 4.761.385 5.675 7.36 1.388 10.366.273h0a6.23 6.23 0 0 1-5.212 6.2 9.05 9.05 0 0 1-3.059-.052h0c-2.088-.394-4.112-1.287-4.949-3.24-.255-.594.558-4.219.558-4.219s.316-2.129-.91-3.256a6.08 6.08 0 0 1 2.821-1.381z" class="D"/><path d="M334.429 14.807a1.2 1.2 0 0 1-1.3-1.048l.214-.016c.036.261.174.498.385.657s.476.228.737.192v.215z" class="B"/><path d="M332.176 21.654l-.028-.1a14.2 14.2 0 0 0 2.466-.988c1.13-.59 2.5-1.563 2.624-2.846a1.62 1.62 0 0 0-.338-1.42c-.469-.415-1.336-.225-2.1-.057l-.343.073-.021-.105.342-.073c.79-.173 1.685-.369 2.2.082.359.415.498.977.373 1.511-.244 2.534-4.974 3.867-5.175 3.923zm-9.237-5.128c-.525-.001-1.049-.041-1.568-.119l.016-.107c4.667.7 6.957-1.9 6.979-1.929l.082.07a7.49 7.49 0 0 1-5.509 2.085z" fill="#fff"/><path d="M328.622 34.893c-.109 0-.2-.084-.208-.193s.07-.205.179-.221c1.467-.204 2.883-.683 4.172-1.413.093-.068.223-.049.291.044s.049.223-.044.291a11.91 11.91 0 0 1-4.36 1.489z" class="C"/><path d="M412.594 200.716s.149 4 2.87 5.094 10.576 2.016 7.678 4.624c-1.663 1.497-9.6.641-11.836.67s-4.326 1.029-6.01-.45c-1.85-1.624-.121-9.848-.121-9.848 1.147.565 2.401.877 3.679.915 1.316.017 2.61-.33 3.741-1.004z" class="B"/><path d="M376.267 101.093s.307 1.359 12.482 33.949l22.3 59.267c1.513 4.085.027 8.675-3.592 11.1l-1.934 1.273a7.91 7.91 0 0 1-11.355-3.163l-37.157-73.015-9.669-18.191z" class="F"/><path d="M349.06 195.466s5.673 12.781 3.438 15.1-9.694 6.771-5.617 8.083c2.339.753 9.909-3.669 12.164-4.646s5.038-.817 5.819-3.148c.71-2.118-4.274-5.94-4.8-8.06-1.2-4.818-1.956-5.423-1.956-5.423s-2.014-6.724-3.783-6.011c-2.549 1.027-5.265 4.105-5.265 4.105z" class="B"/><path d="M376.267 101.093c-2.54-2.989-45.5 15.361-47.642 19.246l-2.724 26.311c-1.421 15.543 4.532 25.209 4.532 25.209h0c4.221 9.253 8.932 18.275 14.114 27.026 2.493 4.29 7.983 5.759 12.285 3.288l.539-.31a9.15 9.15 0 0 0 4.3-10.23l-9.314-31.313c-1.112-3.74-.825-7.756.806-11.3l14.084-30.6c.499-1.105 9.792-16.419 9.02-17.327z" class="F"/><path d="M359.081 135.029c-5.9-11.592-13.387-14.335-13.462-14.362l.138-.393c.076.027 7.714 2.812 13.7 14.566zm-255.018 60.437s-5.673 12.781-3.438 15.1 9.694 6.771 5.617 8.083c-2.339.753-9.909-3.669-12.164-4.646s-5.038-.817-5.819-3.148c-.71-2.118 4.274-5.94 4.8-8.06 1.2-4.818 1.956-5.423 1.956-5.423s2.014-6.724 3.784-6.011c2.552 1.027 5.264 4.105 5.264 4.105zm56.566-4.825s.384 13.978 3.4 15.109 11.664 1.936 8.55 4.876c-1.787 1.687-10.523.955-12.979 1.044s-4.9 1.432-6.608-.334c-1.553-1.606 1.3-7.2.863-9.342-.991-4.865-.57-5.737-.57-5.737s-1.078-6.936.826-7.054c2.745-.172 6.518 1.438 6.518 1.438z" class="B"/><path d="M167.341 158.225h0c.139-8.411-1.937-15.247-6.829-21.616l-31.466-40.967c-3.608-2.583-13.153 18.358-17.007 27.458-.465 1.1-1.925 5.052-1 5.837l27.82 22.354a13.21 13.21 0 0 1 4.843 8.73l3.9 32.59a9.15 9.15 0 0 0 8.282 7.383l.62.048a9.01 9.01 0 0 0 9.671-8.24c.746-9.041 1.655-23.139 1.166-33.577z" class="F"/><path d="M152.221 94.267c-8.011-13.33-20.327-27.758-35.108-36.716a48.17 48.17 0 0 0-6.927-3.738c-1.742-.74-2.419-4.651-1.185-7.645 1.158-2.809 4.572-4.962 5.551-4.7 1.665.451 4.111 1.855 7.966 4.107 13.392 7.822 25.7 18.378 41.8 44.079z" class="C"/><path d="M85.564 119.899c.78 2.034 13.483-1.552 28.666-7.474s26.7-12.4 25.918-14.43-13.561 1.141-28.745 7.063-26.62 12.806-25.839 14.841z" class="B"/><g fill="#92bcb5"><path d="M68.717 60.448s-1.1-11.723 18.892-18.934c28.83-10.4 35.566 17.091 52.54 56.48 0 0-29.88 6.064-54.778 21.4 0 .004-17.098-40.281-16.654-58.946z"/><path d="M61.719 65.542l14.706-1.417s29.568-7.555 36.728-11.5 7.267-10.273 7.267-10.273a44.47 44.47 0 0 0-25.63-2.865 44.45 44.45 0 0 0-4.188.969 48.87 48.87 0 0 0-6.909 2.606c-21.468 9.784-21.974 22.48-21.974 22.48z"/></g><path d="M83.981 40.027l-.218-5.416-.064-1.577-.374-9.271 3.287 8.188 1.972 4.915.624 1.556a5.67 5.67 0 0 0 2.356 2.769c.456.263 3.254.75 1.281 2.613-2.458 2.321-8.6 2.3-11.573.483.015-.008 2.779-2.509 2.709-4.26z" class="C"/><path d="M61.778 67.779c1.06 2.9 5.92 3.828 10.856 2.066s8.078-5.543 7.018-8.446-5.92-3.828-10.856-2.066-8.077 5.543-7.018 8.446z" class="B"/><path d="M95.566 21.375a11.64 11.64 0 0 1-.065 4.834c-.6 2.682-3.242-3.965-3.242-3.965z" class="D"/><ellipse cx="7.876" cy="9.497" rx="7.876" ry="9.497" transform="matrix(.9932 -.116844 .116844 .9932 79.062 19.398)" class="C"/><use xlink:href="#B" x="-239.675" class="B"/><g class="E"><path d="M88.414 27.518a.16.16 0 0 0-.068-.295 1.73 1.73 0 0 0-1.854 1.022.16.16 0 0 0 .069.215c.079.033.169.004.215-.068a2.73 2.73 0 0 1 1.54-.851.16.16 0 0 0 .098-.023zm-.72 2.038c.1.369.389.612.657.543a.62.62 0 0 0 .312-.794c-.095-.369-.389-.612-.657-.542a.62.62 0 0 0-.312.793z"/><use xlink:href="#C" x="-239.679"/><path d="M92.848 28.739c-.052.378.127.714.4.752s.539-.237.591-.614-.127-.714-.4-.752-.539.237-.591.614z"/></g><path d="M74.959 26.293s2.556 5.717 6.283 6.184c0 0-2.96-4.37 3.438-6.923 0 .001-5.829-.999-9.721.739z" class="D"/><use xlink:href="#D" x="-239.679" class="C"/><path d="M94.751 14.807a1.2 1.2 0 0 1-1.3-1.047l.214-.017c.033.263.171.501.382.661s.478.228.74.188v.215z" class="B"/><path d="M92.498 21.654l-.029-.1a14.23 14.23 0 0 0 2.466-.988c1.13-.59 2.5-1.563 2.624-2.846a1.62 1.62 0 0 0-.338-1.42c-.469-.415-1.336-.225-2.1-.057l-.343.073-.021-.105.342-.073c.79-.173 1.685-.369 2.2.082.359.415.498.977.373 1.511-.244 2.534-4.973 3.867-5.174 3.923zm-9.237-5.128a10.64 10.64 0 0 1-1.568-.119l.016-.107c4.667.7 6.957-1.9 6.979-1.929l.082.07a7.49 7.49 0 0 1-5.509 2.085z" fill="#fff"/><path d="M91.868 33.499a.2.2 0 0 1-.089-.02c-2.636-1.244-4.281-.588-4.3-.582-.105.041-.224-.009-.267-.113s.003-.224.105-.27c.073-.031 1.818-.741 4.637.589.093.039.146.139.124.237s-.112.167-.213.163z" class="B"/><g class="F"><path d="M127.227 146.651l-8.706-38.455c-2.144-3.885-32.25 11.148-31.749 12.256l12.8 29.246c1.314 3.002 1.581 6.358.758 9.53l-8.872 34.2a9.15 9.15 0 0 0 4.3 10.23l.539.31c4.298 2.472 9.786 1.006 12.28-3.279a310 310 0 0 0 14.814-28.186h0c6.669-13.43 5.508-17.996 3.836-25.852z"/><path d="M105.144 110.969s19.989-8.084 29.042-8.636l4.18 5.442-13.546 5.45-8.632.208z"/></g><path d="M125.921 141.188a.3.3 0 0 1-.284-.214c-.045-.158-4.477-15.838-5.89-19.529-1.469-3.833 1.618-9.236 1.75-9.464.083-.141.264-.188.405-.105s.188.264.105.405c-.031.053-3.078 5.389-1.711 8.958 1.423 3.715 5.863 19.42 5.907 19.579a.3.3 0 0 1-.282.37z" fill="#020202"/><g class="C"><path d="M273.582 100.062s-3.369 1.13-4.378-1.953c-1.286-3.927-1.747-6.088.6-6.026 1.472.039 2.084 3.057 2.084 3.057s-.453-4.212 1.381-3.747 2.111 3.441 2.111 3.441-.106-3.822 1.739-3.467c1.131.218 1.993 3.326 1.993 3.326s-.8-3.236 1.319-2.7c.823.208 1.438 2.6 1.562 4.484.117 1.784-1 2.438-2.724 2.427-.86.515-1.855.759-2.856.7-.432-.112-.826.318-1.136.375-.562.071-1.129.098-1.695.083zm-23.454-11.23c-13.571-6.1-33.77-18.767-46.867-33.592a55.13 55.13 0 0 1-5.619-7.042c-1.188-1.811-5.731-1.778-8.852.221-2.928 1.876-4.2 5.523-3.188 7.965.758 1.824 1.954 3.5 5.274 7.379 11.534 13.492 22.567 20.3 50.852 32.385z"/><path d="M242.166 85.299c13.161 4.274 19.143 16.551 11.241 10.542.335.438 1.365 2.194.491 2.576-.973.426-2.674-.219-4.12-1.562-.014.012-.674-.716-.688-.7 1.355 1.49 1.763 2.681.722 3.045-1.408.493-3.353-1.5-3.353-1.5s.757 2.352-1.447 1.682c-2.65-1.469-5.17-3.162-7.532-5.061l1.3-2.439c-1.039-1.643-.796-3.787.584-5.156 1.521-1.618 1.995-1.689 2.802-1.427z"/></g><path d="M201.275 47.433s-1.792 12-16.1 13.034c0 0-4.2-12.14 1.4-15.388s14.7 2.354 14.7 2.354z" fill="#ef8062"/><path d="M277.041 90.263c1.969.514 3.825 1.388 5.475 2.579 2.081 1.722 4.3 3.668 2.22 3.737s-8.046-1.734-8.046-1.734z" class="C"/><g class="G"><path d="M271.689 95.187c-.379-1.632-.911-2.641-1.58-3-.347-.181-.758-.193-1.116-.034-.676.256-.588 1.236-.587 1.246l-.414.043c-.006-.053-.124-1.308.854-1.677a1.7 1.7 0 0 1 1.459.056c1.176.628 1.638 2.618 1.79 3.271z"/><path d="M271.69 95.189c-.023-.093-.542-2.292.206-3.361a1.32 1.32 0 0 1 .973-.572c1.4-.157 2.313.942 2.721 3.271l-.41.072c-.547-3.124-1.84-2.977-2.264-2.928-.275.023-.525.17-.678.4-.641.915-.148 3-.143 3.025z"/><path d="M281.798 96.236c-.159-1.917-1.527-4.068-2.433-4.276a.2.2 0 0 0-.2.042c-.347.308-.349 1.643-.268 2.412l-.41.067c-.169-.76-.851-2.929-1.733-2.93-.951 0-1.166 2.43-1.167 3.282h-.416c.007-.599.066-1.197.176-1.786.25-1.269.724-1.912 1.407-1.912h0c.79 0 1.353.963 1.7 1.847a2.03 2.03 0 0 1 .43-1.291c.153-.138.366-.189.565-.137 1.174.268 2.59 2.657 2.755 4.647z"/></g><g class="C"><path d="M365.304 87.773c-13-5.53-29.558-10.1-42.662-21.372a48.18 48.18 0 0 1-5.7-5.425c-1.244-1.426-5.172-.856-7.635 1.246-2.311 1.973-3.3 5.886-2.742 6.734.946 1.443 3.04 3.333 6.377 6.3 11.592 10.3 25.726 16.5 49.159 21.769z"/><path d="M363.121 86.731s18.612 4.666 17.575 6.011-6.355.731-6.355.731z"/><path d="M361.345 86.229c15.965 4.146 26.739 13.956 14.573 9.61.43.5 1.78 2.513.768 3.03-1.127.577-3.2-.07-5.015-1.564-.016.015-.852-.8-.868-.789 1.718 1.676 2.289 3.064 1.077 3.572-1.64.687-4.1-1.549-4.1-1.549s1.068 2.745-1.6 2.1a63.31 63.31 0 0 1-9.324-5.485s3.511-9.179 4.489-8.925zm35.779 13.187s-4.074 1.366-5.294-2.361c-1.555-4.748-2.112-7.361.731-7.286 1.78.046 2.52 3.7 2.52 3.7s-.547-5.092 1.67-4.53 2.552 4.16 2.552 4.16-.128-4.621 2.1-4.191c1.368.264 2.076 3.531 2.076 3.531s-.631-3.423 1.928-2.776c1 .251 1.739 3.138 1.889 5.421.142 2.157-1.2 2.948-3.294 2.935 0 0-2.089 1.2-3.453.845-.523-.135-1 .384-1.374.454-.68.085-1.366.117-2.051.098z"/></g><g class="G"><path d="M394.837 93.521c-.459-1.973-1.1-3.193-1.911-3.625a1.56 1.56 0 0 0-1.349-.042c-.823.312-.71 1.494-.709 1.506l-.5.052c-.007-.064-.15-1.581 1.032-2.028.568-.244 1.216-.219 1.764.068 1.421.759 1.981 3.165 2.164 3.955z"/><path d="M394.837 93.523c-.027-.112-.656-2.771.249-4.064a1.6 1.6 0 0 1 1.176-.692c1.692-.19 2.8 1.139 3.289 3.955l-.5.087c-.661-3.778-2.223-3.6-2.737-3.542a1.1 1.1 0 0 0-.82.479c-.775 1.107-.179 3.633-.173 3.658z"/><path d="M407.06 94.795c-.192-2.318-1.847-4.919-2.942-5.17-.082-.026-.172-.006-.236.052-.42.372-.421 1.986-.324 2.916l-.5.081c-.205-.919-1.029-3.542-2.1-3.542-.688 0-1.036 1.037-1.208 1.906a12.24 12.24 0 0 0-.2 2.061h-.5c.009-.724.08-1.446.213-2.158.3-1.534.875-2.313 1.7-2.313h0c.955 0 1.636 1.165 2.061 2.233-.011-.564.173-1.115.521-1.56.185-.166.441-.228.682-.166 1.42.325 3.132 3.213 3.331 5.619z"/></g><g class="C"><path d="M160.427 86.92c1.739.696 3.425 1.518 5.044 2.46 2.871 1.678 5.1 3.813 2.9 4.152s-7.7-1.822-7.7-1.822z"/><path d="M156.033 99.416s-4.073 1.366-5.294-2.361c-1.555-4.748-2.113-7.361.73-7.286 1.779.046 2.52 3.7 2.52 3.7s-.547-5.092 1.671-4.53 2.552 4.16 2.552 4.16-.128-4.621 2.1-4.191c1.368.264 2.076 3.531 2.076 3.531s-.631-3.423 1.928-2.776c1 .251 1.739 3.138 1.889 5.421.142 2.157-1.2 2.948-3.294 2.935 0 0-2.089 1.2-3.453.845-.523-.135-1 .384-1.374.454-.68.085-1.366.117-2.051.098z"/></g><g class="G"><path d="M153.746 93.521c-.458-1.973-1.1-3.192-1.911-3.625a1.56 1.56 0 0 0-1.349-.042c-.818.31-.711 1.494-.709 1.506l-.5.051c-.007-.064-.15-1.581 1.032-2.028a2.06 2.06 0 0 1 1.764.068c1.422.76 1.98 3.165 2.164 3.955z"/><path d="M153.746 93.523c-.027-.112-.655-2.771.249-4.064a1.6 1.6 0 0 1 1.176-.692c1.69-.19 2.8 1.14 3.29 3.955l-.5.087c-.661-3.778-2.225-3.6-2.737-3.542a1.1 1.1 0 0 0-.82.48c-.776 1.109-.179 3.632-.173 3.657z"/><path d="M165.969 94.795c-.192-2.318-1.847-4.919-2.942-5.17-.082-.026-.172-.006-.236.052-.42.372-.422 1.986-.324 2.916l-.5.081c-.2-.919-1.029-3.542-2.1-3.542-.688 0-1.036 1.037-1.208 1.906a12.24 12.24 0 0 0-.2 2.061h-.5a12.6 12.6 0 0 1 .212-2.158c.3-1.534.875-2.313 1.7-2.313h0c.955 0 1.637 1.165 2.061 2.233-.011-.564.173-1.115.521-1.56.185-.166.441-.228.682-.166 1.42.325 3.132 3.213 3.331 5.619z"/></g><g class="C"><path d="M122.845 87.719c-13-5.53-29.559-10.1-42.662-21.372a48.15 48.15 0 0 1-5.7-5.425c-1.244-1.426-5.172-.856-7.636 1.247-2.311 1.972-3.3 5.886-2.741 6.735.946 1.443 3.04 3.332 6.376 6.3 11.592 10.3 25.726 16.5 49.159 21.769z"/><path d="M120.662 86.676s18.612 4.667 17.575 6.011-6.355.731-6.355.731z"/><path d="M118.886 86.173c15.965 4.146 26.739 13.957 14.573 9.61.43.5 1.78 2.513.768 3.031-1.128.577-3.2-.071-5.014-1.564-.016.015-.853-.8-.868-.789 1.718 1.676 2.289 3.064 1.077 3.571-1.64.687-4.1-1.549-4.1-1.549s1.069 2.745-1.6 2.1c-3.259-1.559-6.378-3.394-9.324-5.485 0 0 3.51-9.179 4.488-8.925z"/></g><path d="M49.173 245.78c-38.59-1.169-47.981-7.489-49.064-12.584-1.391-6.546 10.583-13.928 32.029-19.749 14.164-3.844 23.168-13.568 27.527-29.729 3.791-14.058 3.355-30.612 3-43.913-.153-5.788-.3-11.255-.065-15.657.55-10.493 9.14-19.066 24.838-24.794 7.59-2.695 15.456-4.535 23.454-5.486l.46 2.474a105.87 105.87 0 0 0-22.491 5.278c-14.679 5.373-22.378 12.985-22.884 22.625-.227 4.33-.084 9.762.068 15.512.354 13.422.794 30.126-3.069 44.45-4.608 17.084-14.315 27.416-29.676 31.584-19.224 5.218-30.943 11.9-29.855 17.019 1.216 5.727 18.361 9.643 45.861 10.476z" class="B"/><defs ><path id="B" d="M319.69 26.109l3.817-.344c.841-.07 1.605-.519 2.075-1.22.8-1.212 1.746-1.827 5.3-1.646 4.5.23 7.51-2.415 8.028-4.764.529-2.4-1.753-4.059-4.031-2.943s-1.269-1.683-3.439-2.01c-4.057-.612-4.86 2.51-8.186 2.364-4.361-.192-12.221 3.018-8.617 10.748z"/><path id="C" d="M334.005 27.122c.041-.008.074-.038.087-.078.029-.077.005-.165-.059-.217a1.12 1.12 0 0 0-1.63.163.19.19 0 0 0-.006.223c.018.029.048.048.082.053s.068-.005.094-.027c.412-.235.903-.286 1.354-.138.022.017.05.024.078.021z"/><path id="D" d="M319.858 29.499a1.54 1.54 0 0 0 2.043-.63 1.54 1.54 0 0 0-.553-2.066 1.54 1.54 0 0 0-2.085.475 1.63 1.63 0 0 0 .594 2.22z"/></defs></svg>