<svg xmlns="http://www.w3.org/2000/svg" xmlns:xlink="http://www.w3.org/1999/xlink" width="929.489" height="242.108" xmlns:v="https://vecta.io/nano"><style><![CDATA[.B{fill:#ffb27d}.C{fill:#331832}.D{fill:#ef8062}.E{fill:#080435}]]></style><path d="M843.809 185.471s5.673 12.781 3.438 15.1-9.693 6.771-5.617 8.083c2.339.753 9.909-3.669 12.164-4.646s5.038-.817 5.819-3.148c.709-2.118-4.274-5.94-4.8-8.06-1.2-4.818-1.956-5.423-1.956-5.423s-2.014-6.724-3.783-6.011c-2.553 1.027-5.265 4.105-5.265 4.105zm-56.566-4.825s-.384 13.978-3.4 15.109-11.665 1.936-8.55 4.876c1.787 1.687 10.523.955 12.979 1.044s4.9 1.432 6.607-.334c1.553-1.606-1.3-7.2-.863-9.342.991-4.865.57-5.737.57-5.737s1.078-6.936-.826-7.054c-2.744-.172-6.517 1.438-6.517 1.438z" class="C"/><path d="M780.532 148.23h0c-.139-8.411 1.937-15.247 6.829-21.616l31.466-40.967c3.608-2.583 13.153 18.358 17.007 27.458.465 1.1 1.925 5.052 1 5.837l-27.82 22.354a13.21 13.21 0 0 0-4.842 8.73l-3.9 32.59a9.15 9.15 0 0 1-8.281 7.383l-.621.048a9.01 9.01 0 0 1-9.671-8.24c-.747-9.041-1.656-23.139-1.167-33.577z" fill="#764678"/><path d="M795.652 84.272c8.011-13.33 20.327-27.758 35.108-36.716 2.203-1.433 4.52-2.683 6.927-3.738 1.742-.74 2.419-4.651 1.186-7.645-1.158-2.809-4.573-4.962-5.552-4.7-1.665.451-4.111 1.855-7.965 4.107-13.392 7.822-25.7 18.378-41.8 44.079z" class="B"/><path d="M862.308 109.904c-.78 2.034-13.483-1.552-28.666-7.474s-26.7-12.4-25.918-14.43 13.562 1.141 28.745 7.063 26.62 12.806 25.839 14.841z" class="C"/><g class="D"><path d="M879.156 50.453s1.1-11.723-18.892-18.934c-28.83-10.4-35.566 17.091-52.54 56.48 0 0 29.88 6.064 54.778 21.4 0 .004 17.098-40.281 16.654-58.946z"/><path d="M886.15 55.547l-14.7-1.42s-29.568-7.555-36.728-11.5-7.267-10.273-7.267-10.273a44.47 44.47 0 0 1 25.63-2.865 44.45 44.45 0 0 1 4.188.969 48.85 48.85 0 0 1 6.909 2.606c21.468 9.787 21.968 22.483 21.968 22.483z"/></g><path d="M863.892 30.032l.218-5.416.064-1.577.374-9.271-3.286 8.188-1.972 4.915-.625 1.556a5.67 5.67 0 0 1-2.356 2.769c-.456.263-3.254.75-1.281 2.613 2.458 2.321 8.6 2.3 11.573.483-.015-.008-2.78-2.509-2.709-4.26z" class="B"/><path d="M886.095 57.784c-1.06 2.9-5.92 3.828-10.856 2.066s-8.078-5.543-7.018-8.446 5.92-3.828 10.856-2.066 8.078 5.543 7.018 8.446z" class="C"/><path d="M852.306 11.38a11.64 11.64 0 0 0 .065 4.834c.6 2.682 3.242-3.965 3.242-3.965z" class="D"/><ellipse cx="9.497" cy="7.876" rx="9.497" ry="7.876" transform="matrix(.1168 -.99315 .99315 .1168 850.947 26.427)" class="B"/><path d="M859.459 17.523a.16.16 0 0 1 .068-.295 1.73 1.73 0 0 1 1.854 1.022.16.16 0 0 1-.069.215c-.079.033-.169.004-.215-.068a2.73 2.73 0 0 0-1.539-.851c-.035.004-.069-.005-.099-.023zm.72 2.038c-.1.369-.389.612-.657.543a.62.62 0 0 1-.312-.794c.095-.369.389-.612.657-.542a.62.62 0 0 1 .312.793zm-6.633-2.434c-.041-.008-.074-.038-.087-.078-.029-.077-.005-.165.059-.217a1.12 1.12 0 0 1 1.63.163.19.19 0 0 1 .006.223c-.018.029-.048.048-.082.053s-.068-.005-.094-.027c-.412-.235-.903-.286-1.354-.138-.022.017-.05.024-.078.021zm1.479 1.617c.052.378-.127.714-.4.752s-.539-.237-.591-.614.127-.714.4-.752.538.237.591.614z" class="E"/><path d="M872.914 16.298s-2.556 5.717-6.284 6.184c0 0 2.96-4.37-3.437-6.923 0 .001 5.829-.999 9.721.739z" class="D"/><use xlink:href="#B" class="B"/><path d="M856.004 23.504c-.101.005-.191-.064-.213-.163s.03-.199.124-.237c2.819-1.33 4.564-.62 4.637-.589.1.048.144.166.102.268s-.158.153-.263.115c-.016-.007-1.661-.662-4.3.582a.2.2 0 0 1-.087.024z" class="C"/><path d="M872.914 16.298s1.042-7.885-3.64-10.59-8.219-2.774-10.3-3.329-4.937-.139-3.786 1.665c0 0-4.884-.139-3.705 2.22 0 0-4.508 1.457-2.5 4.37s5.925 2.358 7.818 1.249 5.106 3.378 6.933 3.908 9.18.507 9.18.507z" class="D"/><g fill="#764678"><path d="M820.646 136.656l8.706-38.455c2.144-3.885 32.25 11.148 31.75 12.256l-12.8 29.246a14.62 14.62 0 0 0-.759 9.53l8.872 34.2a9.15 9.15 0 0 1-4.3 10.23l-.539.31c-4.298 2.472-9.786 1.006-12.28-3.279a309.97 309.97 0 0 1-14.814-28.186h0c-6.669-13.43-5.509-17.996-3.836-25.852z"/><path d="M842.729 100.974s-19.989-8.084-29.042-8.636l-4.18 5.442 13.546 5.45 8.632.208z"/></g><path d="M821.949 131.193a.3.3 0 0 1-.28-.374c.045-.159 4.484-15.864 5.907-19.579 1.369-3.573-1.679-8.905-1.71-8.958-.083-.141-.036-.322.104-.404s.322-.036.405.105c.133.228 3.219 5.632 1.751 9.464-1.414 3.691-5.846 19.37-5.89 19.528-.034.13-.153.22-.287.219z" fill="#020202"/><path d="M787.447 76.925c-1.739.696-3.425 1.518-5.044 2.46-2.872 1.678-5.1 3.813-2.9 4.152s7.7-1.822 7.7-1.822z" class="B"/><path d="M662.434 79.556c12.76-5.253 27.124-19.888 38.313-36.2a55.19 55.19 0 0 0 4.718-7.675c.958-1.942 5.471-2.464 8.813-.861 3.135 1.5 4.846 4.969 4.136 7.516-.53 1.9-1.513 3.708-4.334 7.967-9.8 14.8-17.309 19.443-43.908 34.893z" fill="#efa172"/><path d="M733.937 113.652c-2.934 5.879-15.93 2.307-29.848-6.624s-24.42-16.925-22.428-20.071 15.72-.251 29.638 8.68 24.301 14.688 22.638 18.015z" class="C"/><path d="M727.37 33.775c-7.658-1.727-15.8-6.407-23.121 5.929-6.573 11.077-14.633 23.78-22.589 47.252 0 0 27.618 3.273 52.277 26.695.567-1.291 18.3-31.85 18.36-52.9.043-13.898-7.036-22.942-24.927-26.976z" fill="#73b3ce"/><path d="M723.543 38.939c4.524 2.853 12.575-.269 14.1-1.207-2-1.345-4.112-2.653-4.717-4.639l-1.828-6.063-.053-.172-.067-.226-.481-1.584-3.214-10.64-.437 10.6-.071 1.725-.032.859a14.6 14.6 0 0 1-.746 2.539c-.368.882-1.405 2.718-2.035 2.76-.002-.001-5.776 2.674-.419 6.048z" class="B"/><path d="M725.995 30.126a8.6 8.6 0 0 0 5.1-3.1l-.053-.172-.068-.226c-.811-.008-2.631 0-4.2.1l-.032.859a14.6 14.6 0 0 1-.747 2.539zm-13.093 162.609s5.673 12.781 3.438 15.1-9.694 6.771-5.617 8.083c2.339.753 9.909-3.67 12.164-4.647s5.038-.817 5.819-3.147c.71-2.118-4.274-5.94-4.8-8.06-1.2-4.818-1.956-5.423-1.956-5.423s-2.014-6.724-3.783-6.012c-2.555 1.027-5.265 4.106-5.265 4.106z" class="C"/><path d="M727.979 111.27c-7.285-6.677-25.7-17.276-27.909-13.428l-10.579 45.846c-.992 4.447-.881 9.069.323 13.463 1.065 4.396 2.611 8.661 4.609 12.718l.006.015h0c4.1 8.969 9.939 19.376 13.965 26.287a9.01 9.01 0 0 0 12.277 3.272l.539-.31a9.15 9.15 0 0 0 4.3-10.23l-10.183-40.926 15.987-31.81c.514-1.097-2.46-4.092-3.335-4.897z" fill="#6da49a"/><path d="M652.19 189.804s-5.242 10.3-11.061 9c-3.144-.7-10.479-5.477-9.763-1.255.411 2.423 7.827 7.1 9.735 8.648s3.042 4.047 5.477 3.711c1.156-.159 2.724-4.108 4.779-6.737 2.292-2.931 8.692-9.778 8.692-9.778z" class="C"/><path d="M715.973 102.746c-11.687-7.48-30.249-16.313-32.594-12.546l-35.093 101.088a9.01 9.01 0 0 0 6.42 10.964l.6.159a9.15 9.15 0 0 0 10.25-4.246l47.19-84.088c.562-1.08 4.227-10.689 3.227-11.331z" fill="#6da49a"/><ellipse cx="11.849" cy="9.604" rx="11.849" ry="9.604" transform="matrix(.593 -.805 .805 .593 714.85 20.419)" class="B"/><g class="C"><path d="M736.943 11.565c-1.55 1.522-2.1 3.189-8.352.563 0 0-1.3-.067-.656-1.043s3.031-1.431 3.118-3.046c0 0-9.627 5.084-9.667 2.477s2.282-9.241 7.646-10.377 15.093 4.941 14.657 8.763c-.644 5.632-5.42 1.36-6.746 2.663z"/><path d="M742.506 10.825s-2.767-1.141-3.434-.019-3.769 1.884-2.705 3.686 1.139 2.469.28 3.621c-.6.8-.5 3.624-1.185 5.614a6.81 6.81 0 0 1-1.818 2.047 9.56 9.56 0 0 0 11.288-5.162c2.544-4.893-.508-9.292-2.426-9.787z"/></g><path d="M736.138 23.605a2.36 2.36 0 0 1-2.876-1.824 2.64 2.64 0 0 1 2.526-2.515 2.36 2.36 0 0 1 2.876 1.824 2.64 2.64 0 0 1-2.526 2.515z" class="B"/><path d="M747.351 13.629c.093.04.2.02.272-.051s.092-.179.052-.272a3.96 3.96 0 0 0-3.356-2.458c-.13.004-.235.109-.239.239s.095.241.225.252a3.47 3.47 0 0 1 2.919 2.164.24.24 0 0 0 .127.126zm-3.075-3.385c.105.045.227.013.295-.078.043-.057 1.051-1.416.8-2.393-.036-.129-.168-.206-.297-.173s-.209.163-.18.293c.157.623-.467 1.639-.721 1.978-.081.109-.059.262.049.344a.28.28 0 0 0 .054.029z" class="C"/><path d="M729.171 17.407a.2.2 0 0 1-.065-.382 2.21 2.21 0 0 1 2.689.3c.086.073.097.201.025.288-.077.077-.199.088-.288.025-.697-.327-1.482-.414-2.233-.249a.2.2 0 0 1-.128.018zm-5.741-3.806a.2.2 0 0 1 .209-.325 2.21 2.21 0 0 1 1.784 2.034.2.2 0 0 1-.176.229c-.109.005-.206-.069-.229-.176a3.49 3.49 0 0 0-1.48-1.691.2.2 0 0 1-.108-.071z" class="E"/><path d="M721.999 21.023c-.507.6.59.976 1.671 1.642.829.51 1.179 1.175 1.553 1.182.836.016.881-1.48.382-2.041-.433-.488-2.712-1.832-3.606-.783z" fill="#fff"/><path d="M730.135 19.672a.75.75 0 0 1-1-.032c-.276-.265-.305-.697-.069-.998s.662-.374.986-.17c.342.315.378.841.083 1.2zm-6.385-3.754c-.091.532-.477.91-.863.844-.438-.161-.673-.636-.535-1.082.091-.532.477-.91.863-.844s.625.549.535 1.082z" class="E"/><path d="M689.26 155.634c-2.178-7.72 4.3-39.375 6.234-43.681 1.848-4.122-3.5-9.783-3.553-9.84l.3-.287c.229.24 5.594 5.92 3.632 10.3-2.063 4.6-8.245 36.2-6.213 43.4zm-105.177 30.625s9 10.7 7.5 13.547-7.427 9.2-3.147 9.327c2.456.072 8.5-6.281 10.391-7.847s4.612-2.187 4.714-4.642c.092-2.232-5.758-4.516-6.855-6.406-2.494-4.293-3.387-4.665-3.387-4.665s-3.805-5.9-5.306-4.722c-2.161 1.697-3.91 5.408-3.91 5.408zm-90.678-10.577s-8.64 10.994-11.736 10.1-10.52-5.4-9.771-1.182c.429 2.419 7.88 7.04 9.8 8.575s3.08 4.071 5.5 3.67c2.2-.364 3.249-6.557 4.875-8.016 3.7-3.316 3.877-4.266 3.877-4.266s5-4.927 3.542-6.157c-2.097-1.768-6.087-2.724-6.087-2.724z" class="C"/><path d="M529.692 124.94c-5.727 6.784-34.7 37.539-41.432 48.366a9.01 9.01 0 0 0 2.854 12.38l.526.331a9.15 9.15 0 0 0 11.051-.992l63.642-56.809s-24.431-17.74-36.641-3.276z" class="D"/><path d="M531.762 85.195c9.291-10.639 25.263-28.681 40.045-37.639 2.203-1.433 4.52-2.683 6.927-3.738 1.742-.74 2.419-4.651 1.185-7.645-1.158-2.809-4.572-4.962-5.551-4.7-1.666.451-4.111 1.855-7.966 4.107-13.392 7.822-30.628 25.831-45.73 44.079z" class="B"/><path d="M603.355 109.904c-.78 2.034-13.483-1.552-28.666-7.474s-26.7-12.4-25.918-14.43 13.561 1.141 28.745 7.063 26.619 12.806 25.839 14.841z" class="C"/><g fill="#92bcb5"><path d="M620.203 50.453s1.1-11.723-18.892-18.934c-28.831-10.4-35.566 17.091-52.541 56.48 0 0 29.88 6.064 54.778 21.4.001.004 17.099-40.281 16.655-58.946z"/><path d="M628.144 40.035l-15.649 14.1s-29.568-7.555-36.728-11.5-7.267-10.273-7.267-10.273c8.309-2.451 16.985-3.421 25.63-2.865 24.299 1.389 34.014 10.538 34.014 10.538z"/></g><path d="M604.427 30.639c-2.98 1.819-8.787 3.363-11.243 1.041-1.972-1.865 1.02-2.647 1.477-2.909.952-.512 1.695-1.341 2.1-2.343.021-.042.042-.087.059-.129l.625-1.557.462-1.149 1.51-3.766 3.284-8.19-.37 9.272-.067 1.577-.046 1.107v.008l-.171 4.3c-.069 1.753 1.608 2.542 2.38 2.738z" class="B"/><g class="D"><path d="M569.161 98.93l-18.431 36.118c-3.807 7.072-2.863 21.105 5.175 29.4h0c6.432 8.441 17.673 19.566 24.8 26.363a9.01 9.01 0 0 0 12.7-.273l.432-.448a9.15 9.15 0 0 0 1.28-11.021l-20.021-33.724 25.756-34.87c.801-.922-28.544-14.673-31.691-11.545z"/><path d="M554.573 92.546l-26.166 34.067c-4.892 6.37-4.965 15.211-.179 21.661h0a7.93 7.93 0 0 0 11.328 1.456l48.57-45.854c-5.549-3.013-29.945-13.913-33.553-11.33z"/></g><path d="M548.799 144.084l-.412-.059c.571-4.051 6.235-15.749 10.371-24.291 2.2-4.54 3.934-8.126 4.314-9.32 1.065-3.352-2.7-7.766-2.737-7.81l.315-.272c.162.187 3.954 4.633 2.819 8.208-.388 1.222-2.13 4.82-4.335 9.375-4.127 8.521-9.775 20.182-10.335 24.169z" class="C"/><path d="M602.223 23.59h0 0c-1.345 1.661-3.323 2.686-5.456 2.826l.058-.129.624-1.557.462-1.149z" class="E"/><path d="M590.213 14.863c.613-5.209 4.612-9.02 8.932-8.512s7.326 5.143 6.713 10.353-4.612 9.02-8.932 8.512-7.326-5.142-6.713-10.353z" class="B"/><path d="M597.616 15.391a.16.16 0 0 1 .068-.3 1.73 1.73 0 0 1 1.854 1.023.16.16 0 0 1-.069.215c-.079.032-.17.003-.215-.069a2.73 2.73 0 0 0-1.54-.851c-.034.004-.068-.002-.098-.018zm.719 2.039c-.1.369-.389.612-.657.543a.62.62 0 0 1-.312-.793c.095-.369.389-.612.657-.543a.62.62 0 0 1 .312.793zm-6.632-2.433c-.041-.009-.074-.038-.087-.078-.029-.077-.005-.165.059-.217a1.12 1.12 0 0 1 1.63.163.19.19 0 0 1 .006.223c-.019.028-.049.048-.082.053a.12.12 0 0 1-.094-.027c-.412-.235-.904-.285-1.354-.137-.022.016-.05.024-.078.02zm1.478 1.62c.052.377-.127.714-.4.752s-.539-.237-.591-.615.128-.714.4-.752.539.235.591.615z" class="E"/><path d="M611.07 14.167s-2.556 5.716-6.283 6.183c0 0 2.96-4.37-3.437-6.923-.001.001 5.828-.997 9.72.74z" fill="#5c305d"/><use xlink:href="#B" x="-261.844" y="-2.13" class="B"/><g class="C"><path d="M611.07 14.167s2.227-4.833-.409-8.856c-1.76-2.687-11.107-4.491-13.8-3.555-1.759.611 0 2.081 0 2.081s-5.1-1.041-6.086.468 1.235 1.248 1.235 1.248-4.149 1.352-3.524 3.381 3.524-.416 3.524-.416-3.082 3.134-1.067 3.466 4.93-2.165 4.93-2.165-1.873 1.613-.78 2.445 4.162-1.561 4.162-1.561-1.982.884-.705 2.081 3.477.548 3.477.548zm-15.697 7.271a4.85 4.85 0 0 1-2.427-.677c-.096-.064-.122-.193-.058-.288a.21.21 0 0 1 .288-.059 4.02 4.02 0 0 0 4.251 0c.097-.062.226-.033.287.063a.21.21 0 0 1-.063.288c-.678.44-1.47.674-2.278.673z"/><path d="M893.092 241.607c-3.222 0-6.686-.172-10.3-.511-13.753-1.292-28.491-4.868-41.494-8.024h-.015c-13.105-3.181-25.484-6.186-34.033-6.186-5.255 0-8.75 1.121-10.683 3.428l-2.876-1.315c2.591-3.09 7-4.591 13.484-4.591 9.242 0 21.827 3.054 35.151 6.288h.011c8.384 2.035 17.054 4.139 25.661 5.744 8.264 1.663 16.662 2.567 25.09 2.7 4.53.038 9.052-.39 13.494-1.277 4.132-.828 8.111-2.286 11.8-4.323 4.211-2.38 6.453-4.71 7.057-7.332.457-1.987-.006-4.253-1.458-7.131a87.99 87.99 0 0 0-5.916-9.3c-8.455-12.262-21.231-30.791-17.987-61.051 2-18.618-3.6-33.6-16.622-44.539-4.976-4.084-10.513-7.432-16.44-9.944a100.56 100.56 0 0 0-16.772-5.519c-6.28-1.525-12.68-2.501-19.129-2.917H.5v-2.5h830.714.041c1.358.049 33.495 1.4 54.727 19.206 13.669 11.464 19.55 27.078 17.478 46.406-3.168 29.557 8.852 46.99 17.628 59.719 4.964 7.2 8.885 12.887 7.7 18.042a9.78 9.78 0 0 1-2.507 4.476 23.81 23.81 0 0 1-5.831 4.36c-3.82 2.114-7.931 3.652-12.2 4.564a70.32 70.32 0 0 1-15.159 1.514z" stroke="rgba(0,0,0,0)" stroke-miterlimit="10"/></g><path d="M673.105 73.342a89.81 89.81 0 0 0-14.239 6.835c-3.481 2.03-1.883 3.306-.694 3.441.867.1 1.131 1.2 1.583-.154-.256 1.42-.406 3.433.771 3.585 1.132.146 1.885-1.314 2.3-2.449-.356 1.4-.679 3.421.51 3.2 1.393-.261 2.131-2.093 2.394-2.911-.234.9-.612 3.039 1.054 3.251 1.524.194.539-2.828 2.369-2.592s9.179.553 10.455-4.454z" fill="#efa172"/><g class="B"><path d="M672.231 76.736s-18.612 4.666-17.575 6.011 6.355.731 6.355.731z"/><path d="M674.007 76.234c-15.966 4.146-26.739 13.956-14.573 9.61-.43.5-1.781 2.513-.769 3.03 1.127.577 3.2-.07 5.015-1.564.015.015.852-.8.868-.789-1.718 1.676-2.288 3.064-1.077 3.572 1.64.687 4.1-1.549 4.1-1.549s-1.068 2.745 1.6 2.1a63.27 63.27 0 0 0 9.324-5.485s-3.51-9.179-4.488-8.925zm-149.846.218a38.41 38.41 0 0 0-4.728 3.024c-2.659 2-4.624 4.373-2.4 4.457s7.439-2.7 7.439-2.7z"/><path d="M528.958 89.421s4.073 1.366 5.294-2.361c1.555-4.748 2.113-7.361-.73-7.286-1.78.046-2.52 3.7-2.52 3.7s.547-5.092-1.671-4.53-2.552 4.16-2.552 4.16.128-4.621-2.1-4.191c-1.368.264-2.076 3.531-2.076 3.531s.631-3.423-1.928-2.776c-1 .251-1.739 3.138-1.889 5.421-.142 2.157 1.2 2.948 3.294 2.935 0 0 2.089 1.2 3.453.845.523-.135 1 .384 1.374.454a13.5 13.5 0 0 0 2.051.098z"/></g><g fill="#dd8d5a"><path d="M531.246 83.526l-.49-.114c.182-.783.735-3.168 2.15-3.936.549-.293 1.2-.325 1.775-.089 1.75.635 1.13 3.987 1.1 4.129l-.494-.094c.163-.853.339-3.155-.78-3.561-.44-.188-.941-.166-1.364.058-1.216.659-1.728 2.878-1.897 3.607z"/><path d="M531.247 83.528l-.49-.118c.006-.025.6-2.55-.173-3.658a1.1 1.1 0 0 0-.82-.479c-.512-.059-2.077-.236-2.737 3.542l-.5-.087c.492-2.815 1.6-4.145 3.29-3.955a1.6 1.6 0 0 1 1.176.692c.908 1.292.281 3.951.254 4.063z"/><path d="M519.023 84.8l-.5-.042c.2-2.406 1.912-5.294 3.332-5.619a.74.74 0 0 1 .682.166 2.46 2.46 0 0 1 .521 1.56c.424-1.068 1.106-2.233 2.06-2.233.826 0 1.4.778 1.7 2.313a12.58 12.58 0 0 1 .213 2.158h-.5c0-1.029-.26-3.968-1.411-3.968-1.068 0-1.891 2.623-2.1 3.542l-.5-.081c.1-.93.1-2.544-.324-2.916-.064-.059-.154-.078-.237-.052-1.089.247-2.749 2.85-2.936 5.172z"/></g><g class="B"><path d="M825.028 77.724c13-5.53 29.559-10.1 42.662-21.372a48.15 48.15 0 0 0 5.7-5.425c1.244-1.426 5.173-.856 7.635 1.247 2.311 1.972 3.3 5.886 2.741 6.735-.945 1.443-3.039 3.332-6.376 6.3-11.592 10.3-25.726 16.5-49.159 21.769z"/><path d="M827.211 76.681s-18.612 4.667-17.575 6.011 6.355.731 6.355.731z"/><path d="M828.986 76.178c-15.965 4.146-26.739 13.957-14.573 9.61-.43.5-1.781 2.513-.769 3.031 1.128.577 3.2-.071 5.015-1.564.016.015.853-.8.868-.789-1.718 1.676-2.289 3.064-1.077 3.571 1.64.687 4.1-1.549 4.1-1.549s-1.068 2.745 1.6 2.1c3.259-1.559 6.378-3.394 9.324-5.485 0 0-3.509-9.179-4.488-8.925z"/></g><path d="M629.82 41.278c1.3 2.329-1.74 6.565-6.79 9.461s-10.2 3.355-11.5 1.026 1.74-6.565 6.79-9.461 10.2-3.355 11.5-1.026z" class="C"/><path d="M605.915 74.548s-6.733 1.436-8.726 4.938-.141 7.253 1.056 7.236c1.248-.017 2.045-3.647 1.94-4.608 0 0-.767 4.879 1.078 4.881s2.18-4.035 2.18-4.035-1.046 4.985.7 4.423 2.072-3.6 2.072-3.6-.738 3.5 1.391 3.5c1.536 0 .177-2.873 2.022-2.871s9.175-.61 9.809-5.739z" class="B"/><path d="M600.186 82.383c-.024 0-.047-.003-.07-.009a.27.27 0 0 1-.191-.33c.023-.088.59-2.155 1.9-2.611a.27.27 0 1 1 .176.509c-.866.3-1.418 1.72-1.557 2.241a.27.27 0 0 1-.258.2zm3.257.847c-.022 0-.044-.003-.065-.008a.27.27 0 0 1-.2-.326c.336-1.252 1.114-2.34 2.19-3.063a.27.27 0 1 1 .274.464c-.947.653-1.634 1.619-1.94 2.729a.27.27 0 0 1-.259.204zm2.768.825c-.023 0-.046-.003-.069-.009a.27.27 0 0 1-.191-.33c.028-.1.692-2.543 2.133-2.912a.27.27 0 0 1 .134.523c-.945.242-1.58 1.907-1.745 2.528a.27.27 0 0 1-.262.2z" fill="#e79767"/><path d="M615.204 81.717l-9.289-7.17c8.828-2.889 16.081-6.664 24.534-11.942a71.79 71.79 0 0 0-12.849-9.387c-.891-.534-1.484-1.451-1.607-2.482s.24-2.062.981-2.79c1.958-1.917 4.4-4.106 5.87-4.691 4.532-1.8 5.951-1.684 12.62 2.793 13.7 9.194 16.26 12.808 16.93 16.947 1.826 11.276-36.815 18.599-37.19 18.722zm57.027-4.981c13.894-4.183 36.508-7.341 51.949-19.706a55.14 55.14 0 0 0 6.741-5.975c1.481-1.581 5.951-.771 8.683 1.733 2.564 2.349 3.2 6.161 1.778 8.393-1.059 1.667-2.524 3.11-6.46 6.367-13.674 11.318-29.793 12.752-59.73 19.82z" class="B"/><path d="M716.978 31.479s-10.461-1.147-16.01 7.731a7.72 7.72 0 0 0 4.3 4.578c3.47 1.526 11.71-12.309 11.71-12.309zm4.894 23.129s8.188-9.572 15.769-6.936 9.939 7.769 9.246 10.543-6.1 9.572-6.52 9.71-9.661-2.635-18.495-13.317z" fill="#73b3ce"/><path d="M791.839 89.421s4.074 1.366 5.294-2.361c1.555-4.748 2.113-7.361-.731-7.286-1.78.046-2.52 3.7-2.52 3.7s.547-5.092-1.67-4.53-2.552 4.16-2.552 4.16.128-4.621-2.1-4.191c-1.368.264-2.076 3.531-2.076 3.531s.631-3.423-1.928-2.776c-1 .251-1.739 3.138-1.889 5.421-.142 2.157 1.2 2.948 3.294 2.935 0 0 2.088 1.2 3.453.845.523-.135 1 .384 1.374.454a13.49 13.49 0 0 0 2.051.098z" class="B"/><g fill="#dd8d5a"><path d="M794.124 83.526l-.49-.114c.184-.79.742-3.2 2.164-3.955a2.06 2.06 0 0 1 1.764-.068c1.182.447 1.039 1.964 1.031 2.028l-.5-.051c0-.012.109-1.2-.709-1.506-.432-.192-.928-.176-1.348.042-.812.431-1.451 1.651-1.912 3.624z"/><path d="M794.127 83.528l-.489-.118c.006-.025.6-2.55-.173-3.658a1.1 1.1 0 0 0-.82-.479c-.511-.059-2.076-.236-2.738 3.542l-.5-.087c.492-2.816 1.6-4.145 3.29-3.955.476.043.907.297 1.175.692.91 1.292.282 3.951.255 4.063z"/><path d="M781.907 84.8l-.5-.042c.2-2.406 1.912-5.294 3.331-5.619a.74.74 0 0 1 .682.166c.348.445.532.996.521 1.56.425-1.068 1.105-2.233 2.061-2.233.827 0 1.4.778 1.7 2.313.13.711.199 1.432.205 2.155h-.5c0-1.029-.26-3.968-1.41-3.968-1.068 0-1.891 2.623-2.1 3.542l-.5-.081c.1-.93.1-2.544-.324-2.916a.24.24 0 0 0-.236-.052c-1.086.251-2.741 2.853-2.93 5.175z"/></g><defs ><path id="B" d="M867.693 19.504a1.54 1.54 0 0 1-2.043-.63 1.54 1.54 0 0 1 .553-2.066 1.54 1.54 0 0 1 2.085.475 1.63 1.63 0 0 1-.594 2.22z"/></defs></svg>