<svg xmlns="http://www.w3.org/2000/svg" width="1786.25" height="675.248" viewBox="0 0 1786.25 675.248">
  <g id="w-cap-animation" transform="translate(-171.131 -200.813)">
    <g id="Group_46" data-name="Group 46" transform="translate(204.566 454.806)">
      <path id="Path_118" data-name="Path 118" d="M214.818,269.894H207.5v-7.319H201.47v7.319h-7.319v6.028h7.319v7.32H207.5v-7.32h7.319Z" transform="translate(-194.151 -262.575)" fill="#f9fbfc"/>
      <path id="Path_119" data-name="Path 119" d="M214.818,269.894H207.5v-7.319H201.47v7.319h-7.319v6.028h7.319v7.32H207.5v-7.32h7.319Z" transform="translate(-194.151 -262.575)" fill="none" stroke="#738cbf" stroke-linecap="round" stroke-linejoin="round" stroke-width="0.75"/>
    </g>
    <g id="Group_47" data-name="Group 47" transform="translate(1545.114 595.383)">
      <path id="Path_120" data-name="Path 120" d="M386.811,303.92h-7.32V296.6h-6.028v7.32h-7.319v6.028h7.319v7.319h6.028v-7.319h7.32Z" transform="translate(-366.145 -296.601)" fill="#f9fbfc"/>
      <path id="Path_121" data-name="Path 121" d="M386.811,303.92h-7.32V296.6h-6.028v7.32h-7.319v6.028h7.319v7.319h6.028v-7.319h7.32Z" transform="translate(-366.145 -296.601)" fill="none" stroke="#738cbf" stroke-linecap="round" stroke-linejoin="round" stroke-width="0.75"/>
    </g>
    <g id="Group_48" data-name="Group 48" transform="translate(560.68 544.867)">
      <path id="Path_122" data-name="Path 122" d="M243.811,293.647a8.361,8.361,0,1,0-8.361,8.361A8.361,8.361,0,0,0,243.811,293.647Z" transform="translate(-227.089 -285.287)" fill="#f9fbfc"/>
      <path id="Path_123" data-name="Path 123" d="M243.811,293.647a8.361,8.361,0,1,0-8.361,8.361A8.361,8.361,0,0,0,243.811,293.647Z" transform="translate(-227.089 -285.287)" fill="none" stroke="#738cbf" stroke-linecap="round" stroke-linejoin="round" stroke-width="0.75"/>
      <line id="Line_43" data-name="Line 43" x1="12.422" transform="translate(2.15 8.36)" fill="none" stroke="#738cbf" stroke-linecap="round" stroke-linejoin="round" stroke-width="0.75"/>
    </g>
    <g id="Group_49" data-name="Group 49" transform="translate(765.846 201.189)">
      <circle id="Ellipse_2" data-name="Ellipse 2" cx="8.361" cy="8.361" r="8.361" fill="#f9fbfc"/>
      <circle id="Ellipse_3" data-name="Ellipse 3" cx="8.361" cy="8.361" r="8.361" fill="none" stroke="#738cbf" stroke-linecap="round" stroke-linejoin="round" stroke-width="0.75"/>
      <line id="Line_44" data-name="Line 44" x1="8.784" y1="8.784" transform="translate(3.969 3.969)" fill="none" stroke="#738cbf" stroke-linecap="round" stroke-linejoin="round" stroke-width="0.75"/>
    </g>
    <g id="Group_50" data-name="Group 50" transform="translate(1911.627 553.228)">
      <path id="Path_124" data-name="Path 124" d="M458,359.772a8.361,8.361,0,1,0-11.824,0A8.36,8.36,0,0,0,458,359.772Z" transform="translate(-443.732 -345.5)" fill="#f9fbfc"/>
      <path id="Path_125" data-name="Path 125" d="M458,359.772a8.361,8.361,0,1,0-11.824,0A8.36,8.36,0,0,0,458,359.772Z" transform="translate(-443.732 -345.5)" fill="none" stroke="#738cbf" stroke-linecap="round" stroke-linejoin="round" stroke-width="0.75"/>
      <line id="Line_45" data-name="Line 45" x1="8.784" y1="8.784" transform="translate(3.969 3.969)" fill="none" stroke="#738cbf" stroke-linecap="round" stroke-linejoin="round" stroke-width="0.75"/>
    </g>
    <g id="Group_51" data-name="Group 51" transform="translate(863.572 714.365)">
      <ellipse id="Ellipse_4" data-name="Ellipse 4" cx="13.377" cy="5.733" rx="13.377" ry="5.733" fill="#f9fbfc"/>
      <ellipse id="Ellipse_5" data-name="Ellipse 5" cx="13.377" cy="5.733" rx="13.377" ry="5.733" fill="none" stroke="#738cbf" stroke-linecap="round" stroke-linejoin="round" stroke-width="0.75"/>
      <line id="Line_46" data-name="Line 46" y2="6.77" transform="translate(13.377 2.505)" fill="none" stroke="#738cbf" stroke-linecap="round" stroke-linejoin="round" stroke-width="0.75"/>
    </g>
    <g id="Group_52" data-name="Group 52" transform="translate(1399.53 699.511)">
      <path id="Path_126" data-name="Path 126" d="M361.183,317.979c-5.224-5.224-11.274-7.644-13.513-5.4s.181,8.288,5.406,13.512,11.274,7.644,13.513,5.406S366.408,323.2,361.183,317.979Z" transform="translate(-346.835 -311.739)" fill="#f9fbfc"/>
      <path id="Path_127" data-name="Path 127" d="M361.183,317.979c-5.224-5.224-11.274-7.644-13.513-5.4s.181,8.288,5.406,13.512,11.274,7.644,13.513,5.406S366.408,323.2,361.183,317.979Z" transform="translate(-346.835 -311.739)" fill="none" stroke="#738cbf" stroke-linecap="round" stroke-linejoin="round" stroke-width="0.75"/>
      <line id="Line_47" data-name="Line 47" x1="4.787" y2="4.787" transform="translate(7.79 8.011)" fill="none" stroke="#738cbf" stroke-linecap="round" stroke-linejoin="round" stroke-width="0.75"/>
    </g>
    <g id="Group_53" data-name="Group 53" transform="translate(1938.896 225.82)">
      <path id="Path_128" data-name="Path 128" d="M400.177,223.32l8.468,8.468a3.082,3.082,0,0,0,4.358,0h0a3.082,3.082,0,0,0,0-4.358l-8.468-8.468a3.082,3.082,0,0,0-4.358,0h0A3.082,3.082,0,0,0,400.177,223.32Z" transform="translate(-399.275 -218.06)" fill="#f9fbfc"/>
      <path id="Path_129" data-name="Path 129" d="M400.177,223.32l8.468,8.468a3.082,3.082,0,0,0,4.358,0h0a3.082,3.082,0,0,0,0-4.358l-8.468-8.468a3.082,3.082,0,0,0-4.358,0h0A3.082,3.082,0,0,0,400.177,223.32Z" transform="translate(-399.275 -218.06)" fill="none" stroke="#738cbf" stroke-linecap="round" stroke-linejoin="round" stroke-width="0.75"/>
      <path id="Path_130" data-name="Path 130" d="M400.177,223.32l4.317,4.317,4.358-4.358-4.317-4.317a3.082,3.082,0,0,0-4.358,0h0A3.082,3.082,0,0,0,400.177,223.32Z" transform="translate(-399.275 -218.06)" fill="#92e3a9"/>
      <path id="Path_131" data-name="Path 131" d="M400.177,223.32l4.317,4.317,4.358-4.358-4.317-4.317a3.082,3.082,0,0,0-4.358,0h0A3.082,3.082,0,0,0,400.177,223.32Z" transform="translate(-399.275 -218.06)" fill="none" stroke="#738cbf" stroke-linecap="round" stroke-linejoin="round" stroke-width="0.75"/>
    </g>
    <g id="Group_54" data-name="Group 54" transform="translate(929.135 220.634)">
      <path id="Path_132" data-name="Path 132" d="M281.976,217.589v11.975a3.082,3.082,0,0,0,3.082,3.082h0a3.081,3.081,0,0,0,3.08-3.082V217.589a3.081,3.081,0,0,0-3.08-3.081h0A3.081,3.081,0,0,0,281.976,217.589Z" transform="translate(-281.976 -214.508)" fill="#f9fbfc"/>
      <path id="Path_133" data-name="Path 133" d="M281.976,217.589v11.975a3.082,3.082,0,0,0,3.082,3.082h0a3.081,3.081,0,0,0,3.08-3.082V217.589a3.081,3.081,0,0,0-3.08-3.081h0A3.081,3.081,0,0,0,281.976,217.589Z" transform="translate(-281.976 -214.508)" fill="none" stroke="#738cbf" stroke-linecap="round" stroke-linejoin="round" stroke-width="0.75"/>
      <path id="Path_134" data-name="Path 134" d="M281.976,217.589v6.106h6.162v-6.106a3.081,3.081,0,0,0-3.08-3.081h0A3.081,3.081,0,0,0,281.976,217.589Z" transform="translate(-281.976 -214.508)" fill="#92e3a9"/>
      <path id="Path_135" data-name="Path 135" d="M281.976,217.589v6.106h6.162v-6.106a3.081,3.081,0,0,0-3.08-3.081h0A3.081,3.081,0,0,0,281.976,217.589Z" transform="translate(-281.976 -214.508)" fill="none" stroke="#738cbf" stroke-linecap="round" stroke-linejoin="round" stroke-width="0.75"/>
    </g>
    <g id="Group_55" data-name="Group 55" transform="translate(171.506 658.204)">
      <path id="Path_136" data-name="Path 136" d="M172.408,318.918l8.468,8.468a3.082,3.082,0,0,0,4.358,0h0a3.082,3.082,0,0,0,0-4.358l-8.468-8.468a3.082,3.082,0,0,0-4.358,0h0A3.082,3.082,0,0,0,172.408,318.918Z" transform="translate(-171.506 -313.658)" fill="#f9fbfc"/>
      <path id="Path_137" data-name="Path 137" d="M172.408,318.918l8.468,8.468a3.082,3.082,0,0,0,4.358,0h0a3.082,3.082,0,0,0,0-4.358l-8.468-8.468a3.082,3.082,0,0,0-4.358,0h0A3.082,3.082,0,0,0,172.408,318.918Z" transform="translate(-171.506 -313.658)" fill="none" stroke="#738cbf" stroke-linecap="round" stroke-linejoin="round" stroke-width="0.75"/>
      <path id="Path_138" data-name="Path 138" d="M172.408,318.918l4.317,4.317,4.358-4.358-4.317-4.317a3.082,3.082,0,0,0-4.358,0h0A3.082,3.082,0,0,0,172.408,318.918Z" transform="translate(-171.506 -313.658)" fill="#92e3a9"/>
      <path id="Path_139" data-name="Path 139" d="M172.408,318.918l4.317,4.317,4.358-4.358-4.317-4.317a3.082,3.082,0,0,0-4.358,0h0A3.082,3.082,0,0,0,172.408,318.918Z" transform="translate(-171.506 -313.658)" fill="none" stroke="#738cbf" stroke-linecap="round" stroke-linejoin="round" stroke-width="0.75"/>
    </g>
    <g id="Group_56" data-name="Group 56" transform="translate(1229.784 504.844)">
      <path id="Path_140" data-name="Path 140" d="M325.308,300.141h11.975a3.082,3.082,0,0,0,3.082-3.082h0a3.081,3.081,0,0,0-3.082-3.081H325.308a3.081,3.081,0,0,0-3.082,3.081h0A3.082,3.082,0,0,0,325.308,300.141Z" transform="translate(-322.226 -293.979)" fill="#f9fbfc"/>
      <path id="Path_141" data-name="Path 141" d="M325.308,300.141h11.975a3.082,3.082,0,0,0,3.082-3.082h0a3.081,3.081,0,0,0-3.082-3.081H325.308a3.081,3.081,0,0,0-3.082,3.081h0A3.082,3.082,0,0,0,325.308,300.141Z" transform="translate(-322.226 -293.979)" fill="none" stroke="#738cbf" stroke-linecap="round" stroke-linejoin="round" stroke-width="0.75"/>
      <path id="Path_142" data-name="Path 142" d="M325.308,300.141h6.106v-6.162h-6.106a3.081,3.081,0,0,0-3.082,3.081h0A3.082,3.082,0,0,0,325.308,300.141Z" transform="translate(-322.226 -293.979)" fill="#f16880"/>
      <path id="Path_143" data-name="Path 143" d="M325.308,300.141h6.106v-6.162h-6.106a3.081,3.081,0,0,0-3.082,3.081h0A3.082,3.082,0,0,0,325.308,300.141Z" transform="translate(-322.226 -293.979)" fill="none" stroke="#738cbf" stroke-linecap="round" stroke-linejoin="round" stroke-width="0.75"/>
    </g>
    <g id="Group_57" data-name="Group 57" transform="translate(1393.366 840.16)">
      <path id="Path_144" data-name="Path 144" d="M355.829,364.321V352.347a3.081,3.081,0,0,0-3.082-3.081h0a3.081,3.081,0,0,0-3.082,3.081v11.974a3.082,3.082,0,0,0,3.082,3.082h0A3.082,3.082,0,0,0,355.829,364.321Z" transform="translate(-349.665 -349.266)" fill="#f9fbfc"/>
      <path id="Path_145" data-name="Path 145" d="M355.829,364.321V352.347a3.081,3.081,0,0,0-3.082-3.081h0a3.081,3.081,0,0,0-3.082,3.081v11.974a3.082,3.082,0,0,0,3.082,3.082h0A3.082,3.082,0,0,0,355.829,364.321Z" transform="translate(-349.665 -349.266)" fill="none" stroke="#738cbf" stroke-linecap="round" stroke-linejoin="round" stroke-width="0.75"/>
      <path id="Path_146" data-name="Path 146" d="M355.829,361.5v-6.1h-6.164v6.1a3.082,3.082,0,0,0,3.082,3.082h0A3.082,3.082,0,0,0,355.829,361.5Z" transform="translate(-349.665 -346.446)" fill="#f16880"/>
      <path id="Path_147" data-name="Path 147" d="M355.829,361.5v-6.1h-6.164v6.1a3.082,3.082,0,0,0,3.082,3.082h0A3.082,3.082,0,0,0,355.829,361.5Z" transform="translate(-349.665 -346.446)" fill="none" stroke="#738cbf" stroke-linecap="round" stroke-linejoin="round" stroke-width="0.75"/>
    </g>
    <g id="Group_58" data-name="Group 58" transform="translate(207.742 857.549)">
      <path id="Path_148" data-name="Path 148" d="M196.326,364.259v11.975a3.081,3.081,0,0,0,3.081,3.081h0a3.081,3.081,0,0,0,3.082-3.081V364.259a3.082,3.082,0,0,0-3.082-3.082h0A3.081,3.081,0,0,0,196.326,364.259Z" transform="translate(-196.326 -361.177)" fill="#f9fbfc"/>
      <path id="Path_149" data-name="Path 149" d="M196.326,364.259v11.975a3.081,3.081,0,0,0,3.081,3.081h0a3.081,3.081,0,0,0,3.082-3.081V364.259a3.082,3.082,0,0,0-3.082-3.082h0A3.081,3.081,0,0,0,196.326,364.259Z" transform="translate(-196.326 -361.177)" fill="none" stroke="#738cbf" stroke-linecap="round" stroke-linejoin="round" stroke-width="0.75"/>
      <path id="Path_150" data-name="Path 150" d="M196.326,364.259v6.1h6.162v-6.1a3.082,3.082,0,0,0-3.082-3.082h0A3.081,3.081,0,0,0,196.326,364.259Z" transform="translate(-196.326 -361.177)" fill="#cdd9e9"/>
      <path id="Path_151" data-name="Path 151" d="M196.326,364.259v6.1h6.162v-6.1a3.082,3.082,0,0,0-3.082-3.082h0A3.081,3.081,0,0,0,196.326,364.259Z" transform="translate(-196.326 -361.177)" fill="none" stroke="#738cbf" stroke-linecap="round" stroke-linejoin="round" stroke-width="0.75"/>
    </g>
    <g id="Group_59" data-name="Group 59" transform="translate(517.568 373.485)">
      <path id="Path_152" data-name="Path 152" d="M234.865,252.96l-8.466-8.468a3.082,3.082,0,0,0-4.358,0h0a3.08,3.08,0,0,0,0,4.358l8.466,8.468a3.082,3.082,0,0,0,4.358,0h0A3.08,3.08,0,0,0,234.865,252.96Z" transform="translate(-221.137 -243.59)" fill="#f9fbfc"/>
      <path id="Path_153" data-name="Path 153" d="M234.865,252.96l-8.466-8.468a3.082,3.082,0,0,0-4.358,0h0a3.08,3.08,0,0,0,0,4.358l8.466,8.468a3.082,3.082,0,0,0,4.358,0h0A3.08,3.08,0,0,0,234.865,252.96Z" transform="translate(-221.137 -243.59)" fill="none" stroke="#738cbf" stroke-linecap="round" stroke-linejoin="round" stroke-width="0.75"/>
      <path id="Path_154" data-name="Path 154" d="M233.273,251.368l-4.317-4.317-4.357,4.358,4.316,4.317a3.082,3.082,0,0,0,4.358,0h0A3.08,3.08,0,0,0,233.273,251.368Z" transform="translate(-219.545 -241.998)" fill="#cdd9e9"/>
      <path id="Path_155" data-name="Path 155" d="M233.273,251.368l-4.317-4.317-4.357,4.358,4.316,4.317a3.082,3.082,0,0,0,4.358,0h0A3.08,3.08,0,0,0,233.273,251.368Z" transform="translate(-219.545 -241.998)" fill="none" stroke="#738cbf" stroke-linecap="round" stroke-linejoin="round" stroke-width="0.75"/>
    </g>
    <g id="Group_60" data-name="Group 60" transform="translate(1722.473 414.868)">
      <path id="Path_156" data-name="Path 156" d="M399.2,267.5l8.466-8.468a3.08,3.08,0,0,0,0-4.358h0a3.082,3.082,0,0,0-4.358,0l-8.466,8.468a3.082,3.082,0,0,0,0,4.358h0A3.082,3.082,0,0,0,399.2,267.5Z" transform="translate(-393.942 -253.774)" fill="#f9fbfc"/>
      <path id="Path_157" data-name="Path 157" d="M399.2,267.5l8.466-8.468a3.08,3.08,0,0,0,0-4.358h0a3.082,3.082,0,0,0-4.358,0l-8.466,8.468a3.082,3.082,0,0,0,0,4.358h0A3.082,3.082,0,0,0,399.2,267.5Z" transform="translate(-393.942 -253.774)" fill="none" stroke="#738cbf" stroke-linecap="round" stroke-linejoin="round" stroke-width="0.75"/>
      <path id="Path_158" data-name="Path 158" d="M399.2,265.91l4.317-4.317-4.358-4.358-4.317,4.317a3.082,3.082,0,0,0,0,4.358h0A3.082,3.082,0,0,0,399.2,265.91Z" transform="translate(-393.942 -252.182)" fill="#cdd9e9"/>
      <path id="Path_159" data-name="Path 159" d="M399.2,265.91l4.317-4.317-4.358-4.358-4.317,4.317a3.082,3.082,0,0,0,0,4.358h0A3.082,3.082,0,0,0,399.2,265.91Z" transform="translate(-393.942 -252.182)" fill="none" stroke="#738cbf" stroke-linecap="round" stroke-linejoin="round" stroke-width="0.75"/>
    </g>
    <g id="Group_61" data-name="Group 61" transform="translate(1938.869 367.219)">
      <path id="Path_160" data-name="Path 160" d="M402.336,249.133h11.974a3.081,3.081,0,0,0,3.082-3.081h0a3.082,3.082,0,0,0-3.082-3.082H402.336a3.081,3.081,0,0,0-3.081,3.082h0A3.081,3.081,0,0,0,402.336,249.133Z" transform="translate(-399.256 -242.971)" fill="none" stroke="#738cbf" stroke-linecap="round" stroke-linejoin="round" stroke-width="0.75"/>
      <path id="Path_161" data-name="Path 161" d="M402.336,249.133h6.106v-6.162h-6.106a3.081,3.081,0,0,0-3.081,3.082h0A3.081,3.081,0,0,0,402.336,249.133Z" transform="translate(-399.256 -242.971)" fill="none" stroke="#738cbf" stroke-linecap="round" stroke-linejoin="round" stroke-width="0.75"/>
    </g>
  </g>
</svg>
