<svg xmlns="http://www.w3.org/2000/svg" xmlns:xlink="http://www.w3.org/1999/xlink" width="1691.75" height="639.55" xmlns:v="https://vecta.io/nano"><style><![CDATA[.B{fill:none}.C{stroke:#738cbf}.D{stroke-linejoin:round}.E{stroke-width:.75}.F{fill:#f9fbfc}.G{stroke-linecap:round}.H{fill:#92e3a9}.I{fill:#cdd9e9}]]></style><path d="M51.259 247.502h-6.932v-6.932h-5.709v6.932h-6.932v5.709h6.932v6.932h5.709v-6.932h6.932z" class="F"/><path d="M51.259 247.502h-6.932v-6.932h-5.709v6.932h-6.932v5.709h6.932v6.932h5.709v-6.932h6.932z" class="B C D E"/><path d="M1320.856 380.639h-6.932v-6.933h-5.709v6.932h-6.932v5.709h6.932v6.932h5.709v-6.932h6.932z" class="F"/><path d="M1320.856 380.639h-6.932v-6.933h-5.709v6.932h-6.932v5.709h6.932v6.932h5.709v-6.932h6.932z" class="B C D E"/><use xlink:href="#B" class="F"/><g class="B C D E"><use xlink:href="#B"/><path d="M382.752 333.783h-11.764" class="G"/></g><circle cx="571.177" cy="8.294" r="7.918" class="F"/><g class="B C D E"><circle cx="571.177" cy="8.294" r="7.918"/><path d="M575.337 12.454l-8.319-8.319" class="G"/></g><use xlink:href="#C" class="F"/><g class="B C D E"><use xlink:href="#C"/><path d="M1660.476 345.861l-8.319-8.319" class="G"/></g><ellipse cx="668.482" cy="491.822" rx="12.669" ry="5.43" class="F"/><g class="B C D E"><ellipse cx="668.482" cy="491.822" rx="12.669" ry="5.43"/><path d="M668.482 488.765v6.411" class="G"/></g><use xlink:href="#D" class="F"/><g class="B C D E"><use xlink:href="#D"/><path d="M1175.315 479.911l-4.533 4.533" class="G"/></g><use xlink:href="#E" class="F"/><use xlink:href="#E" class="B C D E"/><use xlink:href="#F" class="H"/><use xlink:href="#F" class="B C D E"/><use xlink:href="#G" class="F"/><use xlink:href="#G" class="B C D E"/><use xlink:href="#H" class="H"/><use xlink:href="#H" class="B C D E"/><use xlink:href="#E" x="-1673.849" y="409.5" class="F"/><use xlink:href="#E" x="-1673.849" y="409.5" class="B C D E"/><use xlink:href="#I" class="H"/><use xlink:href="#I" class="B C D E"/><use xlink:href="#J" class="F"/><use xlink:href="#J" class="B C D E"/><use xlink:href="#K" fill="#f16880"/><use xlink:href="#K" class="B C D E"/><use xlink:href="#L" class="F"/><use xlink:href="#L" class="B C D E"/><use xlink:href="#M" fill="#f16880"/><use xlink:href="#M" class="B C D E"/><use xlink:href="#N" class="F"/><use xlink:href="#N" class="B C D E"/><use xlink:href="#O" class="I"/><use xlink:href="#O" class="B C D E"/><use xlink:href="#P" class="F"/><use xlink:href="#P" class="B C D E"/><use xlink:href="#Q" class="I"/><use xlink:href="#Q" class="B C D E"/><use xlink:href="#R" class="F"/><use xlink:href="#R" class="B C D E"/><use xlink:href="#S" class="I"/><g class="B C D E"><use xlink:href="#S"/><path d="M1677.115 163.454h11.341a2.92 2.92 0 0 0 2.919-2.917h0a2.92 2.92 0 0 0-2.919-2.919h-11.341a2.92 2.92 0 0 0-2.917 2.919h0a2.92 2.92 0 0 0 2.917 2.917z"/><path d="M1677.115 163.454h5.782v-5.836h-5.782a2.92 2.92 0 0 0-2.917 2.919h0a2.92 2.92 0 0 0 2.917 2.917z"/></g><defs ><path id="B" d="M384.788 333.778a7.92 7.92 0 0 0-7.919-7.919 7.92 7.92 0 0 0-7.919 7.919 7.92 7.92 0 0 0 13.519 5.6 7.92 7.92 0 0 0 2.319-5.6z"/><path id="C" d="M1661.915 347.3a7.92 7.92 0 0 0-11.198-11.197 7.92 7.92 0 0 0-.002 11.197c1.485 1.486 3.499 2.321 5.6 2.321s4.115-.835 5.6-2.321z"/><path id="D" d="M1176.993 478.234c-4.947-4.947-10.677-7.24-12.8-5.119s.172 7.85 5.12 12.8 10.677 7.24 12.8 5.12-.172-7.85-5.12-12.801z"/><path id="E" d="M1675.078 28.685l8.02 8.02a2.92 2.92 0 0 0 4.127 0h0a2.92 2.92 0 0 0 0-4.127l-8.02-8.02a2.92 2.92 0 0 0-4.127 0h0a2.92 2.92 0 0 0 0 4.127z"/><path id="F" d="M1675.078 28.685l4.089 4.089 4.127-4.131-4.089-4.089a2.92 2.92 0 0 0-4.127 0h0a2.92 2.92 0 0 0 0 4.131z"/><path id="G" d="M717.906 21.709V33.05a2.92 2.92 0 0 0 2.919 2.919h0a2.92 2.92 0 0 0 2.917-2.919V21.709a2.92 2.92 0 0 0-2.917-2.917h0a2.92 2.92 0 0 0-2.919 2.917z"/><path id="H" d="M717.906 21.709v5.782h5.836v-5.782a2.92 2.92 0 0 0-2.917-2.917h0a2.92 2.92 0 0 0-2.919 2.917z"/><path id="I" d="M1.229 438.185l4.089 4.089 4.127-4.127-4.089-4.089a2.92 2.92 0 0 0-4.127 0h0a2.92 2.92 0 0 0 0 4.127z"/><path id="J" d="M1005.562 293.796h11.341a2.92 2.92 0 0 0 2.914-2.915h0a2.92 2.92 0 0 0-2.919-2.917h-11.336a2.92 2.92 0 0 0-2.919 2.917h0a2.92 2.92 0 0 0 2.919 2.915z"/><path id="K" d="M1005.562 293.796h5.782v-5.836h-5.782a2.92 2.92 0 0 0-2.919 2.917h0a2.92 2.92 0 0 0 2.919 2.919z"/><path id="L" d="M1163.402 619.786v-11.34a2.92 2.92 0 0 0-2.919-2.918h0a2.92 2.92 0 0 0-2.919 2.918v11.341a2.92 2.92 0 0 0 2.919 2.919h0a2.92 2.92 0 0 0 2.919-2.92z"/><path id="M" d="M1163.402 619.786v-5.778h-5.838v5.781a2.92 2.92 0 0 0 2.919 2.919h0a2.92 2.92 0 0 0 2.919-2.922z"/><path id="N" d="M34.693 624.921v11.341a2.92 2.92 0 0 0 2.917 2.917h0a2.92 2.92 0 0 0 2.919-2.917v-11.341a2.92 2.92 0 0 0-2.919-2.919h0a2.92 2.92 0 0 0-2.917 2.919z"/><path id="O" d="M34.693 624.921v5.781h5.836v-5.781a2.92 2.92 0 0 0-2.919-2.919h0a2.92 2.92 0 0 0-2.917 2.919z"/><path id="P" d="M341.122 172.427l-8.018-8.02a2.92 2.92 0 0 0-4.127 0h0c-.548.547-.855 1.289-.855 2.064s.308 1.516.855 2.064l8.018 8.02a2.92 2.92 0 0 0 4.127 0h0c.548-.547.855-1.289.855-2.064s-.308-1.516-.855-2.064z"/><path id="Q" d="M341.122 172.427l-4.089-4.089-4.126 4.127 4.087 4.089a2.92 2.92 0 0 0 4.127 0h0c.548-.547.856-1.289.856-2.063s-.307-1.516-.855-2.064z"/><path id="R" d="M1474.237 215.746l8.018-8.02c.548-.547.855-1.289.855-2.063s-.308-1.516-.855-2.064h0a2.92 2.92 0 0 0-4.127 0l-8.018 8.02a2.92 2.92 0 0 0 0 4.127h0a2.92 2.92 0 0 0 4.127 0z"/><path id="S" d="M1474.237 215.747l4.089-4.089-4.127-4.127-4.089 4.089a2.92 2.92 0 0 0 0 4.127h0a2.92 2.92 0 0 0 4.127 0z"/></defs></svg>