<svg id="w_icon_1" xmlns="http://www.w3.org/2000/svg" width="80" height="80" viewBox="0 0 80 80">
  <g id="Icon-37" transform="translate(0)">
    <path id="map" d="M40,13.333a2.667,2.667,0,1,0-2.667-2.667A2.669,2.669,0,0,0,40,13.333Zm-8-2.667c0,2.795,2.444,6.805,3.735,8.535L40,24.532l4.292-5.365C45.576,17.7,48,13.423,48,10.667a8,8,0,1,0-16,0Zm1.625,10.167c-.464-.62-4.292-5.872-4.292-10.167a10.667,10.667,0,1,1,21.333,0c0,3.673-2.867,8.54-4.331,10.211L41.041,27.5a1.334,1.334,0,0,1-2.083,0Zm21.041,52.5A1.333,1.333,0,0,0,56,72V53.005l17.7-5.056a1.334,1.334,0,0,0-.733-2.565L54.3,50.717A1.335,1.335,0,0,0,53.333,52V72a1.333,1.333,0,0,0,1.333,1.333ZM49.333,72a1.333,1.333,0,0,0,1.333-1.333V52a1.331,1.331,0,0,0-.908-1.263L31.092,44.445a1.333,1.333,0,1,0-.851,2.527L48,52.957V70.667A1.333,1.333,0,0,0,49.333,72ZM19.617,36.056l-13.333,4a1.333,1.333,0,0,0,.383,2.611,1.364,1.364,0,0,0,.383-.056l13.333-4a1.333,1.333,0,1,0-.765-2.555Zm5.716-25.389A1.333,1.333,0,0,0,24,12V36a1.33,1.33,0,0,0,.912,1.264l24,8a1.31,1.31,0,0,0,.421.069A1.333,1.333,0,0,0,50.667,44V24A1.333,1.333,0,0,0,48,24V42.149L26.667,35.039V12a1.333,1.333,0,0,0-1.333-1.333ZM77.36,11.876a5.169,5.169,0,0,0-4.393-1.159L54.3,16.051a1.335,1.335,0,0,0-.967,1.283V44a1.333,1.333,0,0,0,1.7,1.283L73.7,39.949a1.334,1.334,0,0,0-.733-2.565L56,42.232V18.339l17.605-5.033a2.584,2.584,0,0,1,2.071.64,4.556,4.556,0,0,1,1.657,3.388V68c0,1.752-1.329,2.972-4.367,4.051L54.716,77.265l-28.049-10.2V44a1.333,1.333,0,0,0-1.7-1.283L6.3,48.051a1.334,1.334,0,0,0,.733,2.565L24,45.768V68a1.33,1.33,0,0,0,.877,1.252L54.211,79.919a1.342,1.342,0,0,0,.456.081,1.375,1.375,0,0,0,.367-.051l18.745-5.36C75.48,73.987,80,72.384,80,68V17.333a7.228,7.228,0,0,0-2.64-5.457ZM21.277,69.159a1.335,1.335,0,0,1-.916,1.648L7.033,74.616a4.791,4.791,0,0,1-1.305.184,4.888,4.888,0,0,1-2.965-1.035A7.418,7.418,0,0,1,0,68V17.333c0-4.384,4.52-5.987,6.221-6.589l18.745-5.36A1.334,1.334,0,0,1,25.7,7.949L7.033,13.283C4,14.361,2.667,15.581,2.667,17.333V68a4.8,4.8,0,0,0,1.7,3.639,2.124,2.124,0,0,0,1.933.412l13.324-3.808a1.339,1.339,0,0,1,1.649.916Z" transform="translate(0)" fill-rule="evenodd"/>
  </g>
</svg>
