<svg xmlns="http://www.w3.org/2000/svg" width="80.001" height="80" viewBox="0 0 80.001 80">
  <g id="w_icon_6" transform="translate(-0.999 -1)">
    <g id="Group_2747" data-name="Group 2747" transform="translate(57.774 45.093)">
      <path id="Path_7553" data-name="Path 7553" d="M46.29,45.051a1.29,1.29,0,0,1-.912-2.2,3.869,3.869,0,0,0,0-5.474A1.29,1.29,0,0,1,47.2,35.55a6.448,6.448,0,0,1,0,9.123A1.287,1.287,0,0,1,46.29,45.051Z" transform="translate(-45 -35.172)"/>
    </g>
    <g id="Group_2748" data-name="Group 2748" transform="translate(62.115 40.53)">
      <path id="Path_7554" data-name="Path 7554" d="M49.654,50.64a1.29,1.29,0,0,1-.912-2.2,10.323,10.323,0,0,0,0-14.6,1.29,1.29,0,0,1,1.825-1.825,12.9,12.9,0,0,1,0,18.248A1.281,1.281,0,0,1,49.654,50.64Z" transform="translate(-48.364 -31.636)"/>
    </g>
    <g id="Group_2749" data-name="Group 2749" transform="translate(66.806 35.969)">
      <path id="Path_7555" data-name="Path 7555" d="M53.29,56.228a1.29,1.29,0,0,1-.912-2.2,16.772,16.772,0,0,0,0-23.721A1.29,1.29,0,0,1,54.2,28.479a19.351,19.351,0,0,1,0,27.37A1.281,1.281,0,0,1,53.29,56.228Z" transform="translate(-52 -28.101)"/>
    </g>
    <g id="Group_2750" data-name="Group 2750" transform="translate(0.999 1)">
      <path id="Path_7556" data-name="Path 7556" d="M46.107,20.208a6.462,6.462,0,0,0-4.855-4.285l-2.477-.5v-.234c0-.01-.005-.018-.005-.028a6.425,6.425,0,0,0,2.586-5.133V7.452a6.452,6.452,0,1,0-12.9,0v2.581a6.425,6.425,0,0,0,2.586,5.133c0,.01-.005.018-.005.028v.234l-2.477.5A6.467,6.467,0,0,0,23.7,20.208l-1.634,4.9a1.289,1.289,0,0,0,1.225,1.7H46.516a1.289,1.289,0,0,0,1.225-1.7ZM33.613,16.354a6.453,6.453,0,0,0,2.581,0v.13a1.29,1.29,0,0,1-2.581,0Zm-2.581-8.9a3.871,3.871,0,1,1,7.742,0v2.581a3.871,3.871,0,1,1-7.742,0ZM25.082,24.226l1.066-3.2a3.881,3.881,0,0,1,2.915-2.572L31.341,18a3.87,3.87,0,0,0,7.125,0l2.279.455a3.883,3.883,0,0,1,2.915,2.572l1.066,3.2Z" transform="translate(5.098 -1)"/>
      <path id="Path_7557" data-name="Path 7557" d="M68.74,25.108l-1.634-4.9a6.462,6.462,0,0,0-4.855-4.285l-2.476-.5v-.234c0-.01-.005-.018-.005-.028a6.425,6.425,0,0,0,2.586-5.133V7.452a6.452,6.452,0,0,0-12.9,0v2.581a6.425,6.425,0,0,0,2.586,5.133c0,.01-.005.018-.005.028v.234l-2.477.5A6.467,6.467,0,0,0,44.7,20.208l-1.634,4.9a1.289,1.289,0,0,0,1.225,1.7H67.516a1.288,1.288,0,0,0,1.223-1.7ZM54.613,16.354a6.453,6.453,0,0,0,2.581,0v.13a1.29,1.29,0,1,1-2.581,0Zm-2.581-8.9a3.871,3.871,0,0,1,7.742,0v2.581a3.871,3.871,0,1,1-7.742,0ZM46.082,24.226l1.066-3.2a3.881,3.881,0,0,1,2.915-2.572L52.341,18a3.87,3.87,0,0,0,7.125,0l2.279.455a3.883,3.883,0,0,1,2.915,2.572l1.066,3.2Z" transform="translate(11.195 -1)"/>
      <path id="Path_7558" data-name="Path 7558" d="M25.107,20.208a6.462,6.462,0,0,0-4.855-4.285l-2.477-.5v-.234c0-.01-.005-.018-.005-.028a6.425,6.425,0,0,0,2.586-5.133V7.452a6.452,6.452,0,0,0-12.9,0v2.581a6.425,6.425,0,0,0,2.586,5.133c0,.01-.005.018-.005.028v.234l-2.477.5A6.467,6.467,0,0,0,2.7,20.208l-1.634,4.9a1.289,1.289,0,0,0,1.225,1.7H25.516a1.289,1.289,0,0,0,1.225-1.7ZM12.613,16.354a6.453,6.453,0,0,0,2.581,0v.13a1.29,1.29,0,0,1-2.581,0Zm-2.581-8.9a3.871,3.871,0,0,1,7.742,0v2.581a3.871,3.871,0,1,1-7.742,0ZM4.082,24.226l1.066-3.2a3.881,3.881,0,0,1,2.915-2.572L10.341,18a3.87,3.87,0,0,0,7.125,0l2.279.455a3.883,3.883,0,0,1,2.915,2.572l1.066,3.2Z" transform="translate(-0.999 -1)"/>
    </g>
    <g id="Group_2751" data-name="Group 2751" transform="translate(6.162 35.837)">
      <path id="Path_7559" data-name="Path 7559" d="M23.29,37A1.289,1.289,0,0,0,22,38.29v5.161a1.289,1.289,0,0,0,1.29,1.29H33.613a1.289,1.289,0,0,0,1.29-1.29V38.29A1.289,1.289,0,0,0,33.613,37Zm1.29,2.581h2.581v2.581H24.581Zm7.742,2.581H29.742V39.581h2.581Z" transform="translate(-0.065 -25.386)"/>
      <path id="Path_7560" data-name="Path 7560" d="M48.115,56.5l-1.272-.578a66.337,66.337,0,0,0-26.359-5.977V37.02a66.337,66.337,0,0,0,26.359-5.977l1.272-.578a1.29,1.29,0,0,0-1.068-2.348l-1.272.578a63.805,63.805,0,0,1-26.581,5.757H14.032a3.863,3.863,0,0,0-3.667,2.69,6.431,6.431,0,0,0,0,12.684,3.863,3.863,0,0,0,3.667,2.69h5.161c.863,0,1.723.034,2.581.068V66.71a6.452,6.452,0,1,0,12.9,0V54.424a64.3,64.3,0,0,1,11.1,3.85l1.272.578a1.27,1.27,0,0,0,.533.116,1.29,1.29,0,0,0,.535-2.465ZM7.581,43.484a3.866,3.866,0,0,1,2.581-3.634v7.266A3.863,3.863,0,0,1,7.581,43.484Zm5.161,5.161V38.323a1.291,1.291,0,0,1,1.29-1.29H17.9v2.581h-1.29a1.29,1.29,0,0,0,0,2.581H17.9v2.581h-1.29a1.29,1.29,0,0,0,0,2.581H17.9v2.581H14.032A1.291,1.291,0,0,1,12.742,48.646Zm11.613,9.032h2.581v6.452H24.355ZM32.1,66.71a3.871,3.871,0,1,1-7.742,0h3.871a1.289,1.289,0,0,0,1.29-1.29V56.387a1.289,1.289,0,0,0-1.29-1.29H24.355V52.744A63.65,63.65,0,0,1,32.1,53.831Z" transform="translate(-5 -27.999)"/>
    </g>
    <g id="Group_2753" data-name="Group 2753" transform="translate(47.452 33.258)">
      <g id="Group_2752" data-name="Group 2752">
        <path id="Path_7561" data-name="Path 7561" d="M40.871,62.129A3.876,3.876,0,0,1,37,58.258V29.871a3.871,3.871,0,1,1,7.742,0V58.258A3.876,3.876,0,0,1,40.871,62.129Z" transform="translate(-37 -26)"/>
      </g>
    </g>
  </g>
</svg>
