<svg xmlns="http://www.w3.org/2000/svg" xmlns:xlink="http://www.w3.org/1999/xlink" width="89.756" height="80" xmlns:v="https://vecta.io/nano"><path d="M54.878 48h-20a1 1 0 0 0-1 1v29h2V50h8v15.5h-1.5a1 1 0 1 0 0 2h1.5V78h2V67.5h1.5a1 1 0 1 0 0-2h-1.5V50h8v28h2V49a1 1 0 0 0-1-1zM23.975 15.88a1.01 1.01 0 0 0-.011 1.42.99.99 0 0 0 .711.3c.401-.003.762-.244.918-.614s.079-.796-.198-1.086a1.01 1.01 0 0 0-1.42-.02z"/><use xlink:href="#B"/><path d="M33.04 9.6c.473-.004.878-.34.969-.804s-.157-.928-.594-1.11-.941-.031-1.206.36-.219.915.111 1.254a1.02 1.02 0 0 0 .72.3z"/><use xlink:href="#C"/><use xlink:href="#D"/><path d="M16.01 24.07a1.01 1.01 0 0 0-.01 1.42.99.99 0 0 0 1.41.01 1 1 0 1 0-1.4-1.43zm3.105-.617c.395-.389.399-1.025.01-1.42s-1.025-.399-1.42-.01c-.289.286-.378.717-.225 1.094s.518.624.925.626a1.03 1.03 0 0 0 .71-.29z"/><use xlink:href="#E"/><use xlink:href="#F"/><path d="M19.801 19.975a1.01 1.01 0 0 0-.02 1.42c.193.188.451.295.72.3a1.02 1.02 0 0 0 .7-.29 1 1 0 1 0-1.4-1.43z"/><use xlink:href="#G"/><use xlink:href="#D" x="4.875"/><path d="M29.55 17.6c.401-.003.762-.244.918-.614s.079-.796-.198-1.086a1.001 1.001 0 1 0-1.431 1.4 1.01 1.01 0 0 0 .711.3zm6.27-5.9c.263.001.515-.104.7-.29a1 1 0 1 0-1.41-.01.99.99 0 0 0 .71.3z"/><use xlink:href="#D" x="11.144" y="-6.3"/><path d="M20.494 24.07c-.289.286-.378.717-.225 1.094s.518.624.925.626c.263.001.515-.104.7-.29a1 1 0 0 0-.431-1.679 1 1 0 0 0-.969.249z"/><use xlink:href="#B" x="4.875"/><path d="M18.407 26.118a1 1 0 1 0 1.41.01 1 1 0 0 0-1.41-.01zm5.573-2.665a1 1 0 0 0-1.389-1.43 1.01 1.01 0 0 0-.021 1.42 1 1 0 0 0 .71.29.98.98 0 0 0 .7-.28z"/><use xlink:href="#H"/><path d="M28.875 22.043a1 1 0 0 0-1.679.431 1 1 0 0 0 .249.969 1.01 1.01 0 0 0 .71.3c.401-.002.763-.243.919-.613s.078-.797-.199-1.087z"/><use xlink:href="#B" x="7.663" y="2.1"/><use xlink:href="#I"/><path d="M33.049 17.948a1 1 0 0 0-1.41-.02 1.01 1.01 0 0 0-.01 1.42c.185.193.442.302.71.3a1 1 0 0 0 .7-.29c.191-.184.299-.438.301-.703s-.103-.52-.291-.707zm-2.087 2.047a1 1 0 1 0-.71 1.7 1.02 1.02 0 0 0 .7-.29 1 1 0 0 0 .01-1.41z"/><use xlink:href="#D" x="16.019" y="-6.3"/><path d="M25.369 24.07a1 1 0 0 0 .7 1.71.99.99 0 0 0 .7-.28 1 1 0 0 0-.431-1.679 1 1 0 0 0-.969.249z"/><use xlink:href="#J"/><path d="M23.282 26.118a1 1 0 0 0-.011 1.41c.185.193.442.302.71.3a1 1 0 0 0 .711-1.7 1 1 0 0 0-1.41-.01z"/><use xlink:href="#K"/><path d="M34.779 19.634a1 1 0 0 0-.021 1.42 1 1 0 0 0 1.42.01 1 1 0 1 0-1.4-1.43z"/><use xlink:href="#E" x="16.725" y="-2.389"/><path d="M34.082 23.111a1 1 0 1 0-1.41-.02 1 1 0 0 0 1.41.02zm-5.574 2.665a1 1 0 1 0 1.41.01 1 1 0 0 0-1.41-.01z"/><use xlink:href="#L"/><use xlink:href="#K" x="4.875"/><path d="M38.111 23.547a.98.98 0 0 0 .69-.29 1 1 0 0 0 .02-1.41 1.01 1.01 0 0 0-1.42-.01 1 1 0 0 0-.01 1.41c.19.192.45.3.72.3zm-2.796.338a1 1 0 0 0-.01 1.41c.185.193.442.302.71.3a1 1 0 1 0-.7-1.71zm-2.088 2.048a1 1 0 0 0 .689 1.711 1 1 0 0 0 .712-.291 1 1 0 1 0-1.4-1.42z"/><use xlink:href="#J" x="9.751"/><use xlink:href="#C" x="19.502"/><use xlink:href="#L" x="4.875"/><path d="M39.654 24.411a.99.99 0 0 0-.021 1.41 1 1 0 1 0 .021-1.41zm-2.097 2.048a1 1 0 0 0 .7 1.71c.261.004.514-.096.7-.28a1 1 0 1 0-1.4-1.43zM51.858 14.2a1 1 0 1 0-.01 1.41 1 1 0 0 0 .01-1.41z"/><use xlink:href="#D" x="30.645" y="-6.3"/><use xlink:href="#C" x="24.377"/><use xlink:href="#B" x="24.376"/><path d="M42.179 26.713a1 1 0 0 0-.01 1.41c.185.193.442.302.71.3a1 1 0 0 0 .508-1.864 1 1 0 0 0-1.208.154z"/><use xlink:href="#B" x="27.164" y="2.1"/><path d="M53.227 15.88a1 1 0 0 0 .71 1.72c.259-.001.507-.106.689-.29a.99.99 0 0 0 .021-1.41 1.01 1.01 0 0 0-1.42-.02z"/><use xlink:href="#C" x="29.252"/><use xlink:href="#L" x="14.626"/><path d="M57.41 12.08a1 1 0 0 0-.011 1.42c.185.193.442.302.71.3a1.02 1.02 0 0 0 .7-.29 1 1 0 1 0-1.4-1.43z"/><use xlink:href="#I" x="24.377"/><use xlink:href="#F" x="34.127"/><use xlink:href="#C" x="19.502" y="14.09"/><use xlink:href="#D" x="34.127"/><use xlink:href="#H" x="29.252"/><use xlink:href="#C" x="34.128"/><path d="M47.659 26.118a1 1 0 0 0-.011 1.41c.185.193.442.302.71.3a1 1 0 1 0-.7-1.71zM62.285 12.08a1.001 1.001 0 1 0 1.4 1.43 1.001 1.001 0 1 0-1.4-1.43z"/><use xlink:href="#L" x="19.501"/><path d="M53.242 23.453a1 1 0 1 0-1.42-.02c.389.392 1.02.401 1.42.02zm11.831-9.273a1.001 1.001 0 1 0 1.4 1.43 1.001 1.001 0 1 0-1.4-1.43z"/><use xlink:href="#E" x="38.664"/><path d="M69.947 11.7c.263.001.515-.104.7-.29a1 1 0 1 0-1.41-.01c.185.193.442.302.71.3zM54.621 24.07a1.01 1.01 0 0 0-.01 1.42c.185.193.442.302.71.3a1 1 0 1 0-.7-1.72z"/><use xlink:href="#D" x="45.272" y="-6.3"/><use xlink:href="#G" x="34.128"/><path d="M62.987 15.88a1 1 0 0 0-.021 1.42 1.01 1.01 0 0 0 .711.3c.401-.003.762-.244.918-.614s.079-.796-.198-1.086a1 1 0 0 0-1.41-.02zm4.173-3.8a1.001 1.001 0 1 0 1.4 1.43 1.001 1.001 0 1 0-1.4-1.43z"/><use xlink:href="#H" x="34.127"/><path d="M58.108 23.453c.192-.183.303-.436.306-.701a.99.99 0 0 0-.286-.709 1 1 0 1 0-1.43 1.4 1.01 1.01 0 0 0 .71.3c.263 0 .515-.104.7-.29zM76.136 9.62a1 1 0 1 0-.71-.29 1 1 0 0 0 .71.29z"/><use xlink:href="#M"/><path d="M59.194 24.265c-.391.393-.391 1.027 0 1.42a1.02 1.02 0 0 0 .71.29 1 1 0 1 0-.71-1.71zm8.277-8.268a.98.98 0 0 0 0 1.41.97.97 0 0 0 .7.3 1 1 0 1 0-.7-1.71zM57.127 26.342c-.188.187-.293.44-.293.705s.106.518.293.705a1 1 0 0 0 1.41 0 1 1 0 0 0-1.41-1.41zm8.268-8.278a1.01 1.01 0 0 0 0 1.42 1.04 1.04 0 0 0 .71.29 1.02 1.02 0 0 0 .71-.29c.392-.392.392-1.028 0-1.42s-1.028-.392-1.42 0zm-2.714 5.554a1 1 0 1 0-1.421 0c.19.185.445.289.711.29a1.04 1.04 0 0 0 .71-.29z"/><use xlink:href="#N"/><path d="M74.016 11.74a.96.96 0 0 0 .7-.29 1 1 0 0 0-.705-1.709 1 1 0 0 0-.705 1.709c.187.19.443.295.71.29z"/><use xlink:href="#M" x="2.068" y="-2.12"/><path d="M71.398 19.767a1 1 0 1 0-1.41-1.41.98.98 0 0 0 0 1.41.97.97 0 0 0 .7.3 1 1 0 0 0 .71-.3zm-2.067 2.077a1 1 0 1 0-1.42 0c.394.387 1.026.387 1.42 0zm6.555-9.384a1 1 0 0 0 .7 1.7c.266.001.521-.103.71-.29a1 1 0 1 0-1.41-1.41zm-8.623 10.031c-.392-.392-1.028-.392-1.42 0s-.392 1.028 0 1.42c.19.185.445.289.71.29a1.04 1.04 0 0 0 .71-.29c.391-.393.391-1.027 0-1.42zm-3.486 2.067a1.01 1.01 0 0 0 0 1.42c.19.185.445.289.71.29a1.04 1.04 0 0 0 .71-.29c.381-.397.381-1.023 0-1.42a1.01 1.01 0 0 0-1.42 0zm-2.067 2.077c-.188.187-.293.44-.293.705s.106.518.293.705a.98.98 0 0 0 .71.29c.263.004.517-.101.7-.29s.293-.44.293-.705-.106-.518-.293-.705c-.184-.192-.439-.301-.705-.301s-.521.109-.705.301z"/><use xlink:href="#M" x="4.227" y="0.3"/><path d="M72.055 16.29a1 1 0 0 0 0 1.41.97.97 0 0 0 .7.3 1 1 0 1 0-.7-1.71zm.174 7.111c.265-.001.52-.105.71-.29a1 1 0 1 0-1.42 0c.19.185.445.289.71.29zm.997-2.367a.98.98 0 0 0 1.41 0 1 1 0 1 0-1.41-1.41c-.192.184-.301.439-.301.705s.109.521.301.705zm2.12-2.067a1 1 0 1 0-.22-1.091 1 1 0 0 0 .219 1.091zm-7.962 6.858a1.01 1.01 0 0 0 0 1.42c.19.185.445.289.71.29a1.04 1.04 0 0 0 .71-.29c.392-.392.392-1.028 0-1.42s-1.028-.392-1.42 0zm2.068-2.067a1.01 1.01 0 0 0 0 1.42 1.04 1.04 0 0 0 .71.29c.265-.001.52-.105.71-.29.392-.392.392-1.028 0-1.42s-1.028-.392-1.42 0zm5.394.537a1.01 1.01 0 0 0-1.42 0 1 1 0 0 0 0 1.41 1.01 1.01 0 0 0 .71.3c.404-.003.767-.247.922-.62s.071-.803-.212-1.09zm.7-2.067c-.283.288-.367.717-.212 1.09s.518.617.922.62c.404-.003.767-.247.922-.62s.071-.803-.212-1.09a1.01 1.01 0 0 0-1.42 0z"/><use xlink:href="#N" x="8.396" y="6.231"/><path d="M75.426 27.22a1.001 1.001 0 1 0 1.41 1.42 1.001 1.001 0 1 0-1.41-1.42zM14.5 23.404a1 1 0 1 0-1.41-.02c.19.192.45.3.72.3a.97.97 0 0 0 .69-.28zm6.666-9.244a1 1 0 0 0-.011 1.41c.185.193.442.302.71.3a.99.99 0 0 0 .7-.28 1 1 0 1 0-1.4-1.43zm-2.086 1.691a1 1 0 0 0 .69 1.72c.401-.002.763-.243.919-.613s.078-.797-.199-1.087c-.183-.192-.436-.303-.701-.306a.99.99 0 0 0-.709.286zm-3.82 4.085c-.192.183-.303.436-.306.701a.99.99 0 0 0 .286.709 1 1 0 0 0 1.409.02 1 1 0 1 0-1.389-1.43zm1.704-.627a.99.99 0 0 0 1.41.01 1 1 0 0 0-1.389-1.43 1 1 0 0 0-.021 1.42zm6.299-7.249a1 1 0 0 0 .7 1.72 1.01 1.01 0 0 0 .7-.28c.398-.387.407-1.022.02-1.42s-1.022-.407-1.42-.02zm4.893-2.47a1 1 0 1 0-.72-.3 1.01 1.01 0 0 0 .72.3zm-2.097 2.1c.401-.003.762-.244.918-.614s.079-.796-.198-1.086a1.001 1.001 0 1 0-1.441 1.39 1.03 1.03 0 0 0 .721.31zM14.52 15.802a1 1 0 0 0-.029 1.41.98.98 0 0 0 .72.31.96.96 0 0 0 .689-.28 1 1 0 1 0-1.38-1.44zm2.15-1.682a.99.99 0 0 0-.021 1.41 1.001 1.001 0 1 0 .021-1.41zm-2.92 5.15c.39-.386.399-1.013.02-1.41a1 1 0 1 0-1.439 1.39c.389.392 1.02.401 1.419.02zm9.52-9.69c.402.003.766-.235.923-.605s.077-.798-.203-1.085a1 1 0 0 0-1.644 1.062 1 1 0 0 0 .924.628zm-4.902 2.45a1 1 0 1 0 1.414.026 1 1 0 0 0-1.414-.026zm2.796-.36c.26-.004.509-.104.7-.28a1 1 0 1 0-1.419-.03.98.98 0 0 0 .719.31zm-4.515-.04a1 1 0 1 0-.72-.31c.186.2.447.312.72.31zm-2.859.34a1.01 1.01 0 0 0-.04 1.42 1.03 1.03 0 0 0 .729.31c.255 0 .5-.1.681-.28a1 1 0 1 0-1.37-1.45zm4.596-2.4c.255 0 .499-.101.68-.28a.98.98 0 1 0-.68.28zm-4.616-.06a1.01 1.01 0 0 0 .67-.26.98.98 0 0 0-1.021-1.637.98.98 0 0 0 .351 1.897zM89.756 40v-4.878a.97.97 0 0 0-.286-.69c-.184-.183-.431-.286-.69-.286H80V.976a.97.97 0 0 0-.286-.69C79.53.103 79.283 0 79.024 0H10.732a.97.97 0 0 0-.69.286c-.183.184-.286.431-.286.69v33.17H.976a.97.97 0 0 0-.69.286c-.183.184-.286.431-.286.69V40a5.86 5.86 0 0 0 4.878 5.766v32.283h-3.9c-.356-.011-.69.172-.871.479a.98.98 0 0 0 0 .994c.181.307.515.49.871.479h87.8c.527-.017.945-.449.945-.975s-.418-.959-.945-.975h-3.9V45.766A5.86 5.86 0 0 0 89.756 40zM11.707 1.951h66.342v2.927H11.707zm3.082 4.878a.9.9 0 0 0 .1.166c.183.206.446.324.722.322a.94.94 0 0 0 .654-.254.98.98 0 0 0 .174-.234h3.221a.95.95 0 0 0 .116.185c.185.195.443.303.712.3a.94.94 0 0 0 .672-.273.98.98 0 0 0 .15-.215h3.23a.91.91 0 0 0 .123.2.99.99 0 0 0 .7.293.94.94 0 0 0 .672-.273c.059-.065.109-.137.149-.215h3.231a.91.91 0 0 0 .123.2.99.99 0 0 0 1.385.02.97.97 0 0 0 .143-.215h3.224a.92.92 0 0 0 .125.2.98.98 0 0 0 1.385.01.93.93 0 0 0 .14-.2h3.24a1 1 0 0 0 .128.2c.18.186.427.291.686.293s.507-.1.69-.283a.93.93 0 0 0 .14-.2h3.229a.92.92 0 0 0 .125.2.98.98 0 0 0 1.385.01.95.95 0 0 0 .14-.2h3.233a.98.98 0 0 0 .13.2.95.95 0 0 0 .693.293c.254.001.499-.097.683-.273a.93.93 0 0 0 .142-.215h3.23a.98.98 0 0 0 .13.2.95.95 0 0 0 .693.293.99.99 0 0 0 .683-.283.93.93 0 0 0 .14-.2h3.231a.91.91 0 0 0 .123.2.99.99 0 0 0 .7.293.95.95 0 0 0 .683-.283.93.93 0 0 0 .14-.2h3.235a1 1 0 0 0 .128.2.95.95 0 0 0 .693.293.99.99 0 0 0 .683-.283.93.93 0 0 0 .14-.2h3.228c.033.072.076.139.126.2a.98.98 0 0 0 1.385.01.93.93 0 0 0 .14-.2h3.234a.94.94 0 0 0 .129.2.92.92 0 0 0 1.515-.2h2.74c.036.072.082.14.136.2.061.052.128.097.2.134v3.386a.99.99 0 0 0 0 .433V15.3c-.105.045-.201.109-.283.188a.97.97 0 0 0 0 1.376c.081.081.177.145.283.189v3.057c-.024.02-.056.029-.078.052a.97.97 0 0 0 0 1.376.85.85 0 0 0 .078.054v3.43c-.072.036-.14.082-.2.136a.98.98 0 0 0 0 1.385c.061.052.128.097.2.134v2.588h-6.713a.96.96 0 0 0-.26-.829c-.383-.38-1.002-.38-1.385 0a.97.97 0 0 0-.26.829h-2.685a1 1 0 0 0-.013-1.366.98.98 0 0 0-1.383-.017.98.98 0 0 0-.017 1.383h-4.028a.94.94 0 0 0-.26-.556.97.97 0 0 0-1.375 0 .94.94 0 0 0-.261.556h-2.7a.95.95 0 0 0-.254-.849.97.97 0 0 0-1.376 0c-.219.224-.314.541-.255.849h-2.788a.97.97 0 0 0-1.568-1.093.96.96 0 0 0-.206 1.093h-3.1a.97.97 0 0 0-1.568-1.093c-.291.286-.371.723-.2 1.093h-3.668a.92.92 0 0 0-.243-.488.97.97 0 0 0-1.376-.02.95.95 0 0 0-.258.507H37.13c.026-.36-.152-.705-.46-.893s-.696-.188-1.005 0-.486.533-.46.893h-2.623A.95.95 0 0 0 32.528 28c-.18-.186-.427-.292-.686-.294s-.508.101-.69.284a.95.95 0 0 0-.082 1.278h-3.344a.64.64 0 0 0 .06-.039.98.98 0 0 0 .23-1.061c-.145-.367-.498-.611-.893-.617s-.755.227-.911.591-.078.785.199 1.067l.087.059H22.77a.97.97 0 0 0-1.57-1.092.96.96 0 0 0-.2 1.092h-3.1a.97.97 0 0 0-1.568-1.093c-.291.286-.371.723-.2 1.093h-3.118c.172-.372.091-.811-.203-1.097s-.736-.354-1.102-.171V15.325a.98.98 0 0 0 .293.06c.251-.002.492-.1.673-.273a.97.97 0 0 0-.966-1.628v-2.377a.93.93 0 0 0 .2-.122c.243-.211.364-.529.324-.847s-.237-.597-.524-.741V6.829zm54.479 27.317H11.707V31.22h66.342v2.927zm8.78 1.951V40a3.9 3.9 0 0 1-7.8 0v-3.9zm-9.756 0V40a3.9 3.9 0 1 1-7.8 0v-3.9zm-9.756 0V40a3.9 3.9 0 1 1-7.8 0v-3.9zm-9.756 0V40a3.9 3.9 0 1 1-7.8 0v-3.9zm-9.756 0V40a3.9 3.9 0 1 1-7.8 0v-3.9zm-9.756 0V40a3.9 3.9 0 0 1-7.8 0v-3.9zm-17.561 0h7.8V40a3.9 3.9 0 1 1-7.8 0zM1.951 40v-3.9h7.8V40a3.9 3.9 0 1 1-7.8 0zm80.976 38.049h-76.1V45.762a5.86 5.86 0 0 0 3.9-2.534c1.082 1.638 2.915 2.624 4.878 2.624s3.796-.986 4.878-2.624c1.082 1.638 2.915 2.624 4.878 2.624s3.796-.986 4.878-2.624c1.082 1.638 2.915 2.624 4.878 2.624s3.796-.986 4.878-2.624c1.082 1.638 2.915 2.624 4.878 2.624s3.796-.986 4.878-2.624c1.082 1.638 2.915 2.624 4.878 2.624s3.796-.986 4.878-2.624c1.082 1.638 2.915 2.624 4.878 2.624s3.796-.986 4.878-2.624c1.082 1.638 2.915 2.624 4.878 2.624s3.796-.986 4.878-2.624a5.86 5.86 0 0 0 3.9 2.537zM83.9 43.9c-2.153-.003-3.897-1.747-3.9-3.9v-3.9h7.8V40c-.003 2.153-1.747 3.897-3.9 3.9z"/><path d="M78.787 36.2H10.969c-.544-.009-.977-.456-.969-1v-5c-.008-.544.425-.991.969-1h67.818c.544.009.977.456.969 1v5c.008.544-.425.991-.969 1zm-66.85-2h65.881v-3h-65.88z"/><use xlink:href="#O"/><use xlink:href="#P"/><use xlink:href="#O" x="48.641"/><use xlink:href="#P" x="48.641"/><path d="M47.378 27h-5a1 1 0 0 1-1-1v-4h-4a1 1 0 0 1-1-1v-5a1 1 0 0 1 1-1h4v-4a1 1 0 0 1 1-1h5a1 1 0 0 1 1 1v4h4a1 1 0 0 1 1 1v5a1 1 0 0 1-1 1h-4v4a1 1 0 0 1-1 1zm-4-2h3v-4a1 1 0 0 1 1-1h4v-3h-4a1 1 0 0 1-1-1v-4h-3v4a1 1 0 0 1-1 1h-4v3h4a1 1 0 0 1 1 1zM31 73h-1.5V49a1 1 0 0 0-1-1h-15a1 1 0 0 0-1 1v24H11a1 1 0 1 0 0 2h20a1 1 0 1 0 0-2zm-16.5 0V50h13v23zm64.256 0h-1.5V49a1 1 0 0 0-1-1h-15a1 1 0 0 0-1 1v24h-1.5a1 1 0 1 0 0 2h20a1 1 0 1 0 0-2zm-16.5 0V50h13v23z"/><defs ><path id="B" d="M28.158 12.08a1 1 0 0 0 .431 1.679 1 1 0 0 0 .984-1.664 1 1 0 0 0-1.415-.015z"/><path id="C" d="M30.944 11.7c.263.001.515-.104.7-.29a1 1 0 0 0-.693-1.714 1 1 0 0 0-.717 1.704c.185.193.442.302.71.3z"/><path id="D" d="M26.771 15.9a1.02 1.02 0 0 0 .7-.29 1 1 0 1 0-1.4-1.43 1 1 0 0 0 .7 1.72z"/><path id="E" d="M13.87 26.118a1 1 0 0 0 .693 1.714 1 1 0 0 0 .717-1.704c-.388-.388-1.016-.392-1.41-.01z"/><path id="F" d="M21.878 19.348c.185.193.442.302.71.3.479.003.894-.333.991-.802s-.152-.942-.593-1.128-.953-.035-1.223.361-.221.928.115 1.27z"/><path id="G" d="M28.163 19.358a1 1 0 1 0-1.4-1.43 1.01 1.01 0 0 0-.01 1.42c.185.193.442.302.71.3a1 1 0 0 0 .7-.29z"/><path id="H" d="M24.677 19.975a1 1 0 0 0 .7 1.72 1.02 1.02 0 0 0 .7-.29 1 1 0 1 0-1.4-1.43z"/><path id="I" d="M33.735 15.88a1 1 0 0 0 .69 1.72c.401-.003.762-.244.918-.614s.079-.796-.198-1.086a1 1 0 0 0-1.41-.02z"/><path id="J" d="M37.908 12.08a1.01 1.01 0 0 0-.011 1.42c.185.193.442.302.71.3a1.02 1.02 0 0 0 .7-.29 1 1 0 1 0-1.4-1.43z"/><path id="K" d="M40.695 11.7c.263.001.515-.104.7-.29a1 1 0 0 0-.944-1.679 1 1 0 0 0-.466 1.669c.185.193.442.302.71.3z"/><path id="L" d="M47.666 9.6a1.02 1.02 0 0 0 .7-.29 1 1 0 0 0-1.406-1.422 1 1 0 0 0-.014 1.412 1.02 1.02 0 0 0 .72.3z"/><path id="M" d="M69.539 14.28a1 1 0 0 0 0 1.41 1 1 0 0 0 1.41 0 1 1 0 0 0-.417-1.732 1 1 0 0 0-.993.322z"/><path id="N" d="M63.327 20.131a1.01 1.01 0 0 0 0 1.42c.394.387 1.026.387 1.42 0 .392-.392.392-1.028 0-1.42s-1.028-.392-1.42 0z"/><path id="O" d="M17.051 68.5a1 1 0 0 1-.707-1.707l6.07-6.071a1 1 0 0 1 1.414 1.414l-6.07 6.071a1 1 0 0 1-.707.293z"/><path id="P" d="M18.051 62.5a1 1 0 0 1-.707-1.707l6.476-6.476a1 1 0 0 1 1.414 1.414l-6.476 6.476a1 1 0 0 1-.707.293z"/></defs></svg>