<svg xmlns="http://www.w3.org/2000/svg" width="87.734" height="80.031" viewBox="0 0 87.734 80.031">
  <g id="w_icon_4" transform="translate(-1 -3.81)">
    <g id="Group_2711" data-name="Group 2711" transform="translate(81.195 65.594)">
      <g id="Group_2709" data-name="Group 2709" transform="translate(0 0)">
        <path id="Path_7531" data-name="Path 7531" d="M67.04,56.529a3.77,3.77,0,0,1-7.54,0c0-2.084,1.686-7.649,3.77-7.649S67.04,54.446,67.04,56.529Z" transform="translate(-59.5 -48.88)"/>
      </g>
      <g id="Group_2710" data-name="Group 2710" transform="translate(2.783 7.69)">
        <path id="Path_7532" data-name="Path 7532" d="M62.517,64.813a.983.983,0,0,1-.987-.987V55.477a.987.987,0,0,1,1.974,0v8.348A.983.983,0,0,1,62.517,64.813Z" transform="translate(-61.53 -54.49)"/>
      </g>
    </g>
    <g id="Group_2714" data-name="Group 2714" transform="translate(1 65.594)">
      <g id="Group_2712" data-name="Group 2712" transform="translate(0 0)">
        <path id="Path_7533" data-name="Path 7533" d="M8.54,56.529a3.77,3.77,0,0,1-7.54,0c0-2.084,1.686-7.649,3.77-7.649S8.54,54.446,8.54,56.529Z" transform="translate(-1 -48.88)"/>
      </g>
      <g id="Group_2713" data-name="Group 2713" transform="translate(2.783 7.69)">
        <path id="Path_7534" data-name="Path 7534" d="M4.017,64.813a.983.983,0,0,1-.987-.987V55.477a.987.987,0,0,1,1.974,0v8.348A.983.983,0,0,1,4.017,64.813Z" transform="translate(-3.03 -54.49)"/>
      </g>
    </g>
    <g id="Group_2717" data-name="Group 2717" transform="translate(42.948 64.21)">
      <g id="Group_2715" data-name="Group 2715">
        <rect id="Rectangle_287" data-name="Rectangle 287" width="9.664" height="18.644"/>
      </g>
      <g id="Group_2716" data-name="Group 2716" transform="translate(15.573)">
        <rect id="Rectangle_288" data-name="Rectangle 288" width="9.664" height="18.644"/>
      </g>
    </g>
    <g id="Group_2718" data-name="Group 2718" transform="translate(40.426 8.923)">
      <rect id="Rectangle_289" data-name="Rectangle 289" width="32.393" height="6.512"/>
    </g>
    <g id="Group_2719" data-name="Group 2719" transform="translate(40.426 19.808)">
      <rect id="Rectangle_290" data-name="Rectangle 290" width="32.393" height="6.512"/>
    </g>
    <g id="Group_2720" data-name="Group 2720" transform="translate(40.426 30.692)">
      <rect id="Rectangle_291" data-name="Rectangle 291" width="32.393" height="6.512"/>
    </g>
    <g id="Group_2721" data-name="Group 2721" transform="translate(40.426 41.563)">
      <rect id="Rectangle_292" data-name="Rectangle 292" width="32.393" height="6.512"/>
    </g>
    <g id="Group_2722" data-name="Group 2722" transform="translate(40.426 52.448)">
      <rect id="Rectangle_293" data-name="Rectangle 293" width="32.393" height="6.512"/>
    </g>
    <g id="Group_2723" data-name="Group 2723" transform="translate(35.655 3.81)">
      <path id="Path_7535" data-name="Path 7535" d="M67.227,3.81H27.267a.983.983,0,0,0-.987.987V24.236h1.96V5.77h38V81.88H64.76v1.96h2.468a.983.983,0,0,0,.987-.987V4.8A.983.983,0,0,0,67.227,3.81Z" transform="translate(-26.28 -3.81)"/>
    </g>
    <g id="Group_2724" data-name="Group 2724" transform="translate(12.159 29.102)">
      <path id="Path_7536" data-name="Path 7536" d="M9.14,22.918l2.742-.658V76.011H9.14Z" transform="translate(-9.14 -22.26)" fill="#d4effc"/>
    </g>
    <g id="Group_2725" data-name="Group 2725" transform="translate(40.206 22.33)">
      <path id="Path_7537" data-name="Path 7537" d="M32.342,17.32V77.843H29.6V17.978Z" transform="translate(-29.6 -17.32)" fill="#d4effc"/>
    </g>
    <g id="Group_2726" data-name="Group 2726" transform="translate(11.172 21.344)">
      <path id="Path_7538" data-name="Path 7538" d="M40.2,79.1H9.407a.983.983,0,0,1-.987-.987V25.017a1,1,0,0,1,.754-.96l30.789-7.43a1.011,1.011,0,0,1,.836.178.988.988,0,0,1,.37.768V78.1A.966.966,0,0,1,40.2,79.1Zm-29.8-1.96H39.209V18.848L10.394,25.8Z" transform="translate(-8.42 -16.601)"/>
    </g>
    <g id="Group_2727" data-name="Group 2727" transform="translate(19.301 60.92)">
      <path id="Path_7539" data-name="Path 7539" d="M29.868,68.391H15.337a.983.983,0,0,1-.987-.987V53.723a8.253,8.253,0,1,1,16.505,0V67.4A.983.983,0,0,1,29.868,68.391ZM16.31,66.43H28.881V53.736a6.292,6.292,0,1,0-12.584,0V66.43Z" transform="translate(-14.35 -45.47)"/>
    </g>
    <g id="Group_2731" data-name="Group 2731" transform="translate(16.12 32.283)">
      <g id="Group_2728" data-name="Group 2728">
        <rect id="Rectangle_294" data-name="Rectangle 294" width="5.648" height="5.1"/>
      </g>
      <g id="Group_2729" data-name="Group 2729" transform="translate(8.609)">
        <rect id="Rectangle_295" data-name="Rectangle 295" width="5.648" height="5.1"/>
      </g>
      <g id="Group_2730" data-name="Group 2730" transform="translate(17.218)">
        <rect id="Rectangle_296" data-name="Rectangle 296" width="5.648" height="5.1"/>
      </g>
    </g>
    <g id="Group_2735" data-name="Group 2735" transform="translate(16.12 39.589)">
      <g id="Group_2732" data-name="Group 2732">
        <rect id="Rectangle_297" data-name="Rectangle 297" width="5.648" height="5.1"/>
      </g>
      <g id="Group_2733" data-name="Group 2733" transform="translate(8.609)">
        <rect id="Rectangle_298" data-name="Rectangle 298" width="5.648" height="5.1"/>
      </g>
      <g id="Group_2734" data-name="Group 2734" transform="translate(17.218)">
        <rect id="Rectangle_299" data-name="Rectangle 299" width="5.648" height="5.1"/>
      </g>
    </g>
    <g id="Group_2739" data-name="Group 2739" transform="translate(16.12 46.896)">
      <g id="Group_2736" data-name="Group 2736">
        <rect id="Rectangle_300" data-name="Rectangle 300" width="5.648" height="5.1"/>
      </g>
      <g id="Group_2737" data-name="Group 2737" transform="translate(8.609)">
        <rect id="Rectangle_301" data-name="Rectangle 301" width="5.648" height="5.1"/>
      </g>
      <g id="Group_2738" data-name="Group 2738" transform="translate(17.218)">
        <rect id="Rectangle_302" data-name="Rectangle 302" width="5.648" height="5.1"/>
      </g>
    </g>
    <g id="Group_2743" data-name="Group 2743" transform="translate(16.12 54.189)">
      <g id="Group_2740" data-name="Group 2740">
        <rect id="Rectangle_303" data-name="Rectangle 303" width="5.648" height="5.1"/>
      </g>
      <g id="Group_2741" data-name="Group 2741" transform="translate(8.609)">
        <rect id="Rectangle_304" data-name="Rectangle 304" width="5.648" height="5.1"/>
      </g>
      <g id="Group_2742" data-name="Group 2742" transform="translate(17.218)">
        <rect id="Rectangle_305" data-name="Rectangle 305" width="5.648" height="5.1"/>
      </g>
    </g>
    <g id="Group_2744" data-name="Group 2744" transform="translate(30.048 72.229)">
      <path id="Path_7540" data-name="Path 7540" d="M24.822,55.036a1.316,1.316,0,1,1-1.316-1.316A1.316,1.316,0,0,1,24.822,55.036Z" transform="translate(-22.19 -53.72)"/>
    </g>
    <g id="Group_2745" data-name="Group 2745" transform="translate(1.562 81.866)">
      <path id="Path_7541" data-name="Path 7541" d="M86.211,62.724H2.4a.987.987,0,0,1,0-1.974H86.2a.987.987,0,0,1,.014,1.974Z" transform="translate(-1.41 -60.75)"/>
    </g>
  </g>
</svg>
