<svg xmlns="http://www.w3.org/2000/svg" width="64.421" height="80" viewBox="0 0 64.421 80">
  <g id="w_icon_2" transform="translate(-27.89 -3.8)">
    <path id="Path_7399" data-name="Path 7399" d="M112.408,90.9l-1.363,8.491a9.544,9.544,0,0,1-18.729.035L90.953,90.9a1.715,1.715,0,0,0-3.389.524l1.4,8.6a12.971,12.971,0,0,0,25.473-.07l1.363-8.526a1.706,1.706,0,0,0-1.433-1.957A1.744,1.744,0,0,0,112.408,90.9Z" transform="translate(-41.563 -58.827)"/>
    <path id="Path_7400" data-name="Path 7400" d="M66.808,18.127l1.658,11.846A1.713,1.713,0,0,0,69.2,31.2a1.311,1.311,0,0,0,1.29.1,32.147,32.147,0,0,1,24.934,0,1.392,1.392,0,0,0,.522.1,1.263,1.263,0,0,0,.768-.245,1.742,1.742,0,0,0,.737-1.223l1.658-11.846a5.232,5.232,0,0,0,3.777-5.241,5.663,5.663,0,0,0-1.75-4.158,4.308,4.308,0,0,0-3.992-1.048,5.144,5.144,0,0,0-3.593,4.263,6.176,6.176,0,0,0,.676,3.879c-1.2,1.572-2.3,2.341-3.255,2.236-.952-.07-2.518-1.048-4.575-5.067a5.756,5.756,0,0,0,1.136-2.236,6.368,6.368,0,0,0-.583-4.543A4.456,4.456,0,0,0,82.929,3.8h0a4.49,4.49,0,0,0-4.023,2.376,6.234,6.234,0,0,0-.583,4.543,5.756,5.756,0,0,0,1.136,2.236c-2.027,4.018-3.562,5-4.545,5.067-.952.1-2.057-.664-3.255-2.236a6.04,6.04,0,0,0,.676-3.914,5.052,5.052,0,0,0-3.593-4.228A4.35,4.35,0,0,0,64.75,8.692,5.548,5.548,0,0,0,63,12.85,5.3,5.3,0,0,0,66.808,18.127ZM96.532,12.5a1.814,1.814,0,0,1,1.29-1.5,1.665,1.665,0,0,1,.4-.035,1.637,1.637,0,0,1,1.075.419,2.066,2.066,0,0,1,.645,1.5,1.833,1.833,0,0,1-1.689,1.922h-.184a1.283,1.283,0,0,0-.522.035,1.436,1.436,0,0,0-.338-.419A2.06,2.06,0,0,1,96.532,12.5ZM81.516,7.958a1.612,1.612,0,0,1,1.443-.7,1.649,1.649,0,0,1,1.443.7,2.451,2.451,0,0,1,.276,1.817,1.854,1.854,0,0,1-.891,1.188,1.632,1.632,0,0,0-.768,1.013,1.411,1.411,0,0,0-.061.384,1.671,1.671,0,0,0-.061-.384,1.632,1.632,0,0,0-.768-1.013,1.946,1.946,0,0,1-.89-1.188A2.582,2.582,0,0,1,81.516,7.958ZM75.16,21.446c2.672-.245,5.159-2.9,7.615-8.142a2.321,2.321,0,0,0,.184-.664,1.8,1.8,0,0,0,.184.664c2.457,5.241,4.944,7.9,7.615,8.142,1.781.14,3.5-.734,5.22-2.76l-1.228,8.7a34.751,34.751,0,0,0-23.583,0l-1.228-8.7C71.659,20.712,73.379,21.586,75.16,21.446ZM66.654,11.383A1.569,1.569,0,0,1,68.1,11a1.814,1.814,0,0,1,1.29,1.5,2.051,2.051,0,0,1-.614,1.887,2.117,2.117,0,0,0-.338.419,1.017,1.017,0,0,0-.338-.035h-.4a1.833,1.833,0,0,1-1.689-1.922A2.109,2.109,0,0,1,66.654,11.383Z" transform="translate(-22.842)"/>
    <path id="Path_7401" data-name="Path 7401" d="M92.247,187.109l-3.9-19.848a5.361,5.361,0,0,0-3.252-4.018l-12.491-4.822a1.543,1.543,0,0,0-1.61.349L60.118,169.847,49.2,158.805a1.406,1.406,0,0,0-1.61-.349L35.1,163.278a5.361,5.361,0,0,0-3.252,4.018l-3.9,19.848a3.594,3.594,0,0,0,.612,2.8,2.985,2.985,0,0,0,2.382,1.223h58.27a2.985,2.985,0,0,0,2.382-1.223A3.661,3.661,0,0,0,92.247,187.109Zm-61.135.559,3.863-19.708a1.958,1.958,0,0,1,1.223-1.5l11.59-4.473,11.268,11.426a1.469,1.469,0,0,0,2.157,0l11.268-11.426,11.59,4.473a2.016,2.016,0,0,1,1.223,1.5l3.863,19.708Z" transform="translate(0 -107.362)"/>
  </g>
</svg>
